<?xml version="1.0" encoding="UTF-8"?><svg id="_ар_2" xmlns="http://www.w3.org/2000/svg" xmlns:xlink="http://www.w3.org/1999/xlink" viewBox="0 0 50 50"><defs><style>.cls-1{fill:#fff;}.cls-2{fill:url(#_радієнт_без_назви_2);}</style><linearGradient id="_радієнт_без_назви_2" x1="-10.97" y1="28.8" x2="52.28" y2="22.31" gradientTransform="translate(0 50.11) scale(1 -1)" gradientUnits="userSpaceOnUse"><stop offset="0" stop-color="#03e4d8"/><stop offset="1" stop-color="#00bfbf"/><stop offset="1" stop-color="#00bfbf"/></linearGradient></defs><g id="_ар_1-2"><g id="ico"><rect class="cls-2" width="50" height="50" rx="10" ry="10"/><g id="Vector"><path class="cls-1" d="M14.39,19.7c.81,.81,1.38,1.77,1.74,2.79-1.56-.03-3.11-.63-4.3-1.82-2.44-2.44-2.44-6.4,0-8.84,2.44-2.44,6.4-2.44,8.84,0,1.2,1.2,1.8,2.75,1.82,4.32-1.04-.37-1.99-.96-2.79-1.76l-.79-.79c-1.46-1.46-3.84-1.46-5.3,0-1.47,1.46-1.46,3.84,0,5.3l.79,.8Z"/><path class="cls-1" d="M30.3,14.39c-.81,.81-1.77,1.38-2.79,1.74,.03-1.56,.63-3.11,1.82-4.3,2.44-2.44,6.4-2.44,8.84,0,2.44,2.44,2.44,6.4,0,8.84-1.2,1.2-2.75,1.8-4.32,1.82,.37-1.04,.96-1.99,1.76-2.79l.79-.8c1.46-1.46,1.46-3.84,0-5.3-1.46-1.46-3.84-1.46-5.3,0l-.8,.79Z"/><path class="cls-1" d="M35.61,30.3c-.81-.81-1.38-1.77-1.74-2.79,1.56,.03,3.11,.63,4.3,1.82,2.44,2.44,2.44,6.4,0,8.84-2.44,2.44-6.4,2.44-8.84,0-1.2-1.19-1.8-2.75-1.82-4.32,1.04,.37,1.99,.96,2.79,1.76l.79,.79c1.46,1.46,3.84,1.46,5.3,0,1.46-1.46,1.46-3.84,0-5.3l-.79-.8Z"/><path class="cls-1" d="M19.7,35.61c.81-.81,1.77-1.37,2.79-1.74-.03,1.56-.63,3.11-1.82,4.3-2.44,2.44-6.4,2.44-8.84,0-2.44-2.44-2.44-6.4,0-8.84,1.2-1.19,2.75-1.8,4.32-1.82-.37,1.04-.96,1.99-1.76,2.8l-.79,.79c-1.46,1.46-1.46,3.84,0,5.3,1.46,1.46,3.84,1.46,5.3,0l.8-.79Z"/><path class="cls-1" d="M33.84,32.07c-3.9-3.9-3.9-10.24,0-14.14l1.68-1.68-1.77-1.77-1.68,1.68c-3.91,3.91-10.24,3.91-14.14,0l-1.68-1.68-1.77,1.77,1.68,1.68c3.9,3.9,3.9,10.23,0,14.14l-1.68,1.68,1.77,1.77,1.68-1.68c3.9-3.91,10.24-3.91,14.14,0l1.68,1.68,1.77-1.77-1.68-1.68Z"/></g></g></g></svg>