<svg width="116" height="21" viewBox="0 0 116 21" fill="none" xmlns="http://www.w3.org/2000/svg">
<path d="M9.12109 8.16797C11.2878 8.16797 12.9805 8.69271 14.1992 9.74219C15.4518 10.7917 16.0781 12.2135 16.0781 14.0078C16.0781 15.8698 15.4518 17.3424 14.1992 18.4258C12.9805 19.4753 11.2878 20 9.12109 20H0.691406V0.703125H14.5039V4.10547H4.60156V8.16797H9.12109ZM8.66406 16.8008C10.9661 16.8008 12.1172 15.8698 12.1172 14.0078C12.1172 12.1797 10.9661 11.2656 8.66406 11.2656H4.55078V16.8008H8.66406ZM35.6797 0.703125L29.6875 15.5312C29.0781 17.0547 28.3333 18.2227 27.4531 19.0352C26.6068 19.8477 25.4727 20.2539 24.0508 20.2539C22.6966 20.2539 21.5964 19.8307 20.75 18.9844C19.9036 18.1042 19.4466 16.987 19.3789 15.6328L22.4766 14.8711C22.5443 16.3607 23.1198 17.1055 24.2031 17.1055C24.8802 17.1055 25.4049 16.8516 25.7773 16.3438L16.9922 0.703125H21.3594L27.3516 12.4336L31.6172 0.703125H35.6797ZM45.582 20.2539C42.7721 20.2539 40.5208 19.3568 38.8281 17.5625C37.1354 15.7344 36.2891 13.3307 36.2891 10.3516C36.2891 8.42188 36.6784 6.71224 37.457 5.22266C38.2357 3.69922 39.319 2.53125 40.707 1.71875C42.1289 0.872396 43.7539 0.449219 45.582 0.449219C47.6471 0.449219 49.4076 0.940104 50.8633 1.92188C52.319 2.90365 53.3177 4.29167 53.8594 6.08594L50.2031 7.40625C49.4583 4.96875 47.901 3.75 45.5312 3.75C43.9401 3.75 42.6536 4.34245 41.6719 5.52734C40.724 6.71224 40.25 8.32031 40.25 10.3516C40.25 12.3828 40.724 13.9909 41.6719 15.1758C42.6198 16.3607 43.9062 16.9531 45.5312 16.9531C47.901 16.9531 49.4583 15.7344 50.2031 13.2969L53.8594 14.6172C53.2839 16.3776 52.2682 17.7656 50.8125 18.7812C49.3568 19.763 47.6133 20.2539 45.582 20.2539ZM65.1836 20.2539C62.3398 20.2539 60.0547 19.3568 58.3281 17.5625C56.6016 15.7344 55.7383 13.3307 55.7383 10.3516C55.7383 8.42188 56.1276 6.71224 56.9062 5.22266C57.7188 3.69922 58.8359 2.53125 60.2578 1.71875C61.6797 0.872396 63.3216 0.449219 65.1836 0.449219C68.0612 0.449219 70.3633 1.36328 72.0898 3.19141C73.8164 4.98568 74.6797 7.3724 74.6797 10.3516C74.6797 12.2812 74.2734 14.0078 73.4609 15.5312C72.6823 17.0208 71.5651 18.1888 70.1094 19.0352C68.6875 19.8477 67.0456 20.2539 65.1836 20.2539ZM65.1836 16.8516C66.8424 16.8516 68.1628 16.2591 69.1445 15.0742C70.1602 13.8893 70.668 12.3151 70.668 10.3516C70.668 8.38802 70.1602 6.8138 69.1445 5.62891C68.1628 4.44401 66.8424 3.85156 65.1836 3.85156C63.5247 3.85156 62.1875 4.44401 61.1719 5.62891C60.1901 6.8138 59.6992 8.38802 59.6992 10.3516C59.6992 12.3151 60.1901 13.8893 61.1719 15.0742C62.1875 16.2591 63.5247 16.8516 65.1836 16.8516ZM94.4336 20H90.5234V4.25781H83.2617V10.0469C83.2617 12.6198 83.1263 14.6172 82.8555 16.0391C82.6185 17.4271 82.1445 18.4596 81.4336 19.1367C80.7565 19.7799 79.7747 20.1016 78.4883 20.1016C77.8112 20.1016 77.1003 20.0677 76.3555 20V16.3945H77.3711C77.9805 16.3945 78.4036 16.276 78.6406 16.0391C78.9115 15.8021 79.0977 15.2266 79.1992 14.3125C79.3346 13.3984 79.4023 11.875 79.4023 9.74219V0.703125H94.4336V20ZM108.043 7.8125C110.277 7.8125 112.038 8.35417 113.324 9.4375C114.611 10.5208 115.254 12.0104 115.254 13.9062C115.254 15.8021 114.611 17.2917 113.324 18.375C112.038 19.4583 110.277 20 108.043 20H99.8164V0.703125H103.727V7.8125H108.043ZM107.738 16.6992C110.108 16.6992 111.293 15.7344 111.293 13.8047C111.293 11.9089 110.108 10.9609 107.738 10.9609H103.727V16.6992H107.738Z" fill="#062438"/>
</svg>
