<svg width="225" height="426" viewBox="0 0 225 426" fill="none" xmlns="http://www.w3.org/2000/svg">
<mask id="path-1-outside-1_180_220" maskUnits="userSpaceOnUse" x="0" y="0" width="225" height="426" fill="black">
<rect fill="white" width="225" height="426"/>
<path d="M134.8 10.2331L136.617 11.2694L137.274 11.9918L139.028 14.4099L140.876 15.8232L141.69 16.6083L142.411 18.4926L142.943 19.6232L143.57 20.5967L144.666 21.3505L145.543 21.7588L148.08 22.3869L148.769 22.7009L149.239 23.0463V23.7372L148.863 24.2397L148.362 24.6794L145.449 26.2811L144.415 27.0976L143.476 28.0083L143.069 28.5422L142.693 29.1075L142.379 29.767L142.098 30.4894L139.561 39.9109V40.7274V41.5439L139.843 42.2977L140.406 42.9886L141.565 43.7109L142.536 44.025L146.107 44.653L147.328 45.3753L147.767 46.0034L148.142 46.82L148.644 49.1439L149.145 50.0861L149.834 50.9341L151.274 52.1902L156.693 55.3308L160.921 58.6283L162.111 59.3506L162.55 59.8531L162.706 60.4184L162.362 61.2035L161.579 62.3969V63.025L161.798 63.6217L162.268 64.0928L163.113 64.2498L164.46 63.9044L165.181 64.0928L165.87 64.6895L166.59 66.2283L167.279 67.1705L168.469 67.9556L171.037 68.7094L171.633 69.0862L172.165 69.4945L172.541 70.154L172.823 70.9705V73.5143L173.073 74.3623L173.888 74.8019L174.514 74.9904L180.246 75.5871H180.966L181.498 75.2102L181.906 74.6763L182.187 74.0482L182.97 71.8499L183.346 71.2845L183.816 70.8135L184.192 70.2482L184.818 68.8978L185.163 68.3011L185.695 67.9556H186.447H187.23L187.95 68.4581L188.389 69.3688L188.608 71.1903V72.3837L188.17 77.1259V77.9738L188.42 78.8532L188.827 79.7953L189.767 81.0201L191.865 83.3755L193.337 85.511L193.619 86.2962L193.807 87.2383V88.84L193.463 89.6565L192.962 90.1904L191.771 90.7871L191.239 91.2268L190.957 91.7921V92.6086L191.27 93.3937L192.868 94.8383L193.4 95.4351L193.588 96.0631L193.4 96.9739L191.709 99.0781L190.957 100.46L190.456 101.716V102.438V103.035V103.569V104.291L190.895 105.014L191.865 105.862L194.308 106.867L194.903 107.212L195.342 107.903L195.686 108.876L195.906 110.667V112.959L195.749 113.838L195.499 114.529L195.06 115L192.899 115.409L192.273 115.691L191.803 116.131L191.364 116.633L190.581 117.733L190.111 118.172L189.579 118.518L188.921 118.769H188.232H187.418L180.997 117.795H180.496V118.581L180.809 119.648L184.443 126.306L184.912 127.594L185.1 128.253V128.944V129.541L184.662 129.886L184.004 130.075L181.718 130.295L181.06 130.515L180.653 131.048L180.465 131.834L180.058 136.23L180.527 137.078L181.373 137.926L186.134 139.653L186.792 140.093L187.324 140.69L187.731 141.758V142.448V143.202L187.543 143.893L187.387 144.615V145.589L187.575 146.249L188.232 147.379L191.771 151.996L193.118 154.225L193.557 155.544L193.807 156.958L194.027 157.617L194.34 158.214L194.684 158.748L195.499 159.721L222.152 167.51L219.834 170.65L218.08 171.184H215.637L215.136 171.404L214.948 171.781L215.45 172.315L217.83 173.854L218.112 174.482V175.267L217.391 176.554L216.233 177.936L215.293 178.784L214.729 179.13L214.071 179.349H213.257L210.125 178.69H209.436L208.935 179.067L208.559 179.601L207.306 182.207L207.056 182.93V183.715L207.306 184.845L207.745 185.505L208.309 186.007L211.441 187.546L212.568 188.3L213.539 189.148L214.385 190.121L215.011 191.252L215.262 191.88V192.571V193.325L214.948 194.487L214.071 195.837L210.188 203.877L208.966 205.478L208.653 206.044V206.735L208.966 207.551L209.405 208.148L210.752 209.593L211.127 210.126V210.974L210.814 212.136L209.593 213.895L208.716 214.46H207.901L206.774 213.769L206.085 213.581H205.364L204.675 213.738L204.112 214.021L203.642 214.963L203.297 216.345L203.109 219.234L203.36 220.584L203.767 221.495L207.4 224.29L207.901 224.761L208.152 225.264V225.829L207.557 226.426L205.897 227.65L205.458 228.153L205.177 228.875L205.02 229.755L205.239 231.105L205.615 231.827L206.147 232.393L206.774 232.707L207.557 232.926H208.371H216.264L216.828 233.272L217.203 233.774L217.517 234.371L218.018 235.596L218.832 238.297V238.956L218.613 239.616L217.83 240.055L214.071 241.532L213.727 241.814L213.476 242.254V243.008L213.664 244.264L213.977 245.049L214.667 246.274L214.886 246.965L215.074 249.226V249.917L215.324 250.482L215.763 250.859L216.389 251.141L218.55 251.707L219.083 252.052L219.49 252.555L219.74 253.151V253.968V254.879V255.978V256.857V257.674L220.179 258.961L220.523 259.464L222.121 261.474L222.747 262.573L222.966 263.201V264.018L222.559 264.991L221.463 266.436L220.837 267.535L220.367 268.634L220.179 270.173V271.146L220.335 271.994L220.586 272.623L220.899 273.188L222.434 275.229L222.716 275.794L222.998 276.391L223.186 277.082V277.773V279.312V280.976V281.761V282.484L223.53 283.834L224 285.09V285.75L223.843 286.504L223.311 287.257L221.964 287.948L220.931 288.199L216.922 288.545L213.79 289.864L212.693 290.806L210.219 293.947L209.53 294.512L208.904 294.732H208.215L206.711 294.449L205.333 293.915L204.143 293.256L201.575 291.214L200.197 290.68L197.816 290.272L197.127 290.021L195.906 289.299L193.807 287.697L191.834 286.786L188.702 286.095L187.825 286.566L186.886 287.603L184.317 292.659L183.879 293.13L183.315 293.475H182.626L177.02 292.596H173.888L173.167 293.161L172.447 294.261L171.476 296.836L170.85 298.061L170.474 299.223L170.254 300.071V301.515L170.067 302.489L169.284 303.462L167.216 304.373L166.747 304.781L166.371 305.347L166.089 306.1L165.556 308.173L165.306 309.021L164.961 309.681L164.523 310.214L164.084 310.654L163.051 311.408L161.735 312.727L161.297 313.072L160.796 313.355L160.326 313.983L159.95 314.862L159.386 317.406L158.76 318.254L158.478 319.008V320.013L158.917 321.803L159.324 322.776L159.762 323.499L160.514 324.535L160.764 325.132V325.854L160.545 326.702L159.825 327.676L159.198 328.178L157.977 328.9L157.601 329.403L157.382 330.188V331.13L157.758 332.386L158.071 333.203L159.261 335.652L160.201 338.95L160.827 341.651V343.158L161.266 353.648L161.892 356.38L162.769 358.924L163.364 360.086L163.677 360.588L164.022 361.185L164.21 361.782V362.472L163.521 363.258H162.769H161.36L160.796 363.572L160.483 364.294V366.115L160.796 368.063L161.078 369.068V370.01L160.764 374.532L159.981 379.368L157.695 390.549L156.223 391.554L154.469 394.851L153.154 395.982L151.462 396.17L150.272 395.385L149.239 394.223L147.986 393.187L142.849 392.213L140.218 392.716L140.438 395.259L141.659 396.139L142.912 396.359L143.726 397.175V399.844L143.1 401.321L142.066 402.106L140.782 402.42H139.341L137.775 402.043L134.925 400.19L133.578 399.75H129.131L128.411 400.316L126.876 402.985L126.03 403.864L124.809 404.178L119.234 403.519L116.634 402.608L115.1 402.42L114.317 402.797L113.784 403.519L113.252 403.864L112.469 403.142L110.715 401.069L106.017 400.002H103.198L100.567 401.195L98.6251 403.55L97.247 405.749L95.4618 407.35L92.1419 407.978L89.8554 406.816L88.1328 403.896L87.4438 400.033L88.2894 396.013L86.9427 395.071L85.5646 394.568L84.2178 394.82L82.9337 396.013L82.3386 397.646L83.1529 400.567L82.9337 402.545L81.0232 405.906H79.3005L78.0478 403.739L77.5779 400.441L76.8889 398.431L75.3855 397.206H73.8822L73.1931 399.028L73.7256 400.504L76.1372 403.205L76.701 404.43L76.0432 407.57L74.4772 408.732L72.4727 408.544L70.5622 407.727L65.8641 404.147L63.0453 403.425L60.4145 405.686L60.665 407.759L63.0766 409.078L67.9313 410.397L70.1864 411.998L72.3475 414.228L72.8172 416.207L70.0924 417.023L65.7702 417.274L64.4234 417.023L63.8597 416.269L63.2646 414.919L62.325 413.945L60.8216 414.259L59.6941 417.086L61.6359 423.712L59.5375 425L56.656 424.749L54.4949 423.869L52.741 422.236L51.081 419.693L48.826 414.228L47.9177 412.689L44.5351 409.549L42.1548 408.041L35.8907 409.674L33.5104 408.826L30.3784 412.124L28.4052 407.664L27.4029 404.995L26.9644 403.456L27.1837 402.671L27.7161 402.42H28.3739L28.9063 402.074L29.2195 401.258L28.875 400.787L27.1524 399.688L25.9622 398.494L25.3358 398.054L22.7362 396.641L21.9532 396.044L20.8884 395.008L20.6064 394.16V393.375L20.8884 392.716L21.8593 391.02L22.0785 390.454V389.858V389.01V387.785L21.7027 387.502L21.3268 387.659L20.5438 388.696L19.9174 388.947H19.1657L18.0695 388.162L17.7563 387.345V386.497L17.9443 385.681V384.739L17.5997 384.173L16.9107 383.954H16.1277L15.1254 383.671L14.0292 383.106L12.4945 381.661L11.8681 380.687L11.6176 379.682V378.866L11.7742 378.081L12.4319 375.914L12.5885 375.129V374.312V370.481V369.727L12.7764 369.005L13.3715 367.56L13.5281 366.524L13.622 365.425L13.0896 364.639L11.3983 362.755L10.9912 361.907V361.091L11.273 360.463L11.9934 359.426L12.2753 358.829L12.4319 357.479L12.6511 356.914L13.1836 356.631L14.6556 356.411L15.2507 356.066L15.5639 355.406L15.4073 354.872L14.9062 354.464L12.3066 353.334L11.8055 352.925L11.367 352.486L9.5191 349.722L9.26854 348.717V347.806L9.80097 341.525L10.3021 338.981V337.851L10.0515 337.223L9.5191 336.909H8.95531L7.57727 337.286H6.76291L6.44974 336.815V336.124L6.63765 335.401L6.85687 334.742L7.17009 334.114L7.45196 333.266L7.63987 332.198V330.439L7.42065 329.434L7.01348 328.586L5.9486 326.891V326.137L6.23047 325.572L7.3893 324.912L7.92174 324.472L8.07835 323.436L7.82779 322.4L7.20139 320.704V319.919L7.63987 319.479L9.17458 319.039L9.98889 317.783V317.532L9.58176 316.37L8.29762 313.857L7.358 312.036L7.13874 310.78V309.775L7.3893 309.115L7.73383 308.55L8.54818 307.514L9.92628 306.195L10.4274 305.566L10.8345 304.719L11.2417 303.243V302.269V301.452L11.0225 300.824L9.08062 296.428L8.83005 295.423V294.449L9.01797 292.753L9.17458 291.968L9.98889 289.77L10.2082 288.765V288.011L9.92628 287.383L8.51683 285.844L8.04705 284.996L7.42065 283.52V282.452V281.479L8.17231 278.338V276.265V274.79V273.785L8.42288 273.031L8.79875 272.497L9.23723 272.026L9.73832 271.586L10.8658 270.989L12.7764 270.267L13.2462 269.639L13.5281 268.665V265.525L13.6847 264.52L14.499 262.981L14.9062 261.537V260.657L14.6869 259.935L13.2149 257.799L12.839 257.108L12.4006 256.229L11.8681 254.816V253.811V252.743L12.4945 250.356V249.383V248.252L11.6176 244.484L11.4609 242.725V240.527V239.459L11.1791 238.705L10.7406 238.203L7.60857 235.847L7.13874 235.093L6.66895 233.994L5.51012 228.75L4.38259 225.232L2.12753 220.207L1.40718 218.009L1.18791 216.753V215.748V215.308V214.712L2.97319 210.315L3.1611 209.907L3.44297 209.436L3.85015 208.996L4.35124 208.588L7.82779 206.703L8.26627 206.264L8.67344 205.73L8.92401 205.039L9.3938 202.621L9.92628 197.47L10.2708 195.868L10.49 195.146L10.7719 194.518L11.1478 193.953L11.5862 193.45L13.027 192.194L13.5594 191.503L13.9979 190.561L14.4364 188.771V187.703L14.2484 186.824L13.622 186.416L13.1836 185.945L9.64436 183.055L9.11193 182.396L8.57949 181.579L7.92174 180.135L7.73383 179.067V178.125L7.92174 177.371L8.54818 176.115L8.92401 175.518L9.36249 175.016L10.8032 173.759L11.1791 172.535L11.5236 170.744V166.819V164.966V163.616L11.3357 162.956L10.8032 161.731L10.49 161.292L10.0828 160.789L6.95082 158.308L6.48104 157.617L6.01125 156.738L5.47877 155.199V154.1V153.22L5.76069 152.215L6.04256 150.928L6.32443 148.635V147.348V146.343L6.10521 145.715L5.76069 145.149L5.35351 144.647L4.88372 144.176L3.09845 142.92L2.47205 142.197L1.7517 140.815L1.56374 139.842V138.931L2.47205 136.513L2.78523 135.162V134.189V133.372L2.22149 131.331L1 128.191V127.343V126.683L1.25057 126.086L1.56374 125.553L1.97092 125.019L2.47205 124.61L3.53693 123.888L10.8032 121.407L11.3357 120.779L11.6802 119.837L11.8994 118.141L11.5236 117.356L10.8972 116.916L9.23723 116.728L8.39157 116.414L7.63987 115.88L6.88822 114.969L6.73161 114.215L6.98217 113.65L7.45196 113.21L9.76967 111.986L10.2708 111.514L10.6153 110.949L10.9598 110.133L11.4609 107.714L11.3043 106.867L10.9285 106.27L9.29984 105.045L8.83005 104.511L8.39157 103.883L7.9844 103.035V102.25L8.29762 101.685L8.86136 101.371L13.622 101.025L15.0001 100.68L15.6578 100.177L16.2216 99.4235L16.7228 97.8218V96.8169L16.5348 96.0004L16.2216 95.4664L15.7831 94.9326L14.8435 94.0218L13.6533 93.2995L9.17458 91.9491L8.57949 91.6665L8.17231 91.1954L8.36027 90.7871L8.83005 90.4102L11.5862 88.997L17.8503 86.0764L20.5438 84.3177L22.7362 81.6168L28.0294 73.2945L28.875 72.3209L30.8482 70.4994L31.6625 70.0284L32.8527 69.5573L34.6066 69.3374H35.7028L37.3941 69.7771H38.2084L41.3405 69.463L42.28 69.0862L43.3136 68.4267L45.5687 66.1027L46.383 65.0977L47.8237 62.868L48.2622 62.3655L52.9289 58.9738L54.0878 57.9374L54.8708 57.058L55.7477 55.0481L56.7813 53.1952L57.5956 52.2217L63.5465 47.8564L64.2981 47.1655L64.6427 46.5688L64.8619 45.9092V45.2811V44.8101V43.4282V42.6745L65.0811 42.015L70.6875 37.4927L71.909 36.0166L72.5354 34.8232V34.0695L72.9426 33.1274L73.6316 32.248L75.0097 30.9604L75.5421 29.9554L75.8867 28.9505V27.2547V26.4381L76.3251 25.7472L77.0455 25.3703H78.5802L81.493 26.7522H82.276H82.9963L83.6227 26.3439L83.9986 25.4645V24.6166V23.7687L83.7793 22.2926V21.5075V20.691L83.9673 19.9373L84.2491 19.3406L84.7503 18.6183L84.9382 18.3356L93.8644 14.5041L96.3074 12.2744L97.0591 12.086H98.0614L100.63 13.1224L103.229 14.6298L104.795 15.0066H105.735L106.706 14.6612L107.99 13.7505L108.679 13.0281L109.525 11.929L111.592 10.0761L112.688 9.32233L115.131 8.19174L117.887 7.34379L118.482 7.02977L119.015 6.65288L119.422 6.08761L120.048 3.70084L120.581 2.31901L120.988 1.75369L121.52 1.28263L122.272 1H124.339L125.247 1.37685L125.968 2.06776L126.531 3.63802L126.688 4.73716V5.80497V6.7157V7.40662L127.471 8.22313L128.285 8.72562L134.8 10.2331Z"/>
</mask>
<path d="M134.8 10.2331L136.617 11.2694L137.274 11.9918L139.028 14.4099L140.876 15.8232L141.69 16.6083L142.411 18.4926L142.943 19.6232L143.57 20.5967L144.666 21.3505L145.543 21.7588L148.08 22.3869L148.769 22.7009L149.239 23.0463V23.7372L148.863 24.2397L148.362 24.6794L145.449 26.2811L144.415 27.0976L143.476 28.0083L143.069 28.5422L142.693 29.1075L142.379 29.767L142.098 30.4894L139.561 39.9109V40.7274V41.5439L139.843 42.2977L140.406 42.9886L141.565 43.7109L142.536 44.025L146.107 44.653L147.328 45.3753L147.767 46.0034L148.142 46.82L148.644 49.1439L149.145 50.0861L149.834 50.9341L151.274 52.1902L156.693 55.3308L160.921 58.6283L162.111 59.3506L162.55 59.8531L162.706 60.4184L162.362 61.2035L161.579 62.3969V63.025L161.798 63.6217L162.268 64.0928L163.113 64.2498L164.46 63.9044L165.181 64.0928L165.87 64.6895L166.59 66.2283L167.279 67.1705L168.469 67.9556L171.037 68.7094L171.633 69.0862L172.165 69.4945L172.541 70.154L172.823 70.9705V73.5143L173.073 74.3623L173.888 74.8019L174.514 74.9904L180.246 75.5871H180.966L181.498 75.2102L181.906 74.6763L182.187 74.0482L182.97 71.8499L183.346 71.2845L183.816 70.8135L184.192 70.2482L184.818 68.8978L185.163 68.3011L185.695 67.9556H186.447H187.23L187.95 68.4581L188.389 69.3688L188.608 71.1903V72.3837L188.17 77.1259V77.9738L188.42 78.8532L188.827 79.7953L189.767 81.0201L191.865 83.3755L193.337 85.511L193.619 86.2962L193.807 87.2383V88.84L193.463 89.6565L192.962 90.1904L191.771 90.7871L191.239 91.2268L190.957 91.7921V92.6086L191.27 93.3937L192.868 94.8383L193.4 95.4351L193.588 96.0631L193.4 96.9739L191.709 99.0781L190.957 100.46L190.456 101.716V102.438V103.035V103.569V104.291L190.895 105.014L191.865 105.862L194.308 106.867L194.903 107.212L195.342 107.903L195.686 108.876L195.906 110.667V112.959L195.749 113.838L195.499 114.529L195.06 115L192.899 115.409L192.273 115.691L191.803 116.131L191.364 116.633L190.581 117.733L190.111 118.172L189.579 118.518L188.921 118.769H188.232H187.418L180.997 117.795H180.496V118.581L180.809 119.648L184.443 126.306L184.912 127.594L185.1 128.253V128.944V129.541L184.662 129.886L184.004 130.075L181.718 130.295L181.06 130.515L180.653 131.048L180.465 131.834L180.058 136.23L180.527 137.078L181.373 137.926L186.134 139.653L186.792 140.093L187.324 140.69L187.731 141.758V142.448V143.202L187.543 143.893L187.387 144.615V145.589L187.575 146.249L188.232 147.379L191.771 151.996L193.118 154.225L193.557 155.544L193.807 156.958L194.027 157.617L194.34 158.214L194.684 158.748L195.499 159.721L222.152 167.51L219.834 170.65L218.08 171.184H215.637L215.136 171.404L214.948 171.781L215.45 172.315L217.83 173.854L218.112 174.482V175.267L217.391 176.554L216.233 177.936L215.293 178.784L214.729 179.13L214.071 179.349H213.257L210.125 178.69H209.436L208.935 179.067L208.559 179.601L207.306 182.207L207.056 182.93V183.715L207.306 184.845L207.745 185.505L208.309 186.007L211.441 187.546L212.568 188.3L213.539 189.148L214.385 190.121L215.011 191.252L215.262 191.88V192.571V193.325L214.948 194.487L214.071 195.837L210.188 203.877L208.966 205.478L208.653 206.044V206.735L208.966 207.551L209.405 208.148L210.752 209.593L211.127 210.126V210.974L210.814 212.136L209.593 213.895L208.716 214.46H207.901L206.774 213.769L206.085 213.581H205.364L204.675 213.738L204.112 214.021L203.642 214.963L203.297 216.345L203.109 219.234L203.36 220.584L203.767 221.495L207.4 224.29L207.901 224.761L208.152 225.264V225.829L207.557 226.426L205.897 227.65L205.458 228.153L205.177 228.875L205.02 229.755L205.239 231.105L205.615 231.827L206.147 232.393L206.774 232.707L207.557 232.926H208.371H216.264L216.828 233.272L217.203 233.774L217.517 234.371L218.018 235.596L218.832 238.297V238.956L218.613 239.616L217.83 240.055L214.071 241.532L213.727 241.814L213.476 242.254V243.008L213.664 244.264L213.977 245.049L214.667 246.274L214.886 246.965L215.074 249.226V249.917L215.324 250.482L215.763 250.859L216.389 251.141L218.55 251.707L219.083 252.052L219.49 252.555L219.74 253.151V253.968V254.879V255.978V256.857V257.674L220.179 258.961L220.523 259.464L222.121 261.474L222.747 262.573L222.966 263.201V264.018L222.559 264.991L221.463 266.436L220.837 267.535L220.367 268.634L220.179 270.173V271.146L220.335 271.994L220.586 272.623L220.899 273.188L222.434 275.229L222.716 275.794L222.998 276.391L223.186 277.082V277.773V279.312V280.976V281.761V282.484L223.53 283.834L224 285.09V285.75L223.843 286.504L223.311 287.257L221.964 287.948L220.931 288.199L216.922 288.545L213.79 289.864L212.693 290.806L210.219 293.947L209.53 294.512L208.904 294.732H208.215L206.711 294.449L205.333 293.915L204.143 293.256L201.575 291.214L200.197 290.68L197.816 290.272L197.127 290.021L195.906 289.299L193.807 287.697L191.834 286.786L188.702 286.095L187.825 286.566L186.886 287.603L184.317 292.659L183.879 293.13L183.315 293.475H182.626L177.02 292.596H173.888L173.167 293.161L172.447 294.261L171.476 296.836L170.85 298.061L170.474 299.223L170.254 300.071V301.515L170.067 302.489L169.284 303.462L167.216 304.373L166.747 304.781L166.371 305.347L166.089 306.1L165.556 308.173L165.306 309.021L164.961 309.681L164.523 310.214L164.084 310.654L163.051 311.408L161.735 312.727L161.297 313.072L160.796 313.355L160.326 313.983L159.95 314.862L159.386 317.406L158.76 318.254L158.478 319.008V320.013L158.917 321.803L159.324 322.776L159.762 323.499L160.514 324.535L160.764 325.132V325.854L160.545 326.702L159.825 327.676L159.198 328.178L157.977 328.9L157.601 329.403L157.382 330.188V331.13L157.758 332.386L158.071 333.203L159.261 335.652L160.201 338.95L160.827 341.651V343.158L161.266 353.648L161.892 356.38L162.769 358.924L163.364 360.086L163.677 360.588L164.022 361.185L164.21 361.782V362.472L163.521 363.258H162.769H161.36L160.796 363.572L160.483 364.294V366.115L160.796 368.063L161.078 369.068V370.01L160.764 374.532L159.981 379.368L157.695 390.549L156.223 391.554L154.469 394.851L153.154 395.982L151.462 396.17L150.272 395.385L149.239 394.223L147.986 393.187L142.849 392.213L140.218 392.716L140.438 395.259L141.659 396.139L142.912 396.359L143.726 397.175V399.844L143.1 401.321L142.066 402.106L140.782 402.42H139.341L137.775 402.043L134.925 400.19L133.578 399.75H129.131L128.411 400.316L126.876 402.985L126.03 403.864L124.809 404.178L119.234 403.519L116.634 402.608L115.1 402.42L114.317 402.797L113.784 403.519L113.252 403.864L112.469 403.142L110.715 401.069L106.017 400.002H103.198L100.567 401.195L98.6251 403.55L97.247 405.749L95.4618 407.35L92.1419 407.978L89.8554 406.816L88.1328 403.896L87.4438 400.033L88.2894 396.013L86.9427 395.071L85.5646 394.568L84.2178 394.82L82.9337 396.013L82.3386 397.646L83.1529 400.567L82.9337 402.545L81.0232 405.906H79.3005L78.0478 403.739L77.5779 400.441L76.8889 398.431L75.3855 397.206H73.8822L73.1931 399.028L73.7256 400.504L76.1372 403.205L76.701 404.43L76.0432 407.57L74.4772 408.732L72.4727 408.544L70.5622 407.727L65.8641 404.147L63.0453 403.425L60.4145 405.686L60.665 407.759L63.0766 409.078L67.9313 410.397L70.1864 411.998L72.3475 414.228L72.8172 416.207L70.0924 417.023L65.7702 417.274L64.4234 417.023L63.8597 416.269L63.2646 414.919L62.325 413.945L60.8216 414.259L59.6941 417.086L61.6359 423.712L59.5375 425L56.656 424.749L54.4949 423.869L52.741 422.236L51.081 419.693L48.826 414.228L47.9177 412.689L44.5351 409.549L42.1548 408.041L35.8907 409.674L33.5104 408.826L30.3784 412.124L28.4052 407.664L27.4029 404.995L26.9644 403.456L27.1837 402.671L27.7161 402.42H28.3739L28.9063 402.074L29.2195 401.258L28.875 400.787L27.1524 399.688L25.9622 398.494L25.3358 398.054L22.7362 396.641L21.9532 396.044L20.8884 395.008L20.6064 394.16V393.375L20.8884 392.716L21.8593 391.02L22.0785 390.454V389.858V389.01V387.785L21.7027 387.502L21.3268 387.659L20.5438 388.696L19.9174 388.947H19.1657L18.0695 388.162L17.7563 387.345V386.497L17.9443 385.681V384.739L17.5997 384.173L16.9107 383.954H16.1277L15.1254 383.671L14.0292 383.106L12.4945 381.661L11.8681 380.687L11.6176 379.682V378.866L11.7742 378.081L12.4319 375.914L12.5885 375.129V374.312V370.481V369.727L12.7764 369.005L13.3715 367.56L13.5281 366.524L13.622 365.425L13.0896 364.639L11.3983 362.755L10.9912 361.907V361.091L11.273 360.463L11.9934 359.426L12.2753 358.829L12.4319 357.479L12.6511 356.914L13.1836 356.631L14.6556 356.411L15.2507 356.066L15.5639 355.406L15.4073 354.872L14.9062 354.464L12.3066 353.334L11.8055 352.925L11.367 352.486L9.5191 349.722L9.26854 348.717V347.806L9.80097 341.525L10.3021 338.981V337.851L10.0515 337.223L9.5191 336.909H8.95531L7.57727 337.286H6.76291L6.44974 336.815V336.124L6.63765 335.401L6.85687 334.742L7.17009 334.114L7.45196 333.266L7.63987 332.198V330.439L7.42065 329.434L7.01348 328.586L5.9486 326.891V326.137L6.23047 325.572L7.3893 324.912L7.92174 324.472L8.07835 323.436L7.82779 322.4L7.20139 320.704V319.919L7.63987 319.479L9.17458 319.039L9.98889 317.783V317.532L9.58176 316.37L8.29762 313.857L7.358 312.036L7.13874 310.78V309.775L7.3893 309.115L7.73383 308.55L8.54818 307.514L9.92628 306.195L10.4274 305.566L10.8345 304.719L11.2417 303.243V302.269V301.452L11.0225 300.824L9.08062 296.428L8.83005 295.423V294.449L9.01797 292.753L9.17458 291.968L9.98889 289.77L10.2082 288.765V288.011L9.92628 287.383L8.51683 285.844L8.04705 284.996L7.42065 283.52V282.452V281.479L8.17231 278.338V276.265V274.79V273.785L8.42288 273.031L8.79875 272.497L9.23723 272.026L9.73832 271.586L10.8658 270.989L12.7764 270.267L13.2462 269.639L13.5281 268.665V265.525L13.6847 264.52L14.499 262.981L14.9062 261.537V260.657L14.6869 259.935L13.2149 257.799L12.839 257.108L12.4006 256.229L11.8681 254.816V253.811V252.743L12.4945 250.356V249.383V248.252L11.6176 244.484L11.4609 242.725V240.527V239.459L11.1791 238.705L10.7406 238.203L7.60857 235.847L7.13874 235.093L6.66895 233.994L5.51012 228.75L4.38259 225.232L2.12753 220.207L1.40718 218.009L1.18791 216.753V215.748V215.308V214.712L2.97319 210.315L3.1611 209.907L3.44297 209.436L3.85015 208.996L4.35124 208.588L7.82779 206.703L8.26627 206.264L8.67344 205.73L8.92401 205.039L9.3938 202.621L9.92628 197.47L10.2708 195.868L10.49 195.146L10.7719 194.518L11.1478 193.953L11.5862 193.45L13.027 192.194L13.5594 191.503L13.9979 190.561L14.4364 188.771V187.703L14.2484 186.824L13.622 186.416L13.1836 185.945L9.64436 183.055L9.11193 182.396L8.57949 181.579L7.92174 180.135L7.73383 179.067V178.125L7.92174 177.371L8.54818 176.115L8.92401 175.518L9.36249 175.016L10.8032 173.759L11.1791 172.535L11.5236 170.744V166.819V164.966V163.616L11.3357 162.956L10.8032 161.731L10.49 161.292L10.0828 160.789L6.95082 158.308L6.48104 157.617L6.01125 156.738L5.47877 155.199V154.1V153.22L5.76069 152.215L6.04256 150.928L6.32443 148.635V147.348V146.343L6.10521 145.715L5.76069 145.149L5.35351 144.647L4.88372 144.176L3.09845 142.92L2.47205 142.197L1.7517 140.815L1.56374 139.842V138.931L2.47205 136.513L2.78523 135.162V134.189V133.372L2.22149 131.331L1 128.191V127.343V126.683L1.25057 126.086L1.56374 125.553L1.97092 125.019L2.47205 124.61L3.53693 123.888L10.8032 121.407L11.3357 120.779L11.6802 119.837L11.8994 118.141L11.5236 117.356L10.8972 116.916L9.23723 116.728L8.39157 116.414L7.63987 115.88L6.88822 114.969L6.73161 114.215L6.98217 113.65L7.45196 113.21L9.76967 111.986L10.2708 111.514L10.6153 110.949L10.9598 110.133L11.4609 107.714L11.3043 106.867L10.9285 106.27L9.29984 105.045L8.83005 104.511L8.39157 103.883L7.9844 103.035V102.25L8.29762 101.685L8.86136 101.371L13.622 101.025L15.0001 100.68L15.6578 100.177L16.2216 99.4235L16.7228 97.8218V96.8169L16.5348 96.0004L16.2216 95.4664L15.7831 94.9326L14.8435 94.0218L13.6533 93.2995L9.17458 91.9491L8.57949 91.6665L8.17231 91.1954L8.36027 90.7871L8.83005 90.4102L11.5862 88.997L17.8503 86.0764L20.5438 84.3177L22.7362 81.6168L28.0294 73.2945L28.875 72.3209L30.8482 70.4994L31.6625 70.0284L32.8527 69.5573L34.6066 69.3374H35.7028L37.3941 69.7771H38.2084L41.3405 69.463L42.28 69.0862L43.3136 68.4267L45.5687 66.1027L46.383 65.0977L47.8237 62.868L48.2622 62.3655L52.9289 58.9738L54.0878 57.9374L54.8708 57.058L55.7477 55.0481L56.7813 53.1952L57.5956 52.2217L63.5465 47.8564L64.2981 47.1655L64.6427 46.5688L64.8619 45.9092V45.2811V44.8101V43.4282V42.6745L65.0811 42.015L70.6875 37.4927L71.909 36.0166L72.5354 34.8232V34.0695L72.9426 33.1274L73.6316 32.248L75.0097 30.9604L75.5421 29.9554L75.8867 28.9505V27.2547V26.4381L76.3251 25.7472L77.0455 25.3703H78.5802L81.493 26.7522H82.276H82.9963L83.6227 26.3439L83.9986 25.4645V24.6166V23.7687L83.7793 22.2926V21.5075V20.691L83.9673 19.9373L84.2491 19.3406L84.7503 18.6183L84.9382 18.3356L93.8644 14.5041L96.3074 12.2744L97.0591 12.086H98.0614L100.63 13.1224L103.229 14.6298L104.795 15.0066H105.735L106.706 14.6612L107.99 13.7505L108.679 13.0281L109.525 11.929L111.592 10.0761L112.688 9.32233L115.131 8.19174L117.887 7.34379L118.482 7.02977L119.015 6.65288L119.422 6.08761L120.048 3.70084L120.581 2.31901L120.988 1.75369L121.52 1.28263L122.272 1H124.339L125.247 1.37685L125.968 2.06776L126.531 3.63802L126.688 4.73716V5.80497V6.7157V7.40662L127.471 8.22313L128.285 8.72562L134.8 10.2331Z" fill="white"/>
<path d="M134.8 10.2331L136.617 11.2694L137.274 11.9918L139.028 14.4099L140.876 15.8232L141.69 16.6083L142.411 18.4926L142.943 19.6232L143.57 20.5967L144.666 21.3505L145.543 21.7588L148.08 22.3869L148.769 22.7009L149.239 23.0463V23.7372L148.863 24.2397L148.362 24.6794L145.449 26.2811L144.415 27.0976L143.476 28.0083L143.069 28.5422L142.693 29.1075L142.379 29.767L142.098 30.4894L139.561 39.9109V40.7274V41.5439L139.843 42.2977L140.406 42.9886L141.565 43.7109L142.536 44.025L146.107 44.653L147.328 45.3753L147.767 46.0034L148.142 46.82L148.644 49.1439L149.145 50.0861L149.834 50.9341L151.274 52.1902L156.693 55.3308L160.921 58.6283L162.111 59.3506L162.55 59.8531L162.706 60.4184L162.362 61.2035L161.579 62.3969V63.025L161.798 63.6217L162.268 64.0928L163.113 64.2498L164.46 63.9044L165.181 64.0928L165.87 64.6895L166.59 66.2283L167.279 67.1705L168.469 67.9556L171.037 68.7094L171.633 69.0862L172.165 69.4945L172.541 70.154L172.823 70.9705V73.5143L173.073 74.3623L173.888 74.8019L174.514 74.9904L180.246 75.5871H180.966L181.498 75.2102L181.906 74.6763L182.187 74.0482L182.97 71.8499L183.346 71.2845L183.816 70.8135L184.192 70.2482L184.818 68.8978L185.163 68.3011L185.695 67.9556H186.447H187.23L187.95 68.4581L188.389 69.3688L188.608 71.1903V72.3837L188.17 77.1259V77.9738L188.42 78.8532L188.827 79.7953L189.767 81.0201L191.865 83.3755L193.337 85.511L193.619 86.2962L193.807 87.2383V88.84L193.463 89.6565L192.962 90.1904L191.771 90.7871L191.239 91.2268L190.957 91.7921V92.6086L191.27 93.3937L192.868 94.8383L193.4 95.4351L193.588 96.0631L193.4 96.9739L191.709 99.0781L190.957 100.46L190.456 101.716V102.438V103.035V103.569V104.291L190.895 105.014L191.865 105.862L194.308 106.867L194.903 107.212L195.342 107.903L195.686 108.876L195.906 110.667V112.959L195.749 113.838L195.499 114.529L195.06 115L192.899 115.409L192.273 115.691L191.803 116.131L191.364 116.633L190.581 117.733L190.111 118.172L189.579 118.518L188.921 118.769H188.232H187.418L180.997 117.795H180.496V118.581L180.809 119.648L184.443 126.306L184.912 127.594L185.1 128.253V128.944V129.541L184.662 129.886L184.004 130.075L181.718 130.295L181.06 130.515L180.653 131.048L180.465 131.834L180.058 136.23L180.527 137.078L181.373 137.926L186.134 139.653L186.792 140.093L187.324 140.69L187.731 141.758V142.448V143.202L187.543 143.893L187.387 144.615V145.589L187.575 146.249L188.232 147.379L191.771 151.996L193.118 154.225L193.557 155.544L193.807 156.958L194.027 157.617L194.34 158.214L194.684 158.748L195.499 159.721L222.152 167.51L219.834 170.65L218.08 171.184H215.637L215.136 171.404L214.948 171.781L215.45 172.315L217.83 173.854L218.112 174.482V175.267L217.391 176.554L216.233 177.936L215.293 178.784L214.729 179.13L214.071 179.349H213.257L210.125 178.69H209.436L208.935 179.067L208.559 179.601L207.306 182.207L207.056 182.93V183.715L207.306 184.845L207.745 185.505L208.309 186.007L211.441 187.546L212.568 188.3L213.539 189.148L214.385 190.121L215.011 191.252L215.262 191.88V192.571V193.325L214.948 194.487L214.071 195.837L210.188 203.877L208.966 205.478L208.653 206.044V206.735L208.966 207.551L209.405 208.148L210.752 209.593L211.127 210.126V210.974L210.814 212.136L209.593 213.895L208.716 214.46H207.901L206.774 213.769L206.085 213.581H205.364L204.675 213.738L204.112 214.021L203.642 214.963L203.297 216.345L203.109 219.234L203.36 220.584L203.767 221.495L207.4 224.29L207.901 224.761L208.152 225.264V225.829L207.557 226.426L205.897 227.65L205.458 228.153L205.177 228.875L205.02 229.755L205.239 231.105L205.615 231.827L206.147 232.393L206.774 232.707L207.557 232.926H208.371H216.264L216.828 233.272L217.203 233.774L217.517 234.371L218.018 235.596L218.832 238.297V238.956L218.613 239.616L217.83 240.055L214.071 241.532L213.727 241.814L213.476 242.254V243.008L213.664 244.264L213.977 245.049L214.667 246.274L214.886 246.965L215.074 249.226V249.917L215.324 250.482L215.763 250.859L216.389 251.141L218.55 251.707L219.083 252.052L219.49 252.555L219.74 253.151V253.968V254.879V255.978V256.857V257.674L220.179 258.961L220.523 259.464L222.121 261.474L222.747 262.573L222.966 263.201V264.018L222.559 264.991L221.463 266.436L220.837 267.535L220.367 268.634L220.179 270.173V271.146L220.335 271.994L220.586 272.623L220.899 273.188L222.434 275.229L222.716 275.794L222.998 276.391L223.186 277.082V277.773V279.312V280.976V281.761V282.484L223.53 283.834L224 285.09V285.75L223.843 286.504L223.311 287.257L221.964 287.948L220.931 288.199L216.922 288.545L213.79 289.864L212.693 290.806L210.219 293.947L209.53 294.512L208.904 294.732H208.215L206.711 294.449L205.333 293.915L204.143 293.256L201.575 291.214L200.197 290.68L197.816 290.272L197.127 290.021L195.906 289.299L193.807 287.697L191.834 286.786L188.702 286.095L187.825 286.566L186.886 287.603L184.317 292.659L183.879 293.13L183.315 293.475H182.626L177.02 292.596H173.888L173.167 293.161L172.447 294.261L171.476 296.836L170.85 298.061L170.474 299.223L170.254 300.071V301.515L170.067 302.489L169.284 303.462L167.216 304.373L166.747 304.781L166.371 305.347L166.089 306.1L165.556 308.173L165.306 309.021L164.961 309.681L164.523 310.214L164.084 310.654L163.051 311.408L161.735 312.727L161.297 313.072L160.796 313.355L160.326 313.983L159.95 314.862L159.386 317.406L158.76 318.254L158.478 319.008V320.013L158.917 321.803L159.324 322.776L159.762 323.499L160.514 324.535L160.764 325.132V325.854L160.545 326.702L159.825 327.676L159.198 328.178L157.977 328.9L157.601 329.403L157.382 330.188V331.13L157.758 332.386L158.071 333.203L159.261 335.652L160.201 338.95L160.827 341.651V343.158L161.266 353.648L161.892 356.38L162.769 358.924L163.364 360.086L163.677 360.588L164.022 361.185L164.21 361.782V362.472L163.521 363.258H162.769H161.36L160.796 363.572L160.483 364.294V366.115L160.796 368.063L161.078 369.068V370.01L160.764 374.532L159.981 379.368L157.695 390.549L156.223 391.554L154.469 394.851L153.154 395.982L151.462 396.17L150.272 395.385L149.239 394.223L147.986 393.187L142.849 392.213L140.218 392.716L140.438 395.259L141.659 396.139L142.912 396.359L143.726 397.175V399.844L143.1 401.321L142.066 402.106L140.782 402.42H139.341L137.775 402.043L134.925 400.19L133.578 399.75H129.131L128.411 400.316L126.876 402.985L126.03 403.864L124.809 404.178L119.234 403.519L116.634 402.608L115.1 402.42L114.317 402.797L113.784 403.519L113.252 403.864L112.469 403.142L110.715 401.069L106.017 400.002H103.198L100.567 401.195L98.6251 403.55L97.247 405.749L95.4618 407.35L92.1419 407.978L89.8554 406.816L88.1328 403.896L87.4438 400.033L88.2894 396.013L86.9427 395.071L85.5646 394.568L84.2178 394.82L82.9337 396.013L82.3386 397.646L83.1529 400.567L82.9337 402.545L81.0232 405.906H79.3005L78.0478 403.739L77.5779 400.441L76.8889 398.431L75.3855 397.206H73.8822L73.1931 399.028L73.7256 400.504L76.1372 403.205L76.701 404.43L76.0432 407.57L74.4772 408.732L72.4727 408.544L70.5622 407.727L65.8641 404.147L63.0453 403.425L60.4145 405.686L60.665 407.759L63.0766 409.078L67.9313 410.397L70.1864 411.998L72.3475 414.228L72.8172 416.207L70.0924 417.023L65.7702 417.274L64.4234 417.023L63.8597 416.269L63.2646 414.919L62.325 413.945L60.8216 414.259L59.6941 417.086L61.6359 423.712L59.5375 425L56.656 424.749L54.4949 423.869L52.741 422.236L51.081 419.693L48.826 414.228L47.9177 412.689L44.5351 409.549L42.1548 408.041L35.8907 409.674L33.5104 408.826L30.3784 412.124L28.4052 407.664L27.4029 404.995L26.9644 403.456L27.1837 402.671L27.7161 402.42H28.3739L28.9063 402.074L29.2195 401.258L28.875 400.787L27.1524 399.688L25.9622 398.494L25.3358 398.054L22.7362 396.641L21.9532 396.044L20.8884 395.008L20.6064 394.16V393.375L20.8884 392.716L21.8593 391.02L22.0785 390.454V389.858V389.01V387.785L21.7027 387.502L21.3268 387.659L20.5438 388.696L19.9174 388.947H19.1657L18.0695 388.162L17.7563 387.345V386.497L17.9443 385.681V384.739L17.5997 384.173L16.9107 383.954H16.1277L15.1254 383.671L14.0292 383.106L12.4945 381.661L11.8681 380.687L11.6176 379.682V378.866L11.7742 378.081L12.4319 375.914L12.5885 375.129V374.312V370.481V369.727L12.7764 369.005L13.3715 367.56L13.5281 366.524L13.622 365.425L13.0896 364.639L11.3983 362.755L10.9912 361.907V361.091L11.273 360.463L11.9934 359.426L12.2753 358.829L12.4319 357.479L12.6511 356.914L13.1836 356.631L14.6556 356.411L15.2507 356.066L15.5639 355.406L15.4073 354.872L14.9062 354.464L12.3066 353.334L11.8055 352.925L11.367 352.486L9.5191 349.722L9.26854 348.717V347.806L9.80097 341.525L10.3021 338.981V337.851L10.0515 337.223L9.5191 336.909H8.95531L7.57727 337.286H6.76291L6.44974 336.815V336.124L6.63765 335.401L6.85687 334.742L7.17009 334.114L7.45196 333.266L7.63987 332.198V330.439L7.42065 329.434L7.01348 328.586L5.9486 326.891V326.137L6.23047 325.572L7.3893 324.912L7.92174 324.472L8.07835 323.436L7.82779 322.4L7.20139 320.704V319.919L7.63987 319.479L9.17458 319.039L9.98889 317.783V317.532L9.58176 316.37L8.29762 313.857L7.358 312.036L7.13874 310.78V309.775L7.3893 309.115L7.73383 308.55L8.54818 307.514L9.92628 306.195L10.4274 305.566L10.8345 304.719L11.2417 303.243V302.269V301.452L11.0225 300.824L9.08062 296.428L8.83005 295.423V294.449L9.01797 292.753L9.17458 291.968L9.98889 289.77L10.2082 288.765V288.011L9.92628 287.383L8.51683 285.844L8.04705 284.996L7.42065 283.52V282.452V281.479L8.17231 278.338V276.265V274.79V273.785L8.42288 273.031L8.79875 272.497L9.23723 272.026L9.73832 271.586L10.8658 270.989L12.7764 270.267L13.2462 269.639L13.5281 268.665V265.525L13.6847 264.52L14.499 262.981L14.9062 261.537V260.657L14.6869 259.935L13.2149 257.799L12.839 257.108L12.4006 256.229L11.8681 254.816V253.811V252.743L12.4945 250.356V249.383V248.252L11.6176 244.484L11.4609 242.725V240.527V239.459L11.1791 238.705L10.7406 238.203L7.60857 235.847L7.13874 235.093L6.66895 233.994L5.51012 228.75L4.38259 225.232L2.12753 220.207L1.40718 218.009L1.18791 216.753V215.748V215.308V214.712L2.97319 210.315L3.1611 209.907L3.44297 209.436L3.85015 208.996L4.35124 208.588L7.82779 206.703L8.26627 206.264L8.67344 205.73L8.92401 205.039L9.3938 202.621L9.92628 197.47L10.2708 195.868L10.49 195.146L10.7719 194.518L11.1478 193.953L11.5862 193.45L13.027 192.194L13.5594 191.503L13.9979 190.561L14.4364 188.771V187.703L14.2484 186.824L13.622 186.416L13.1836 185.945L9.64436 183.055L9.11193 182.396L8.57949 181.579L7.92174 180.135L7.73383 179.067V178.125L7.92174 177.371L8.54818 176.115L8.92401 175.518L9.36249 175.016L10.8032 173.759L11.1791 172.535L11.5236 170.744V166.819V164.966V163.616L11.3357 162.956L10.8032 161.731L10.49 161.292L10.0828 160.789L6.95082 158.308L6.48104 157.617L6.01125 156.738L5.47877 155.199V154.1V153.22L5.76069 152.215L6.04256 150.928L6.32443 148.635V147.348V146.343L6.10521 145.715L5.76069 145.149L5.35351 144.647L4.88372 144.176L3.09845 142.92L2.47205 142.197L1.7517 140.815L1.56374 139.842V138.931L2.47205 136.513L2.78523 135.162V134.189V133.372L2.22149 131.331L1 128.191V127.343V126.683L1.25057 126.086L1.56374 125.553L1.97092 125.019L2.47205 124.61L3.53693 123.888L10.8032 121.407L11.3357 120.779L11.6802 119.837L11.8994 118.141L11.5236 117.356L10.8972 116.916L9.23723 116.728L8.39157 116.414L7.63987 115.88L6.88822 114.969L6.73161 114.215L6.98217 113.65L7.45196 113.21L9.76967 111.986L10.2708 111.514L10.6153 110.949L10.9598 110.133L11.4609 107.714L11.3043 106.867L10.9285 106.27L9.29984 105.045L8.83005 104.511L8.39157 103.883L7.9844 103.035V102.25L8.29762 101.685L8.86136 101.371L13.622 101.025L15.0001 100.68L15.6578 100.177L16.2216 99.4235L16.7228 97.8218V96.8169L16.5348 96.0004L16.2216 95.4664L15.7831 94.9326L14.8435 94.0218L13.6533 93.2995L9.17458 91.9491L8.57949 91.6665L8.17231 91.1954L8.36027 90.7871L8.83005 90.4102L11.5862 88.997L17.8503 86.0764L20.5438 84.3177L22.7362 81.6168L28.0294 73.2945L28.875 72.3209L30.8482 70.4994L31.6625 70.0284L32.8527 69.5573L34.6066 69.3374H35.7028L37.3941 69.7771H38.2084L41.3405 69.463L42.28 69.0862L43.3136 68.4267L45.5687 66.1027L46.383 65.0977L47.8237 62.868L48.2622 62.3655L52.9289 58.9738L54.0878 57.9374L54.8708 57.058L55.7477 55.0481L56.7813 53.1952L57.5956 52.2217L63.5465 47.8564L64.2981 47.1655L64.6427 46.5688L64.8619 45.9092V45.2811V44.8101V43.4282V42.6745L65.0811 42.015L70.6875 37.4927L71.909 36.0166L72.5354 34.8232V34.0695L72.9426 33.1274L73.6316 32.248L75.0097 30.9604L75.5421 29.9554L75.8867 28.9505V27.2547V26.4381L76.3251 25.7472L77.0455 25.3703H78.5802L81.493 26.7522H82.276H82.9963L83.6227 26.3439L83.9986 25.4645V24.6166V23.7687L83.7793 22.2926V21.5075V20.691L83.9673 19.9373L84.2491 19.3406L84.7503 18.6183L84.9382 18.3356L93.8644 14.5041L96.3074 12.2744L97.0591 12.086H98.0614L100.63 13.1224L103.229 14.6298L104.795 15.0066H105.735L106.706 14.6612L107.99 13.7505L108.679 13.0281L109.525 11.929L111.592 10.0761L112.688 9.32233L115.131 8.19174L117.887 7.34379L118.482 7.02977L119.015 6.65288L119.422 6.08761L120.048 3.70084L120.581 2.31901L120.988 1.75369L121.52 1.28263L122.272 1H124.339L125.247 1.37685L125.968 2.06776L126.531 3.63802L126.688 4.73716V5.80497V6.7157V7.40662L127.471 8.22313L128.285 8.72562L134.8 10.2331Z" stroke="#E8EBED" stroke-width="2" stroke-linecap="round" stroke-linejoin="round" mask="url(#path-1-outside-1_180_220)"/>
<path d="M121 182.143C121 191.611 104 213 104 213C104 213 87 191.611 87 182.143C87 172.675 94.6112 165 104 165C113.389 165 121 172.675 121 182.143Z" fill="url(#paint0_linear_180_220)"/>
<path d="M113 181.731C113 176.907 108.972 173 104 173C99.028 173 95 176.907 95 181.731C95 186.554 99.028 190.461 104 190.461V202L112.056 185.638C112.654 184.447 113 183.135 113 181.731ZM97.549 181.731C97.549 178.281 100.444 175.473 104 175.473C107.556 175.473 110.451 178.281 110.451 181.731C110.451 185.18 107.556 187.988 104 187.988C100.444 187.988 97.549 185.18 97.549 181.731Z" fill="white"/>
<defs>
<linearGradient id="paint0_linear_180_220" x1="81.9622" y1="152.136" x2="125.197" y2="155.28" gradientUnits="userSpaceOnUse">
<stop stop-color="#03E4D8"/>
<stop offset="1" stop-color="#00BFBF"/>
</linearGradient>
</defs>
</svg>
