<svg width="26" height="26" viewBox="0 0 26 26" fill="none" xmlns="http://www.w3.org/2000/svg">
<g clip-path="url(#clip0_415_534)">
<path fill-rule="evenodd" clip-rule="evenodd" d="M11.5 11.5V6.5H14.5V11.5H19.5V14.5H14.5V19.5H11.5V14.5H6.5V11.5H11.5Z" fill="#00BFBF"/>
<path fill-rule="evenodd" clip-rule="evenodd" d="M13 23C18.5228 23 23 18.5228 23 13C23 7.47715 18.5228 3 13 3C7.47715 3 3 7.47715 3 13C3 18.5228 7.47715 23 13 23ZM13 26C20.1797 26 26 20.1797 26 13C26 5.8203 20.1797 0 13 0C5.8203 0 0 5.8203 0 13C0 20.1797 5.8203 26 13 26Z" fill="#00BFBF"/>
</g>
<defs>
<clipPath id="clip0_415_534">
<rect width="26" height="26" fill="white"/>
</clipPath>
</defs>
</svg>
