<svg width="60" height="60" viewBox="0 0 60 60" fill="none" xmlns="http://www.w3.org/2000/svg">
<circle cx="30" cy="30" r="29" stroke="#062438" stroke-width="2"/>
<path d="M35.5902 26.1549V24.7418C35.5902 24.5008 35.4699 24.3803 35.2295 24.3803H33.8525C33.612 24.3803 33.4918 24.5008 33.4918 24.7418V26.1549C33.4918 26.374 33.612 26.4836 33.8525 26.4836H35.2295C35.4699 26.4836 35.5902 26.374 35.5902 26.1549ZM24.7377 35.6197H35.2295C35.4699 35.6197 35.5902 35.4992 35.5902 35.2582V29.3099H34.1148C34.1585 29.5728 34.1803 29.8028 34.1803 30C34.1803 31.1612 33.765 32.1581 32.9344 32.9906C32.1257 33.8013 31.1421 34.2066 29.9836 34.2066C28.8251 34.2066 27.8306 33.8013 27 32.9906C26.1913 32.1581 25.7869 31.1612 25.7869 30C25.7869 29.759 25.8087 29.529 25.8525 29.3099H24.4098V35.2582C24.4098 35.4992 24.5191 35.6197 24.7377 35.6197ZM31.9836 28.0282C31.4372 27.4804 30.7705 27.2066 29.9836 27.2066C29.2186 27.2066 28.5628 27.4804 28.0164 28.0282C27.4699 28.5759 27.1967 29.2332 27.1967 30C27.1967 30.7668 27.4699 31.4241 28.0164 31.9718C28.5628 32.5196 29.2186 32.7934 29.9836 32.7934C30.7705 32.7934 31.4372 32.5196 31.9836 31.9718C32.5301 31.4241 32.8033 30.7668 32.8033 30C32.8033 29.2332 32.5301 28.5759 31.9836 28.0282ZM35.5902 23C35.9836 23 36.3115 23.1424 36.5738 23.4272C36.8579 23.6901 37 24.0078 37 24.3803V35.6197C37 35.9922 36.8579 36.3099 36.5738 36.5728C36.3115 36.8576 35.9836 37 35.5902 37H24.4098C24.0164 37 23.6776 36.8576 23.3934 36.5728C23.1311 36.3099 23 35.9922 23 35.6197V24.3803C23 24.0078 23.1311 23.6901 23.3934 23.4272C23.6776 23.1424 24.0164 23 24.4098 23H35.5902Z" fill="#062438"/>
</svg>
