<svg width="17" height="17" viewBox="0 0 17 17" fill="none" xmlns="http://www.w3.org/2000/svg">
<path d="M3.55859 7.63281C4.90495 10.2969 6.92448 12.3164 9.61719 13.6914L11.6367 11.6719C11.8945 11.3854 12.2096 11.3138 12.582 11.457C13.6133 11.8008 14.7018 11.9727 15.8477 11.9727C16.0768 11.9727 16.2773 12.0586 16.4492 12.2305C16.6497 12.4023 16.75 12.6172 16.75 12.875V16.0977C16.75 16.3268 16.6497 16.5417 16.4492 16.7422C16.2773 16.9141 16.0768 17 15.8477 17C13.0117 17 10.3906 16.3125 7.98438 14.9375C5.60677 13.5339 3.71615 11.6432 2.3125 9.26562C0.9375 6.85938 0.25 4.23828 0.25 1.40234C0.25 1.17318 0.335938 0.972656 0.507812 0.800781C0.708333 0.60026 0.923177 0.5 1.15234 0.5H4.375C4.63281 0.5 4.84766 0.60026 5.01953 0.800781C5.19141 0.972656 5.27734 1.17318 5.27734 1.40234C5.27734 2.54818 5.44922 3.63672 5.79297 4.66797C5.90755 5.04036 5.83594 5.35547 5.57812 5.61328L3.55859 7.63281Z" fill="url(#paint0_linear_63_92)"/>
<defs>
<linearGradient id="paint0_linear_63_92" x1="-2.5189" y1="-3.28799" x2="18.9573" y2="-0.945648" gradientUnits="userSpaceOnUse">
<stop stop-color="#03E4D8"/>
<stop offset="1" stop-color="#00BFBF"/>
<stop offset="1" stop-color="#00BFBF"/>
</linearGradient>
</defs>
</svg>
