<svg width="60" height="60" viewBox="0 0 60 60" fill="none" xmlns="http://www.w3.org/2000/svg">
<circle cx="30" cy="30" r="29" stroke="#062438" stroke-width="2"/>
<path d="M36.3513 26.4798C36.3513 26.6416 36.3513 26.79 36.3513 26.9249C36.3513 28.1387 36.139 29.3391 35.7143 30.526C35.3146 31.6859 34.7276 32.7514 33.9532 33.7225C33.2037 34.6936 32.217 35.4894 30.993 36.1098C29.7939 36.7033 28.4699 37 27.0211 37C25.1975 37 23.5238 36.474 22 35.422C22.2498 35.4489 22.5121 35.4624 22.7869 35.4624C24.3107 35.4624 25.6721 34.9634 26.8712 33.9653C26.1468 33.9383 25.4973 33.6956 24.9227 33.237C24.3731 32.7784 23.9984 32.1985 23.7986 31.4971C23.9984 31.5511 24.1983 31.578 24.3981 31.578C24.6979 31.578 24.9852 31.5241 25.26 31.4162C24.5105 31.2543 23.886 30.8497 23.3864 30.2023C22.8868 29.5549 22.637 28.8131 22.637 27.9769C22.637 27.9499 22.637 27.9364 22.637 27.9364C23.1116 28.2062 23.6112 28.3545 24.1358 28.3815C23.1616 27.6532 22.6745 26.6686 22.6745 25.4277C22.6745 24.7803 22.8244 24.1869 23.1241 23.6474C23.9485 24.7264 24.9352 25.5896 26.0843 26.237C27.2584 26.8844 28.5199 27.2486 29.8689 27.3295C29.8189 27.0597 29.7939 26.79 29.7939 26.5202C29.7939 25.5491 30.1062 24.7264 30.7307 24.052C31.3802 23.3507 32.1546 23 33.0539 23C34.0031 23 34.8025 23.3642 35.452 24.0925C36.2014 23.9306 36.9009 23.6474 37.5504 23.2428C37.3005 24.079 36.8134 24.7264 36.089 25.185C36.7635 25.104 37.4005 24.9287 38 24.659C37.5504 25.3603 37.0008 25.9672 36.3513 26.4798Z" fill="#062438"/>
</svg>
