<svg width="166" height="126" viewBox="0 0 166 126" fill="none" xmlns="http://www.w3.org/2000/svg">
<path d="M0 28.5V77.3539L25.0009 97.5L50 77.3539V28.5H0ZM25.0009 93.4461L3.16425 75.8557V40.9658H17.6088V72.1482H32.3718V40.9658H46.8232V75.8557L25.0009 93.4461Z" fill="#062438"/>
<path d="M73.3594 52L70.0078 47.5938L68.625 48.9531V52H67.4062V43.0938H68.625V47.5469L73.0781 43.0938H74.6016L70.875 46.75L74.8594 52H73.3594ZM79.2422 52.1172C78.1797 52.1172 77.3281 51.7891 76.6875 51.1328C76.0469 50.4766 75.7266 49.5938 75.7266 48.4844C75.7266 47.4062 76.0547 46.5312 76.7109 45.8594C77.3672 45.1875 78.2109 44.8516 79.2422 44.8516C80.3047 44.8516 81.1562 45.1797 81.7969 45.8359C82.4375 46.4922 82.7578 47.375 82.7578 48.4844C82.7578 49.5625 82.4297 50.4375 81.7734 51.1094C81.1172 51.7812 80.2734 52.1172 79.2422 52.1172ZM79.2422 51.0859C79.9453 51.0859 80.5078 50.8516 80.9297 50.3828C81.3516 49.8984 81.5625 49.2656 81.5625 48.4844C81.5625 47.7031 81.3516 47.0781 80.9297 46.6094C80.5078 46.125 79.9453 45.8828 79.2422 45.8828C78.5391 45.8828 77.9766 46.125 77.5547 46.6094C77.1328 47.0781 76.9219 47.7031 76.9219 48.4844C76.9219 49.2656 77.1328 49.8984 77.5547 50.3828C77.9766 50.8516 78.5391 51.0859 79.2422 51.0859ZM92.5312 44.9688V52H91.3828V46.1172L89.2031 52H87.8906L85.7109 46.1172V52H84.5625V44.9688H86.4375L88.5703 50.7344L90.6797 44.9688H92.5312ZM100.664 50.9688V52C100.602 52.0312 100.469 52.0469 100.266 52.0469C99.8281 52.0469 99.5078 51.9609 99.3047 51.7891C99.1172 51.6172 99.0078 51.3203 98.9766 50.8984C98.7109 51.2734 98.3516 51.5703 97.8984 51.7891C97.4609 52.0078 96.9844 52.1172 96.4688 52.1172C95.7812 52.1172 95.2266 51.9297 94.8047 51.5547C94.3828 51.1641 94.1719 50.6562 94.1719 50.0312C94.1719 49.2812 94.4453 48.75 94.9922 48.4375C95.5547 48.1094 96.2891 47.875 97.1953 47.7344C97.8672 47.625 98.3047 47.5234 98.5078 47.4297C98.7266 47.3359 98.8359 47.1562 98.8359 46.8906C98.8359 46.5781 98.6875 46.3281 98.3906 46.1406C98.1094 45.9531 97.7344 45.8594 97.2656 45.8594C96.8594 45.8594 96.4609 45.9453 96.0703 46.1172C95.6953 46.2734 95.3594 46.5078 95.0625 46.8203L94.3359 46.0703C95.1484 45.2578 96.1406 44.8516 97.3125 44.8516C98.125 44.8516 98.7656 45.0547 99.2344 45.4609C99.7031 45.8672 99.9375 46.4297 99.9375 47.1484V50.5C99.9375 50.8125 100.094 50.9688 100.406 50.9688H100.664ZM96.6094 51.1328C97.2031 51.1328 97.7188 50.9609 98.1562 50.6172C98.5938 50.2578 98.8125 49.8359 98.8125 49.3516V48.2734C98.6875 48.3672 98.5234 48.4375 98.3203 48.4844C98.1172 48.5312 97.7969 48.5859 97.3594 48.6484C96.6875 48.7578 96.1797 48.8984 95.8359 49.0703C95.5078 49.2422 95.3438 49.5547 95.3438 50.0078C95.3438 50.3672 95.4531 50.6484 95.6719 50.8516C95.8906 51.0391 96.2031 51.1328 96.6094 51.1328ZM107.227 44.9688H108.398V52H107.227V48.9531H103.477V52H102.305V44.9688H103.477V47.875H107.227V44.9688ZM117.539 50.9688V53.6406H116.438V52H111.094V53.6406H109.992V50.9688H110.766C110.938 50.4531 111.023 49.4297 111.023 47.8984V44.9688H116.625V50.9688H117.539ZM115.453 50.9688V46H112.172V47.9688C112.172 49.2031 112.086 50.2031 111.914 50.9688H115.453ZM125.391 44.9688L122.695 52.375C122.477 53 122.18 53.5 121.805 53.875C121.43 54.2656 120.984 54.4609 120.469 54.4609C119.859 54.4609 119.391 54.2734 119.062 53.8984C118.75 53.5234 118.602 53.0547 118.617 52.4922L119.672 52.3047C119.641 53.0234 119.906 53.3828 120.469 53.3828C120.688 53.3828 120.875 53.3125 121.031 53.1719C121.203 53.0312 121.359 52.8125 121.5 52.5156L118.195 44.9688H119.484L122.062 51.1328L124.172 44.9688H125.391ZM131.227 48.3906C132.008 48.6875 132.398 49.2578 132.398 50.1016C132.398 50.7109 132.188 51.1797 131.766 51.5078C131.359 51.8359 130.781 52 130.031 52H126.703V44.9688H129.773C130.539 44.9688 131.133 45.125 131.555 45.4375C131.992 45.7344 132.211 46.1875 132.211 46.7969C132.211 47.5625 131.883 48.0938 131.227 48.3906ZM127.852 47.9219H129.773C130.227 47.9219 130.547 47.8438 130.734 47.6875C130.922 47.5312 131.016 47.2734 131.016 46.9141C131.016 46.6016 130.914 46.3672 130.711 46.2109C130.508 46.0391 130.227 45.9531 129.867 45.9531H127.852V47.9219ZM129.938 51.0156C130.328 51.0156 130.633 50.9219 130.852 50.7344C131.086 50.5469 131.203 50.2891 131.203 49.9609C131.203 49.6172 131.078 49.3516 130.828 49.1641C130.594 48.9609 130.258 48.8594 129.82 48.8594H127.852V51.0156H129.938ZM139.992 50.9688V52C139.93 52.0312 139.797 52.0469 139.594 52.0469C139.156 52.0469 138.836 51.9609 138.633 51.7891C138.445 51.6172 138.336 51.3203 138.305 50.8984C138.039 51.2734 137.68 51.5703 137.227 51.7891C136.789 52.0078 136.312 52.1172 135.797 52.1172C135.109 52.1172 134.555 51.9297 134.133 51.5547C133.711 51.1641 133.5 50.6562 133.5 50.0312C133.5 49.2812 133.773 48.75 134.32 48.4375C134.883 48.1094 135.617 47.875 136.523 47.7344C137.195 47.625 137.633 47.5234 137.836 47.4297C138.055 47.3359 138.164 47.1562 138.164 46.8906C138.164 46.5781 138.016 46.3281 137.719 46.1406C137.438 45.9531 137.062 45.8594 136.594 45.8594C136.188 45.8594 135.789 45.9453 135.398 46.1172C135.023 46.2734 134.688 46.5078 134.391 46.8203L133.664 46.0703C134.477 45.2578 135.469 44.8516 136.641 44.8516C137.453 44.8516 138.094 45.0547 138.562 45.4609C139.031 45.8672 139.266 46.4297 139.266 47.1484V50.5C139.266 50.8125 139.422 50.9688 139.734 50.9688H139.992ZM135.938 51.1328C136.531 51.1328 137.047 50.9609 137.484 50.6172C137.922 50.2578 138.141 49.8359 138.141 49.3516V48.2734C138.016 48.3672 137.852 48.4375 137.648 48.4844C137.445 48.5312 137.125 48.5859 136.688 48.6484C136.016 48.7578 135.508 48.8984 135.164 49.0703C134.836 49.2422 134.672 49.5547 134.672 50.0078C134.672 50.3672 134.781 50.6484 135 50.8516C135.219 51.0391 135.531 51.1328 135.938 51.1328ZM146.555 44.9688H147.727V52H146.555V48.9531H142.805V52H141.633V44.9688H142.805V47.875H146.555V44.9688ZM154.992 44.9688H156.164V52H154.992V48.9531H151.242V52H150.07V44.9688H151.242V47.875H154.992V44.9688ZM163.641 52H162.469V49.2344H160.758L158.953 52H157.617L159.539 49.0703C159.086 48.9297 158.734 48.6953 158.484 48.3672C158.234 48.0234 158.109 47.625 158.109 47.1719C158.109 46.5156 158.336 45.9844 158.789 45.5781C159.242 45.1719 159.844 44.9688 160.594 44.9688H163.641V52ZM162.469 48.3203V45.9766H160.688C160.25 45.9766 159.906 46.0781 159.656 46.2812C159.406 46.4844 159.281 46.7656 159.281 47.125C159.281 47.5 159.406 47.7969 159.656 48.0156C159.906 48.2188 160.25 48.3203 160.688 48.3203H162.469ZM73.9688 59.0938V60.2188H70.7109V68H69.4922V60.2188H66.2344V59.0938H73.9688ZM74.8594 64.8594C74.9375 65.5469 75.1797 66.0938 75.5859 66.5C76.0078 66.8906 76.5469 67.0859 77.2031 67.0859C78.2031 67.0859 78.9297 66.7656 79.3828 66.125L80.2266 66.8516C79.9453 67.2266 79.5547 67.5312 79.0547 67.7656C78.5547 68 77.9453 68.1172 77.2266 68.1172C76.1172 68.1172 75.2422 67.7812 74.6016 67.1094C73.9766 66.4375 73.6641 65.5625 73.6641 64.4844C73.6641 63.4062 73.9844 62.5312 74.625 61.8594C75.2656 61.1875 76.0938 60.8516 77.1094 60.8516C78.125 60.8516 78.9297 61.1875 79.5234 61.8594C80.1328 62.5156 80.4375 63.3906 80.4375 64.4844C80.4375 64.6562 80.4297 64.7812 80.4141 64.8594H74.8594ZM77.1094 61.8594C76.5 61.8594 76 62.0469 75.6094 62.4219C75.2188 62.7812 74.9766 63.2812 74.8828 63.9219H79.2188C79.1406 63.2812 78.9141 62.7812 78.5391 62.4219C78.1641 62.0469 77.6875 61.8594 77.1094 61.8594ZM85.7578 60.8516C86.6953 60.8516 87.4453 61.1875 88.0078 61.8594C88.5859 62.5156 88.875 63.3906 88.875 64.4844C88.875 65.5625 88.5781 66.4375 87.9844 67.1094C87.4062 67.7812 86.6641 68.1172 85.7578 68.1172C85.2578 68.1172 84.7969 68.0234 84.375 67.8359C83.9688 67.6328 83.6328 67.3516 83.3672 66.9922V70.3438H82.1953V60.9688H83.1797L83.2734 62.1406C83.5547 61.7344 83.9062 61.4219 84.3281 61.2031C84.7656 60.9688 85.2422 60.8516 85.7578 60.8516ZM85.4766 67.0859C86.1484 67.0859 86.6797 66.8516 87.0703 66.3828C87.4766 65.8984 87.6797 65.2656 87.6797 64.4844C87.6797 63.7031 87.4766 63.0781 87.0703 62.6094C86.6797 62.125 86.1484 61.8828 85.4766 61.8828C84.8047 61.8828 84.2656 62.125 83.8594 62.6094C83.4688 63.0781 83.2734 63.7031 83.2734 64.4844C83.2734 65.2656 83.4688 65.8984 83.8594 66.3828C84.2656 66.8516 84.8047 67.0859 85.4766 67.0859ZM95.5312 60.9688H96.7734V68H95.625V62.5391L91.9219 68H90.6797V60.9688H91.8281V66.4297L95.5312 60.9688ZM104.508 60.9688V62H101.93V68H100.758V62H98.1797V60.9688H104.508ZM108.539 68.1172C107.477 68.1172 106.625 67.7891 105.984 67.1328C105.344 66.4766 105.023 65.5938 105.023 64.4844C105.023 63.4062 105.352 62.5312 106.008 61.8594C106.664 61.1875 107.508 60.8516 108.539 60.8516C109.602 60.8516 110.453 61.1797 111.094 61.8359C111.734 62.4922 112.055 63.375 112.055 64.4844C112.055 65.5625 111.727 66.4375 111.07 67.1094C110.414 67.7812 109.57 68.1172 108.539 68.1172ZM108.539 67.0859C109.242 67.0859 109.805 66.8516 110.227 66.3828C110.648 65.8984 110.859 65.2656 110.859 64.4844C110.859 63.7031 110.648 63.0781 110.227 62.6094C109.805 62.125 109.242 61.8828 108.539 61.8828C107.836 61.8828 107.273 62.125 106.852 62.6094C106.43 63.0781 106.219 63.7031 106.219 64.4844C106.219 65.2656 106.43 65.8984 106.852 66.3828C107.273 66.8516 107.836 67.0859 108.539 67.0859ZM117.422 60.8516C118.359 60.8516 119.109 61.1875 119.672 61.8594C120.25 62.5156 120.539 63.3906 120.539 64.4844C120.539 65.5625 120.242 66.4375 119.648 67.1094C119.07 67.7812 118.328 68.1172 117.422 68.1172C116.922 68.1172 116.461 68.0234 116.039 67.8359C115.633 67.6328 115.297 67.3516 115.031 66.9922V70.3438H113.859V60.9688H114.844L114.938 62.1406C115.219 61.7344 115.57 61.4219 115.992 61.2031C116.43 60.9688 116.906 60.8516 117.422 60.8516ZM117.141 67.0859C117.812 67.0859 118.344 66.8516 118.734 66.3828C119.141 65.8984 119.344 65.2656 119.344 64.4844C119.344 63.7031 119.141 63.0781 118.734 62.6094C118.344 62.125 117.812 61.8828 117.141 61.8828C116.469 61.8828 115.93 62.125 115.523 62.6094C115.133 63.0781 114.938 63.7031 114.938 64.4844C114.938 65.2656 115.133 65.8984 115.523 66.3828C115.93 66.8516 116.469 67.0859 117.141 67.0859ZM122.461 60.9688H123.633V68H122.461V60.9688ZM122.391 58.625H123.703V59.9375H122.391V58.625ZM131.883 66.9688V68C131.82 68.0312 131.688 68.0469 131.484 68.0469C131.047 68.0469 130.727 67.9609 130.523 67.7891C130.336 67.6172 130.227 67.3203 130.195 66.8984C129.93 67.2734 129.57 67.5703 129.117 67.7891C128.68 68.0078 128.203 68.1172 127.688 68.1172C127 68.1172 126.445 67.9297 126.023 67.5547C125.602 67.1641 125.391 66.6562 125.391 66.0312C125.391 65.2812 125.664 64.75 126.211 64.4375C126.773 64.1094 127.508 63.875 128.414 63.7344C129.086 63.625 129.523 63.5234 129.727 63.4297C129.945 63.3359 130.055 63.1562 130.055 62.8906C130.055 62.5781 129.906 62.3281 129.609 62.1406C129.328 61.9531 128.953 61.8594 128.484 61.8594C128.078 61.8594 127.68 61.9453 127.289 62.1172C126.914 62.2734 126.578 62.5078 126.281 62.8203L125.555 62.0703C126.367 61.2578 127.359 60.8516 128.531 60.8516C129.344 60.8516 129.984 61.0547 130.453 61.4609C130.922 61.8672 131.156 62.4297 131.156 63.1484V66.5C131.156 66.8125 131.312 66.9688 131.625 66.9688H131.883ZM127.828 67.1328C128.422 67.1328 128.938 66.9609 129.375 66.6172C129.812 66.2578 130.031 65.8359 130.031 65.3516V64.2734C129.906 64.3672 129.742 64.4375 129.539 64.4844C129.336 64.5312 129.016 64.5859 128.578 64.6484C127.906 64.7578 127.398 64.8984 127.055 65.0703C126.727 65.2422 126.562 65.5547 126.562 66.0078C126.562 66.3672 126.672 66.6484 126.891 66.8516C127.109 67.0391 127.422 67.1328 127.828 67.1328ZM139.43 68H138.258V62H135.07V64.7656C135.07 65.625 135.008 66.2891 134.883 66.7578C134.773 67.2266 134.586 67.5625 134.32 67.7656C134.07 67.9531 133.727 68.0469 133.289 68.0469C133.055 68.0469 132.859 68.0312 132.703 68V66.9219H133.031C133.281 66.9219 133.461 66.8828 133.57 66.8047C133.695 66.7109 133.781 66.5078 133.828 66.1953C133.891 65.8672 133.922 65.3438 133.922 64.625V60.9688H139.43V68ZM145.031 63.7344C145.766 63.7344 146.352 63.9297 146.789 64.3203C147.242 64.7109 147.469 65.2266 147.469 65.8672C147.469 66.5078 147.242 67.0234 146.789 67.4141C146.352 67.8047 145.766 68 145.031 68H141.773V60.9688H142.945V63.7344H145.031ZM144.961 66.9688C145.383 66.9688 145.703 66.875 145.922 66.6875C146.156 66.5 146.273 66.2266 146.273 65.8672C146.273 65.5078 146.156 65.2344 145.922 65.0469C145.703 64.8594 145.383 64.7656 144.961 64.7656H142.945V66.9688H144.961ZM154.031 60.9688H155.203V68H154.031V64.9531H150.281V68H149.109V60.9688H150.281V63.875H154.031V60.9688ZM160.523 68.1172C159.461 68.1172 158.609 67.7891 157.969 67.1328C157.328 66.4766 157.008 65.5938 157.008 64.4844C157.008 63.4062 157.336 62.5312 157.992 61.8594C158.648 61.1875 159.492 60.8516 160.523 60.8516C161.586 60.8516 162.438 61.1797 163.078 61.8359C163.719 62.4922 164.039 63.375 164.039 64.4844C164.039 65.5625 163.711 66.4375 163.055 67.1094C162.398 67.7812 161.555 68.1172 160.523 68.1172ZM160.523 67.0859C161.227 67.0859 161.789 66.8516 162.211 66.3828C162.633 65.8984 162.844 65.2656 162.844 64.4844C162.844 63.7031 162.633 63.0781 162.211 62.6094C161.789 62.125 161.227 61.8828 160.523 61.8828C159.82 61.8828 159.258 62.125 158.836 62.6094C158.414 63.0781 158.203 63.7031 158.203 64.4844C158.203 65.2656 158.414 65.8984 158.836 66.3828C159.258 66.8516 159.82 67.0859 160.523 67.0859ZM67.2891 76.9688H68.4609V84H67.2891V76.9688ZM66.0938 74.625H67.4062V75.9375H66.0938V74.625ZM68.3438 74.625H69.6562V75.9375H68.3438V74.625ZM74.6719 84.1172C73.3906 84.1172 72.3672 83.7031 71.6016 82.875C70.8359 82.0469 70.4531 80.9375 70.4531 79.5469C70.4531 78.6562 70.6328 77.8672 70.9922 77.1797C71.3516 76.4766 71.8516 75.9375 72.4922 75.5625C73.1328 75.1719 73.8594 74.9766 74.6719 74.9766C75.9531 74.9766 76.9766 75.3906 77.7422 76.2188C78.5078 77.0469 78.8906 78.1562 78.8906 79.5469C78.8906 80.4375 78.7109 81.2344 78.3516 81.9375C77.9922 82.625 77.4922 83.1641 76.8516 83.5547C76.2109 83.9297 75.4844 84.1172 74.6719 84.1172ZM74.6719 83.0391C75.5781 83.0391 76.2969 82.7266 76.8281 82.1016C77.375 81.4609 77.6484 80.6094 77.6484 79.5469C77.6484 78.4844 77.375 77.6406 76.8281 77.0156C76.2969 76.375 75.5781 76.0547 74.6719 76.0547C73.7656 76.0547 73.0391 76.375 72.4922 77.0156C71.9609 77.6406 71.6953 78.4844 71.6953 79.5469C71.6953 80.6094 71.9609 81.4609 72.4922 82.1016C73.0391 82.7266 73.7656 83.0391 74.6719 83.0391ZM87.0234 80.8594C87.0391 81.8125 86.7344 82.5938 86.1094 83.2031C85.4844 83.8125 84.6875 84.1172 83.7188 84.1172C82.6875 84.1172 81.8672 83.7578 81.2578 83.0391C80.6484 82.3047 80.3438 81.3359 80.3438 80.1328C80.3438 78.7422 80.5859 77.6797 81.0703 76.9453C81.5703 76.2109 82.3672 75.7344 83.4609 75.5156L85.125 75.1641C85.375 75.1172 85.5234 74.9531 85.5703 74.6719L85.5938 74.5078L86.7188 74.7188L86.6953 74.9297C86.6484 75.6172 86.2422 76.0547 85.4766 76.2422L83.4609 76.6406C82.2734 76.875 81.6094 77.5781 81.4688 78.75C81.7188 78.3906 82.0625 78.1172 82.5 77.9297C82.9531 77.7266 83.4609 77.625 84.0234 77.625C84.8828 77.625 85.5938 77.9297 86.1562 78.5391C86.7188 79.1484 87.0078 79.9219 87.0234 80.8594ZM83.7188 83.0859C84.3594 83.0859 84.8672 82.8906 85.2422 82.5C85.6328 82.0938 85.8281 81.5547 85.8281 80.8828C85.8281 80.1953 85.6328 79.6484 85.2422 79.2422C84.8672 78.8359 84.3594 78.6328 83.7188 78.6328C83.0625 78.6328 82.5391 78.8281 82.1484 79.2188C81.7578 79.6094 81.5625 80.1406 81.5625 80.8125C81.5625 81.4844 81.7578 82.0312 82.1484 82.4531C82.5547 82.875 83.0781 83.0859 83.7188 83.0859ZM91.7812 84.1172C90.7188 84.1172 89.8672 83.7891 89.2266 83.1328C88.5859 82.4766 88.2656 81.5938 88.2656 80.4844C88.2656 79.4062 88.5938 78.5312 89.25 77.8594C89.9062 77.1875 90.75 76.8516 91.7812 76.8516C92.8438 76.8516 93.6953 77.1797 94.3359 77.8359C94.9766 78.4922 95.2969 79.375 95.2969 80.4844C95.2969 81.5625 94.9688 82.4375 94.3125 83.1094C93.6562 83.7812 92.8125 84.1172 91.7812 84.1172ZM91.7812 83.0859C92.4844 83.0859 93.0469 82.8516 93.4688 82.3828C93.8906 81.8984 94.1016 81.2656 94.1016 80.4844C94.1016 79.7031 93.8906 79.0781 93.4688 78.6094C93.0469 78.125 92.4844 77.8828 91.7812 77.8828C91.0781 77.8828 90.5156 78.125 90.0938 78.6094C89.6719 79.0781 89.4609 79.7031 89.4609 80.4844C89.4609 81.2656 89.6719 81.8984 90.0938 82.3828C90.5156 82.8516 91.0781 83.0859 91.7812 83.0859ZM100.664 76.8516C101.602 76.8516 102.352 77.1875 102.914 77.8594C103.492 78.5156 103.781 79.3906 103.781 80.4844C103.781 81.5625 103.484 82.4375 102.891 83.1094C102.312 83.7812 101.57 84.1172 100.664 84.1172C100.164 84.1172 99.7031 84.0234 99.2812 83.8359C98.875 83.6328 98.5391 83.3516 98.2734 82.9922V86.3438H97.1016V76.9688H98.0859L98.1797 78.1406C98.4609 77.7344 98.8125 77.4219 99.2344 77.2031C99.6719 76.9688 100.148 76.8516 100.664 76.8516ZM100.383 83.0859C101.055 83.0859 101.586 82.8516 101.977 82.3828C102.383 81.8984 102.586 81.2656 102.586 80.4844C102.586 79.7031 102.383 79.0781 101.977 78.6094C101.586 78.125 101.055 77.8828 100.383 77.8828C99.7109 77.8828 99.1719 78.125 98.7656 78.6094C98.375 79.0781 98.1797 79.7031 98.1797 80.4844C98.1797 81.2656 98.375 81.8984 98.7656 82.3828C99.1719 82.8516 99.7109 83.0859 100.383 83.0859ZM108.562 84.1172C107.5 84.1172 106.648 83.7891 106.008 83.1328C105.367 82.4766 105.047 81.5938 105.047 80.4844C105.047 79.4062 105.375 78.5312 106.031 77.8594C106.688 77.1875 107.531 76.8516 108.562 76.8516C109.625 76.8516 110.477 77.1797 111.117 77.8359C111.758 78.4922 112.078 79.375 112.078 80.4844C112.078 81.5625 111.75 82.4375 111.094 83.1094C110.438 83.7812 109.594 84.1172 108.562 84.1172ZM108.562 83.0859C109.266 83.0859 109.828 82.8516 110.25 82.3828C110.672 81.8984 110.883 81.2656 110.883 80.4844C110.883 79.7031 110.672 79.0781 110.25 78.6094C109.828 78.125 109.266 77.8828 108.562 77.8828C107.859 77.8828 107.297 78.125 106.875 78.6094C106.453 79.0781 106.242 79.7031 106.242 80.4844C106.242 81.2656 106.453 81.8984 106.875 82.3828C107.297 82.8516 107.859 83.0859 108.562 83.0859ZM118.805 76.9688H119.977V84H118.805V80.9531H115.055V84H113.883V76.9688H115.055V79.875H118.805V76.9688ZM127.172 76.9688H128.414V84H127.266V78.5391L123.562 84H122.32V76.9688H123.469V82.4297L127.172 76.9688Z" fill="#062438"/>
</svg>
