<svg width="212" height="126" viewBox="0 0 212 126" fill="none" xmlns="http://www.w3.org/2000/svg">
<g clip-path="url(#clip0_140_1190)">
<path d="M52.8022 28.0271C52.8113 30.4958 52.8113 32.9645 52.8204 35.4331C52.8204 37.0337 52.8113 38.6252 52.8294 40.2258C52.8294 40.5785 52.7298 40.6508 52.3948 40.6508C49.5879 40.6418 46.7901 40.6508 43.9832 40.6327C43.5758 40.6327 43.4852 40.7503 43.4943 41.1391C43.5124 43.219 43.5124 45.2988 43.4943 47.3696C43.4943 47.668 43.5667 47.8308 43.8383 47.9664C44.445 48.2648 45.0245 48.6175 45.5587 49.0425C45.8303 49.2595 45.9752 49.1691 46.1834 48.9611C48.2388 46.8903 50.3123 44.8286 52.3767 42.7578C54.8123 40.3162 57.2661 37.8928 59.6836 35.4331C60.1726 34.9358 60.7249 34.7369 61.3768 34.7188C62.0559 34.6916 62.735 34.7188 63.405 34.7007C63.6133 34.7007 63.7038 34.7459 63.7038 34.972C63.7038 35.7677 63.7672 36.5635 63.6495 37.3593C63.577 37.8476 63.405 38.2635 63.0428 38.6252C58.5518 43.1014 54.0699 47.5866 49.5698 52.0628C49.271 52.3612 49.1714 52.5511 49.4883 52.9218C49.9773 53.5096 50.3757 54.1788 50.7197 54.857C50.8465 55.1012 50.9823 55.2006 51.272 55.2006C53.3998 55.1825 55.5186 55.1825 57.6464 55.2006C58.0086 55.2006 58.0991 55.0921 58.0901 54.7394C58.081 51.9362 58.09 49.142 58.0719 46.3387C58.0719 45.9408 58.1715 45.8414 58.5699 45.8414C62.4452 45.8595 66.3115 45.8595 70.1868 45.8414C70.558 45.8414 70.6667 45.9318 70.6667 46.3116C70.6576 57.4432 70.6576 68.5658 70.6667 79.6975C70.6667 80.0773 70.5671 80.1677 70.1959 80.1677C66.3387 80.1496 62.4815 80.1496 58.6243 80.1677C58.1987 80.1677 58.0719 80.0863 58.0719 79.6342C58.0991 76.8671 58.081 74.0909 58.0901 71.3239C58.0901 70.9622 58.0086 70.8356 57.6192 70.8446C55.5276 70.8627 53.427 70.8627 51.3354 70.8446C51.0547 70.8446 50.9099 70.935 50.7831 71.1792C50.4119 71.9026 49.9863 72.5989 49.4883 73.2409C49.3344 73.4399 49.3072 73.5665 49.5064 73.7564C50.3575 74.5883 51.1996 75.4293 52.0326 76.2793C52.2499 76.4963 52.3495 76.4421 52.5216 76.2431C53.2369 75.4474 53.9703 74.6697 54.6765 73.8649C54.8576 73.6659 54.9663 73.6207 55.1474 73.8468C55.4009 74.1633 55.917 74.3894 55.917 74.733C55.917 75.0404 55.5005 75.3569 55.256 75.6553C54.6131 76.4149 53.9612 77.1655 53.3184 77.916C54.1695 78.3501 54.1695 78.3501 53.9884 79.7336C54.1151 79.6703 54.2147 79.607 54.3234 79.5618C55.0568 79.2815 55.7178 79.7969 55.6182 80.5656C55.591 80.7916 55.5457 81.0087 55.5095 81.2619C55.6906 81.1805 55.8355 81.081 55.9985 81.0448C56.7138 80.8911 57.2027 81.3342 57.1574 82.0667C57.1393 82.3018 57.0216 82.5278 57.076 82.7991C57.5106 82.4736 57.9723 82.4826 58.3798 82.763C58.9683 83.1608 58.588 83.7486 58.5971 84.3093C59.0951 84.0109 59.5931 84.0018 60.0096 84.3726C60.4623 84.7795 60.1183 85.304 60.1273 85.8375C60.408 85.6838 60.6796 85.5843 60.9694 85.6385C61.0961 85.6657 61.1595 85.5933 61.2229 85.4939C61.2863 85.3944 61.3678 85.2949 61.4311 85.2045C61.7028 84.8157 62.0197 84.4992 62.5448 84.5715C63.0881 84.6438 63.3597 85.0508 63.5499 85.512C63.8396 86.2535 63.7672 86.995 63.4865 87.7184C62.7259 89.6987 61.3315 90.9014 59.2038 91.1998C58.6243 91.2812 58.0629 91.1456 57.5739 90.802C56.913 90.3317 56.8768 89.5993 57.5015 89.1019C57.7822 88.8759 57.9904 88.704 57.8546 88.2881C57.746 87.9806 57.9361 87.637 57.9452 87.2843C57.4381 87.5918 56.9311 87.6099 56.5146 87.2301C56.0619 86.8141 56.424 86.2625 56.415 85.738C55.9623 86.0726 55.4914 86.0636 55.084 85.7832C54.4954 85.3854 54.8848 84.7885 54.8757 84.2279C54.6856 84.3364 54.5045 84.4359 54.3053 84.4539C53.59 84.5263 53.1554 84.0651 53.255 83.3507C53.2821 83.1427 53.3274 82.9438 53.3636 82.7268C53.2006 82.6906 53.1282 82.8172 53.0196 82.8534C52.2047 83.1156 51.5799 82.5731 51.7429 81.7411C51.7791 81.5512 51.8063 81.3613 51.8425 81.1172C51.2902 81.4608 50.8012 81.4337 50.3485 81.0539C50.1493 80.8821 50.0859 81.1081 49.9954 81.1805C49.1624 81.8768 48.3384 82.5731 47.5235 83.2874C47.2881 83.4954 47.1432 83.4954 46.944 83.2603C46.6995 82.9709 46.2468 82.7358 46.2106 82.4374C46.1744 82.1209 46.6905 81.922 46.9621 81.6688C47.5597 81.0991 48.1664 80.5384 48.7911 79.9868C48.9541 79.8421 48.9722 79.7517 48.8092 79.598C47.931 78.7299 47.0617 77.8527 46.1834 76.9756C46.0567 76.849 45.9571 76.8309 45.8032 76.9485C45.1422 77.4458 44.445 77.8889 43.7116 78.2777C43.5395 78.3682 43.4943 78.4948 43.4943 78.6756C43.5033 80.8097 43.5033 82.9529 43.4943 85.0869C43.4943 85.4487 43.6935 85.4125 43.9289 85.4125C46.7177 85.4125 49.5064 85.4215 52.2952 85.4034C52.7389 85.4034 52.8294 85.521 52.8294 85.955C52.8113 89.8073 52.8113 93.6685 52.8294 97.5207C52.8294 97.8915 52.7389 98 52.3586 98C41.2216 97.991 30.0846 97.991 18.9567 98C18.5764 98 18.4768 97.9005 18.4859 97.5207C18.504 93.6323 18.4949 89.753 18.4859 85.8646C18.4859 85.512 18.5764 85.4125 18.9386 85.4125C21.7545 85.4306 24.5705 85.4125 27.3954 85.4306C27.7395 85.4306 27.8572 85.3582 27.8572 84.9875C27.8391 82.9529 27.8391 80.9182 27.8572 78.8927C27.8572 78.6304 27.7757 78.4948 27.5403 78.3772C26.7164 77.9703 25.9377 77.4729 25.2133 76.9123C25.0141 76.7586 24.8964 76.7314 24.6972 76.9394C23.837 77.8256 22.9588 78.6937 22.0805 79.5618C21.8994 79.7427 21.8903 79.8421 22.0895 80.023C22.8863 80.7283 23.6741 81.4608 24.4709 82.1661C24.6701 82.3379 24.7606 82.4374 24.5161 82.6816C23.6469 83.5587 23.6469 83.5678 22.6962 82.772C21.9447 82.148 21.2112 81.497 20.4235 80.8278C20.1881 81.9853 19.3551 81.5693 18.6217 81.506C18.9657 81.9581 18.9748 82.4284 18.6851 82.8353C18.2686 83.4412 17.671 83.0342 17.1367 83.0433C17.0734 83.1518 17.182 83.197 17.2182 83.2603C17.4084 83.6491 17.3359 84.0289 17.1277 84.3816C16.9375 84.7071 16.6025 84.6981 16.2856 84.671C16.0593 84.6529 15.842 84.6077 15.5703 84.5625C15.6428 84.7162 15.7152 84.8428 15.7514 84.9694C15.9778 85.6928 15.516 86.2715 14.7554 86.2173C14.52 86.1992 14.2936 86.0816 14.022 86.1359C14.357 86.5609 14.348 87.0311 14.0763 87.4381C13.6689 88.053 13.0622 87.637 12.4918 87.6551C12.6457 87.9173 12.7634 88.1796 12.7001 88.487C12.6548 88.7312 12.8993 88.7583 13.026 88.8668C13.3701 89.1381 13.7504 89.3551 13.7685 89.8796C13.7866 90.3408 13.5783 90.6573 13.2071 90.8834C12.4737 91.3355 11.695 91.3084 10.8982 91.1004C8.77043 90.5307 7.10441 88.4237 7.14968 86.3439C7.15873 85.8737 7.29455 85.4577 7.56618 85.0779C8.01891 84.454 8.77043 84.4268 9.24126 85.0327C9.47667 85.3311 9.64871 85.5391 10.1014 85.4125C10.3912 85.3311 10.7443 85.4667 11.0884 85.5029C10.8077 84.9151 10.8258 84.3906 11.1427 84.0742C11.5954 83.6311 12.1206 83.9928 12.6095 83.9566C12.5371 83.7848 12.4465 83.6311 12.4103 83.4683C12.2654 82.7268 12.7453 82.2385 13.4969 82.3379C13.7051 82.3651 13.9043 82.4103 14.1578 82.4555C14.0763 82.2656 13.9858 82.1119 13.9496 81.9581C13.7866 81.2347 14.2755 80.7193 15.018 80.8097C15.2353 80.8368 15.4526 80.9454 15.688 80.8821C15.4073 80.3485 15.4345 79.7788 15.7514 79.4623C16.186 79.0373 16.7021 79.39 17.2001 79.3448C16.9013 78.8384 16.9285 78.3591 17.2907 77.916C17.4536 77.7261 17.2635 77.6447 17.182 77.5453C16.4577 76.7405 15.7605 75.9085 15.0723 75.0766C14.8822 74.8415 14.8641 74.7059 15.0995 74.4888C15.3892 74.2266 15.6246 73.9101 15.8963 73.6207C16.7474 74.5521 17.5442 75.4202 18.3319 76.2883C18.504 76.4873 18.6126 76.5235 18.8209 76.3064C19.6901 75.4112 20.5774 74.534 21.4738 73.6569C21.6459 73.4851 21.664 73.3766 21.5191 73.1776C21.0302 72.5265 20.6046 71.8393 20.2424 71.1068C20.1428 70.9169 20.0161 70.8627 19.8169 70.8627C17.7524 70.8717 15.688 70.8717 13.6236 70.8536C13.2524 70.8536 13.2524 71.0255 13.2524 71.2967C13.2614 74.1 13.2524 76.8942 13.2614 79.6975C13.2614 80.0592 13.189 80.1767 12.7997 80.1767C8.9153 80.1586 5.02188 80.1586 1.13752 80.1767C0.757232 80.1767 0.666687 80.0682 0.666687 79.6975C0.675741 68.5839 0.675741 57.4704 0.666687 46.3568C0.666687 45.977 0.730068 45.8414 1.14657 45.8414C5.02188 45.8595 8.88813 45.8595 12.7634 45.8414C13.1709 45.8414 13.2614 45.9589 13.2524 46.3478C13.2343 49.151 13.2524 51.9452 13.2343 54.7485C13.2343 55.1102 13.3339 55.2006 13.687 55.2006C15.7061 55.1825 17.7253 55.1825 19.7444 55.2006C20.0342 55.2006 20.2062 55.1373 20.342 54.857C20.6861 54.1697 21.0935 53.5187 21.5734 52.9128C21.7636 52.6777 21.7364 52.5421 21.5191 52.325C19.7625 50.5888 18.015 48.8345 16.2675 47.0893C13.4969 44.3222 10.7352 41.5461 7.94647 38.7971C7.44848 38.3087 7.17684 37.7662 7.14968 37.088C7.12251 36.3826 7.14062 35.6773 7.13157 34.9629C7.13157 34.7911 7.14968 34.6736 7.37604 34.6826C8.23621 34.7097 9.08733 34.6103 9.9475 34.7549C10.3912 34.8273 10.7624 35.0172 11.0884 35.3427C15.6337 39.8912 20.1881 44.4397 24.7244 48.9882C24.987 49.2505 25.1409 49.2957 25.4487 49.0515C26.0825 48.5452 26.7888 48.1382 27.5132 47.7675C27.7214 47.668 27.8301 47.5504 27.8301 47.2882C27.821 45.1812 27.8119 43.0743 27.8301 40.9673C27.8301 40.6056 27.658 40.5966 27.3864 40.5966C24.5795 40.6056 21.7817 40.5875 18.9748 40.6146C18.5492 40.6146 18.4587 40.4971 18.4587 40.0902C18.4768 36.1475 18.4677 32.1958 18.4677 28.2532C18.4677 28.1628 18.513 28.0723 18.4315 28C29.8945 28.0271 41.3484 28.0271 52.8022 28.0271ZM35.5082 79.0916C44.3635 79.0916 51.5437 71.9388 51.5527 63.104C51.5618 54.3506 44.3544 47.1074 35.6531 47.0893C26.6077 47.0712 19.6629 54.3868 19.5362 62.8146C19.4004 71.8664 26.7526 79.0916 35.5082 79.0916ZM42.2357 47.1707C42.2357 46.9446 42.2357 46.7818 42.2357 46.619C42.2357 44.3493 42.2448 42.0705 42.2266 39.8008C42.2266 39.4391 42.3353 39.3577 42.6794 39.3577C45.4953 39.3667 48.3112 39.3577 51.1362 39.3758C51.4984 39.3758 51.589 39.2673 51.5799 38.9237C51.5708 35.8672 51.5618 32.8107 51.5799 29.7543C51.5799 29.3835 51.4622 29.3112 51.1181 29.3112C40.8141 29.3202 30.5011 29.3202 20.1971 29.3112C19.844 29.3112 19.7444 29.4107 19.7444 29.7633C19.7535 32.8017 19.7625 35.8491 19.7444 38.8875C19.7444 39.2944 19.8531 39.3848 20.2515 39.3848C23.0131 39.3667 25.7656 39.3939 28.5273 39.3667C29.0071 39.3577 29.0886 39.5114 29.0886 39.9455C29.0705 42.161 29.0796 44.3764 29.0796 46.5829C29.0796 47.0893 29.0796 47.0893 29.5685 46.9084C32.2667 45.9228 35.0284 45.6153 37.8714 46.0041C39.3473 46.194 40.7779 46.5919 42.2357 47.1707ZM51.5799 69.6057C51.7881 69.6057 51.9511 69.6057 52.1141 69.6057C54.3596 69.6057 56.6051 69.6148 58.8506 69.5967C59.2671 69.5967 59.3396 69.7142 59.3396 70.1031C59.3215 72.9063 59.3396 75.7006 59.3215 78.5038C59.3215 78.8655 59.4301 78.9559 59.7742 78.9469C62.8165 78.9379 65.8588 78.9288 68.9011 78.9469C69.3085 78.9469 69.39 78.8294 69.39 78.4405C69.381 68.1679 69.381 57.9044 69.39 47.6318C69.39 47.243 69.3085 47.1254 68.9011 47.1254C65.8769 47.1435 62.8436 47.1435 59.8195 47.1254C59.4301 47.1254 59.3124 47.2068 59.3124 47.6137C59.3305 50.417 59.3215 53.2112 59.3305 56.0145C59.3305 56.3491 59.249 56.4485 58.905 56.4485C56.5961 56.4304 54.2962 56.4395 51.9873 56.4395C51.4893 56.4395 51.4894 56.4395 51.6614 56.9097C53.0014 60.4906 53.1554 64.1258 52.1413 67.8062C51.9964 68.403 51.7791 68.9818 51.5799 69.6057ZM19.509 69.6057C19.4637 69.443 19.4366 69.3616 19.4094 69.2802C17.8702 65.1386 17.8702 60.988 19.4456 56.8554C19.5905 56.4756 19.4637 56.4485 19.1378 56.4485C16.9104 56.4576 14.683 56.4485 12.4465 56.4666C12.0662 56.4666 11.9757 56.3581 11.9757 55.9873C11.9938 53.2022 11.9757 50.417 11.9938 47.6318C11.9938 47.2792 11.9395 47.1345 11.5411 47.1345C8.48068 47.1526 5.42933 47.1526 2.36892 47.1345C2.00675 47.1345 1.92526 47.243 1.92526 47.5957C1.93431 57.8954 1.93431 68.186 1.92526 78.4857C1.92526 78.8746 2.05202 78.9559 2.4142 78.9469C5.42933 78.9379 8.43541 78.9288 11.4505 78.956C11.9304 78.956 12.0119 78.8113 12.0119 78.3772C11.9938 75.6101 12.0119 72.834 11.9938 70.0669C11.9938 69.6871 12.1025 69.5877 12.4737 69.5967C13.3791 69.6238 14.2846 69.6057 15.181 69.6057C16.5844 69.6057 18.015 69.6057 19.509 69.6057ZM35.6441 96.734C40.796 96.734 45.948 96.734 51.1 96.7431C51.4531 96.7431 51.598 96.6888 51.589 96.2819C51.5708 93.2254 51.5708 90.169 51.589 87.1125C51.589 86.7418 51.4803 86.6694 51.1272 86.6694C48.3112 86.6785 45.4953 86.6694 42.6794 86.6875C42.3172 86.6875 42.2266 86.588 42.2357 86.2354C42.2538 83.9747 42.2357 81.723 42.2538 79.4623C42.2538 79.1187 42.2176 79.0192 41.8464 79.1639C37.7447 80.7374 33.6249 80.7645 29.4961 79.2634C29.143 79.1368 29.0705 79.2001 29.0705 79.5618C29.0886 81.7863 29.0705 84.0199 29.0886 86.2444C29.0886 86.6061 28.989 86.6875 28.6359 86.6875C25.8381 86.6694 23.0312 86.6875 20.2334 86.6694C19.8531 86.6694 19.7625 86.7779 19.7625 87.1487C19.7806 90.178 19.7806 93.1983 19.7625 96.2276C19.7625 96.6436 19.8802 96.7431 20.2877 96.7431C25.3944 96.734 30.5192 96.734 35.6441 96.734Z" fill="#062438"/>
<path d="M43.2679 52.5149C43.2679 52.7229 43.2679 52.8676 43.2679 53.0213C43.2679 58.8177 43.2589 64.6141 43.277 70.4105C43.277 70.8808 43.1502 70.9712 42.7065 70.9531C41.5928 70.9169 40.4791 70.9441 39.3654 70.926C39.1119 70.926 39.0033 70.9893 38.9399 71.2515C38.8131 71.8031 38.623 72.3457 38.4057 72.8792C38.0344 73.7564 37.4912 74.4979 36.6672 75.0224C36.2869 75.2665 35.9519 75.574 35.6622 75.9628C35.3181 75.4926 34.8654 75.167 34.4126 74.8505C33.2627 74.0457 32.81 72.8159 32.475 71.5409C32.3482 71.0435 32.1581 70.926 31.6601 70.9441C30.5917 70.9893 29.5232 70.9441 28.4548 70.9712C28.1198 70.9802 28.0564 70.8717 28.0655 70.5733C28.0745 68.8552 28.0745 67.1371 28.0745 65.428C28.0745 61.3135 28.0745 57.2081 28.0745 53.0937C28.0745 52.9309 28.0745 52.7681 28.0745 52.533C29.0977 53.1208 29.9397 53.8261 30.646 54.6852C31.5424 55.7884 32.0585 57.0453 32.2124 58.4651C32.3935 60.1832 32.5655 61.9013 32.7647 63.6285C32.7919 63.8907 32.7647 63.9902 32.4659 64.0083C31.7416 64.0535 31.2436 64.6865 31.2889 65.4009C31.3251 65.9977 32.0766 66.6216 32.7195 66.6216C32.973 66.6216 33.0092 66.4317 33.0907 66.287C34.4941 63.8365 35.137 61.2231 34.9469 58.3837C34.8201 56.5299 34.6843 54.6581 34.7567 52.7952C34.7748 52.2346 34.9016 51.692 35.1732 51.1947C35.3 50.9596 35.4449 50.6069 35.6803 50.6069C35.9429 50.6069 36.0877 50.9596 36.2235 51.2128C36.5042 51.7372 36.6129 52.316 36.631 52.9038C36.6672 54.4591 36.5133 55.9964 36.4771 57.5427C36.4408 59.0619 36.3141 60.5811 36.631 62.0822C36.966 63.6285 37.627 65.0391 38.3604 66.4227C38.46 66.6126 38.5958 66.6307 38.7678 66.6035C39.5013 66.5041 40.0988 65.9163 40.0988 65.2923C40.0988 64.5961 39.619 64.0987 38.8131 63.9992C38.6411 63.9811 38.5777 63.9359 38.5958 63.7551C38.8131 61.7205 38.9308 59.6768 39.293 57.6603C39.6371 55.5895 41.2035 53.6362 43.2679 52.5149ZM41.9369 55.3543C41.4027 55.8155 40.9228 56.6113 40.6964 57.4432C40.2075 59.1794 40.2166 60.9789 39.9721 62.7513C39.9449 62.9412 40.0626 63.0045 40.1894 63.104C40.624 63.4205 40.9862 63.8184 41.1673 64.3157C41.294 64.6593 41.5204 64.6322 41.7739 64.6051C42.0637 64.5689 41.9369 64.3248 41.9369 64.171C41.946 61.3407 41.946 58.5103 41.946 55.6889C41.9369 55.5804 41.9369 55.4809 41.9369 55.3543ZM29.4417 55.3543C29.324 55.4176 29.3874 55.5352 29.3874 55.6256C29.3874 58.5012 29.3965 61.3678 29.4055 64.2434C29.4055 64.37 29.324 64.587 29.5595 64.5961C29.7587 64.5961 30.0031 64.7226 30.1208 64.3971C30.32 63.8636 30.6822 63.4386 31.144 63.104C31.3341 62.9684 31.3703 62.8418 31.3522 62.6247C31.2255 61.5396 31.1259 60.4454 31.0082 59.3512C30.8542 57.8773 30.5192 56.4757 29.4417 55.3543ZM41.9369 67.7972C41.946 67.7972 41.946 67.7972 41.955 67.7972C41.955 67.2727 41.955 66.7482 41.955 66.2147C41.955 66.0971 42.0274 65.8982 41.8101 65.9072C41.62 65.9072 41.3755 65.7807 41.2669 66.07C40.8956 67.0195 40.1532 67.5349 39.1934 67.7701C38.958 67.8243 38.9399 67.9328 38.9851 68.1137C39.0847 68.5206 39.13 68.9456 39.1119 69.3616C39.1029 69.6057 39.2025 69.669 39.4288 69.66C40.1622 69.651 40.9047 69.66 41.6381 69.6781C41.8735 69.6871 41.955 69.6057 41.946 69.3706C41.9278 68.8461 41.9369 68.3217 41.9369 67.7972ZM29.3874 67.7791C29.3874 68.3217 29.3965 68.8642 29.3874 69.3978C29.3784 69.6148 29.4508 69.6781 29.6681 69.6781C30.4196 69.66 31.1712 69.66 31.9227 69.66C32.149 69.66 32.2486 69.5967 32.2396 69.3525C32.2215 68.9185 32.2577 68.4844 32.3663 68.0594C32.4026 67.9147 32.3935 67.8153 32.2034 67.7701C31.2074 67.544 30.4559 67.0195 30.0665 66.0338C29.9669 65.7806 29.7315 65.9072 29.5504 65.8982C29.324 65.8892 29.3965 66.0791 29.3965 66.1966C29.3784 66.7301 29.3874 67.2546 29.3874 67.7791ZM35.6712 67.7972C35.9881 67.3993 36.3231 67.0738 36.794 66.9472C36.9388 66.911 37.0294 66.8567 36.9207 66.6668C36.3594 65.6631 35.9791 64.587 35.6622 63.4024C35.3543 64.5961 34.974 65.6721 34.4126 66.6668C34.304 66.8567 34.3945 66.911 34.5394 66.9472C35.0193 67.0738 35.3453 67.3903 35.6712 67.7972ZM36.305 73.5303C37.0565 72.834 37.464 72.0563 37.6994 71.1701C37.7085 71.1249 37.7266 71.0526 37.7085 71.0435C37.3735 70.8084 37.0022 70.9893 36.64 70.9441C36.5133 70.926 36.305 70.8808 36.305 71.1249C36.296 71.8845 36.305 72.6622 36.305 73.5303ZM35.0012 73.5032C35.0012 72.9244 35.0012 72.4361 35.0012 71.9478C35.0012 70.8989 35.0012 70.8989 33.9418 70.926C33.8965 70.926 33.8513 70.926 33.806 70.926C33.634 70.9169 33.5977 71.0074 33.634 71.1521C33.8513 72.0382 34.2678 72.8069 35.0012 73.5032ZM34.3583 69.6057C34.5485 69.5334 34.9469 69.7595 35.0284 69.5063C35.1279 69.2169 34.9106 68.8733 34.6933 68.611C34.6118 68.5206 34.5213 68.4483 34.4217 68.3759C33.8332 67.969 33.6973 68.0233 33.5706 68.7105C33.3985 69.6057 33.3985 69.6057 34.3583 69.6057ZM37.0022 69.6057C37.1109 69.6057 37.2105 69.5967 37.3191 69.6057C37.6994 69.651 37.9348 69.5696 37.799 69.1084C37.79 69.0632 37.799 69.018 37.79 68.9727C37.7356 68.6743 37.799 68.2222 37.5002 68.1499C37.1924 68.0685 36.8664 68.3578 36.6219 68.6201C36.5676 68.6743 36.5223 68.7376 36.4861 68.8009C36.3594 69.027 36.1964 69.2983 36.2869 69.5153C36.3775 69.7233 36.6944 69.5605 36.9026 69.5967C36.9479 69.6057 36.9751 69.6057 37.0022 69.6057Z" fill="#062438"/>
<path d="M97.6823 43.0938V52H96.5104V44.3828L93.5807 52H92.1745L89.2448 44.3828V52H88.0729V43.0938H90.0182L92.9011 50.6406L95.7604 43.0938H97.6823ZM100.378 44.9688H101.549V52H100.378V44.9688ZM100.307 42.625H101.62V43.9375H100.307V42.625ZM108.932 44.9688H110.104V52H108.932V48.9531H105.182V52H104.01V44.9688H105.182V47.875H108.932V44.9688ZM112.565 44.9688H113.737V52H112.565V44.9688ZM112.495 42.625H113.807V43.9375H112.495V42.625ZM119.128 52.1172C118.112 52.1172 117.276 51.7812 116.62 51.1094C115.979 50.4375 115.659 49.5625 115.659 48.4844C115.659 47.4062 115.979 46.5312 116.62 45.8594C117.276 45.1875 118.112 44.8516 119.128 44.8516C119.878 44.8516 120.526 45.0391 121.073 45.4141C121.635 45.7891 122.01 46.3047 122.198 46.9609L121.096 47.3125C120.924 46.8594 120.667 46.5078 120.323 46.2578C119.995 46.0078 119.596 45.8828 119.128 45.8828C118.424 45.8828 117.87 46.1172 117.464 46.5859C117.057 47.0547 116.854 47.6875 116.854 48.4844C116.854 49.2812 117.057 49.9141 117.464 50.3828C117.87 50.8516 118.424 51.0859 119.128 51.0859C119.596 51.0859 120.003 50.9609 120.346 50.7109C120.69 50.4609 120.948 50.1094 121.12 49.6562L122.198 50.0078C121.995 50.6641 121.612 51.1797 121.049 51.5547C120.503 51.9297 119.862 52.1172 119.128 52.1172ZM129.089 44.9688V46H126.51V52H125.339V46H122.76V44.9688H129.089ZM130.799 48.8594C130.878 49.5469 131.12 50.0938 131.526 50.5C131.948 50.8906 132.487 51.0859 133.143 51.0859C134.143 51.0859 134.87 50.7656 135.323 50.125L136.167 50.8516C135.885 51.2266 135.495 51.5312 134.995 51.7656C134.495 52 133.885 52.1172 133.167 52.1172C132.057 52.1172 131.182 51.7812 130.542 51.1094C129.917 50.4375 129.604 49.5625 129.604 48.4844C129.604 47.4062 129.924 46.5312 130.565 45.8594C131.206 45.1875 132.034 44.8516 133.049 44.8516C134.065 44.8516 134.87 45.1875 135.464 45.8594C136.073 46.5156 136.378 47.3906 136.378 48.4844C136.378 48.6562 136.37 48.7812 136.354 48.8594H130.799ZM133.049 45.8594C132.44 45.8594 131.94 46.0469 131.549 46.4219C131.159 46.7812 130.917 47.2812 130.823 47.9219H135.159C135.081 47.2812 134.854 46.7812 134.479 46.4219C134.104 46.0469 133.628 45.8594 133.049 45.8594ZM141.698 44.8516C142.635 44.8516 143.385 45.1875 143.948 45.8594C144.526 46.5156 144.815 47.3906 144.815 48.4844C144.815 49.5625 144.518 50.4375 143.924 51.1094C143.346 51.7812 142.604 52.1172 141.698 52.1172C141.198 52.1172 140.737 52.0234 140.315 51.8359C139.909 51.6328 139.573 51.3516 139.307 50.9922V54.3438H138.135V44.9688H139.12L139.214 46.1406C139.495 45.7344 139.846 45.4219 140.268 45.2031C140.706 44.9688 141.182 44.8516 141.698 44.8516ZM141.417 51.0859C142.089 51.0859 142.62 50.8516 143.01 50.3828C143.417 49.8984 143.62 49.2656 143.62 48.4844C143.62 47.7031 143.417 47.0781 143.01 46.6094C142.62 46.125 142.089 45.8828 141.417 45.8828C140.745 45.8828 140.206 46.125 139.799 46.6094C139.409 47.0781 139.214 47.7031 139.214 48.4844C139.214 49.2656 139.409 49.8984 139.799 50.3828C140.206 50.8516 140.745 51.0859 141.417 51.0859ZM149.549 52.1172C148.534 52.1172 147.698 51.7812 147.042 51.1094C146.401 50.4375 146.081 49.5625 146.081 48.4844C146.081 47.4062 146.401 46.5312 147.042 45.8594C147.698 45.1875 148.534 44.8516 149.549 44.8516C150.299 44.8516 150.948 45.0391 151.495 45.4141C152.057 45.7891 152.432 46.3047 152.62 46.9609L151.518 47.3125C151.346 46.8594 151.089 46.5078 150.745 46.2578C150.417 46.0078 150.018 45.8828 149.549 45.8828C148.846 45.8828 148.292 46.1172 147.885 46.5859C147.479 47.0547 147.276 47.6875 147.276 48.4844C147.276 49.2812 147.479 49.9141 147.885 50.3828C148.292 50.8516 148.846 51.0859 149.549 51.0859C150.018 51.0859 150.424 50.9609 150.768 50.7109C151.112 50.4609 151.37 50.1094 151.542 49.6562L152.62 50.0078C152.417 50.6641 152.034 51.1797 151.471 51.5547C150.924 51.9297 150.284 52.1172 149.549 52.1172ZM159.51 44.9688V46H156.932V52H155.76V46H153.182V44.9688H159.51ZM165.44 48.3906C166.221 48.6875 166.612 49.2578 166.612 50.1016C166.612 50.7109 166.401 51.1797 165.979 51.5078C165.573 51.8359 164.995 52 164.245 52H160.917V44.9688H163.987C164.753 44.9688 165.346 45.125 165.768 45.4375C166.206 45.7344 166.424 46.1875 166.424 46.7969C166.424 47.5625 166.096 48.0938 165.44 48.3906ZM162.065 47.9219H163.987C164.44 47.9219 164.76 47.8438 164.948 47.6875C165.135 47.5312 165.229 47.2734 165.229 46.9141C165.229 46.6016 165.128 46.3672 164.924 46.2109C164.721 46.0391 164.44 45.9531 164.081 45.9531H162.065V47.9219ZM164.151 51.0156C164.542 51.0156 164.846 50.9219 165.065 50.7344C165.299 50.5469 165.417 50.2891 165.417 49.9609C165.417 49.6172 165.292 49.3516 165.042 49.1641C164.807 48.9609 164.471 48.8594 164.034 48.8594H162.065V51.0156H164.151ZM171.417 52.1172C170.354 52.1172 169.503 51.7891 168.862 51.1328C168.221 50.4766 167.901 49.5938 167.901 48.4844C167.901 47.4062 168.229 46.5312 168.885 45.8594C169.542 45.1875 170.385 44.8516 171.417 44.8516C172.479 44.8516 173.331 45.1797 173.971 45.8359C174.612 46.4922 174.932 47.375 174.932 48.4844C174.932 49.5625 174.604 50.4375 173.948 51.1094C173.292 51.7812 172.448 52.1172 171.417 52.1172ZM171.417 51.0859C172.12 51.0859 172.682 50.8516 173.104 50.3828C173.526 49.8984 173.737 49.2656 173.737 48.4844C173.737 47.7031 173.526 47.0781 173.104 46.6094C172.682 46.125 172.12 45.8828 171.417 45.8828C170.714 45.8828 170.151 46.125 169.729 46.6094C169.307 47.0781 169.096 47.7031 169.096 48.4844C169.096 49.2656 169.307 49.8984 169.729 50.3828C170.151 50.8516 170.714 51.0859 171.417 51.0859ZM186.698 44.9688L184.003 52.375C183.784 53 183.487 53.5 183.112 53.875C182.737 54.2656 182.292 54.4609 181.776 54.4609C181.167 54.4609 180.698 54.2734 180.37 53.8984C180.057 53.5234 179.909 53.0547 179.924 52.4922L180.979 52.3047C180.948 53.0234 181.214 53.3828 181.776 53.3828C181.995 53.3828 182.182 53.3125 182.339 53.1719C182.51 53.0312 182.667 52.8125 182.807 52.5156L179.503 44.9688H180.792L183.37 51.1328L185.479 44.9688H186.698ZM90.7682 68.1172C89.7526 68.1172 88.9167 67.7812 88.2604 67.1094C87.6198 66.4375 87.2995 65.5625 87.2995 64.4844C87.2995 63.4062 87.6198 62.5312 88.2604 61.8594C88.9167 61.1875 89.7526 60.8516 90.7682 60.8516C91.5182 60.8516 92.1667 61.0391 92.7136 61.4141C93.2761 61.7891 93.6511 62.3047 93.8386 62.9609L92.737 63.3125C92.5651 62.8594 92.3073 62.5078 91.9636 62.2578C91.6354 62.0078 91.237 61.8828 90.7682 61.8828C90.0651 61.8828 89.5104 62.1172 89.1042 62.5859C88.6979 63.0547 88.4948 63.6875 88.4948 64.4844C88.4948 65.2812 88.6979 65.9141 89.1042 66.3828C89.5104 66.8516 90.0651 67.0859 90.7682 67.0859C91.237 67.0859 91.6432 66.9609 91.987 66.7109C92.3307 66.4609 92.5886 66.1094 92.7604 65.6562L93.8386 66.0078C93.6354 66.6641 93.2526 67.1797 92.6901 67.5547C92.1432 67.9297 91.5026 68.1172 90.7682 68.1172ZM101.573 60.9688V68H100.401V62H96.6511V68H95.4792V60.9688H101.573ZM107.479 60.8516C108.417 60.8516 109.167 61.1875 109.729 61.8594C110.307 62.5156 110.596 63.3906 110.596 64.4844C110.596 65.5625 110.299 66.4375 109.706 67.1094C109.128 67.7812 108.385 68.1172 107.479 68.1172C106.979 68.1172 106.518 68.0234 106.096 67.8359C105.69 67.6328 105.354 67.3516 105.089 66.9922V70.3438H103.917V60.9688H104.901L104.995 62.1406C105.276 61.7344 105.628 61.4219 106.049 61.2031C106.487 60.9688 106.964 60.8516 107.479 60.8516ZM107.198 67.0859C107.87 67.0859 108.401 66.8516 108.792 66.3828C109.198 65.8984 109.401 65.2656 109.401 64.4844C109.401 63.7031 109.198 63.0781 108.792 62.6094C108.401 62.125 107.87 61.8828 107.198 61.8828C106.526 61.8828 105.987 62.125 105.581 62.6094C105.19 63.0781 104.995 63.7031 104.995 64.4844C104.995 65.2656 105.19 65.8984 105.581 66.3828C105.987 66.8516 106.526 67.0859 107.198 67.0859ZM118.026 66.9688V68C117.964 68.0312 117.831 68.0469 117.628 68.0469C117.19 68.0469 116.87 67.9609 116.667 67.7891C116.479 67.6172 116.37 67.3203 116.339 66.8984C116.073 67.2734 115.714 67.5703 115.26 67.7891C114.823 68.0078 114.346 68.1172 113.831 68.1172C113.143 68.1172 112.589 67.9297 112.167 67.5547C111.745 67.1641 111.534 66.6562 111.534 66.0312C111.534 65.2812 111.807 64.75 112.354 64.4375C112.917 64.1094 113.651 63.875 114.557 63.7344C115.229 63.625 115.667 63.5234 115.87 63.4297C116.089 63.3359 116.198 63.1562 116.198 62.8906C116.198 62.5781 116.049 62.3281 115.753 62.1406C115.471 61.9531 115.096 61.8594 114.628 61.8594C114.221 61.8594 113.823 61.9453 113.432 62.1172C113.057 62.2734 112.721 62.5078 112.424 62.8203L111.698 62.0703C112.51 61.2578 113.503 60.8516 114.674 60.8516C115.487 60.8516 116.128 61.0547 116.596 61.4609C117.065 61.8672 117.299 62.4297 117.299 63.1484V66.5C117.299 66.8125 117.456 66.9688 117.768 66.9688H118.026ZM113.971 67.1328C114.565 67.1328 115.081 66.9609 115.518 66.6172C115.956 66.2578 116.174 65.8359 116.174 65.3516V64.2734C116.049 64.3672 115.885 64.4375 115.682 64.4844C115.479 64.5312 115.159 64.5859 114.721 64.6484C114.049 64.7578 113.542 64.8984 113.198 65.0703C112.87 65.2422 112.706 65.5547 112.706 66.0078C112.706 66.3672 112.815 66.6484 113.034 66.8516C113.253 67.0391 113.565 67.1328 113.971 67.1328ZM124.19 64.3906C124.971 64.6875 125.362 65.2578 125.362 66.1016C125.362 66.7109 125.151 67.1797 124.729 67.5078C124.323 67.8359 123.745 68 122.995 68H119.667V60.9688H122.737C123.503 60.9688 124.096 61.125 124.518 61.4375C124.956 61.7344 125.174 62.1875 125.174 62.7969C125.174 63.5625 124.846 64.0938 124.19 64.3906ZM120.815 63.9219H122.737C123.19 63.9219 123.51 63.8438 123.698 63.6875C123.885 63.5312 123.979 63.2734 123.979 62.9141C123.979 62.6016 123.878 62.3672 123.674 62.2109C123.471 62.0391 123.19 61.9531 122.831 61.9531H120.815V63.9219ZM122.901 67.0156C123.292 67.0156 123.596 66.9219 123.815 66.7344C124.049 66.5469 124.167 66.2891 124.167 65.9609C124.167 65.6172 124.042 65.3516 123.792 65.1641C123.557 64.9609 123.221 64.8594 122.784 64.8594H120.815V67.0156H122.901ZM132.956 66.9688V68C132.893 68.0312 132.76 68.0469 132.557 68.0469C132.12 68.0469 131.799 67.9609 131.596 67.7891C131.409 67.6172 131.299 67.3203 131.268 66.8984C131.003 67.2734 130.643 67.5703 130.19 67.7891C129.753 68.0078 129.276 68.1172 128.76 68.1172C128.073 68.1172 127.518 67.9297 127.096 67.5547C126.674 67.1641 126.464 66.6562 126.464 66.0312C126.464 65.2812 126.737 64.75 127.284 64.4375C127.846 64.1094 128.581 63.875 129.487 63.7344C130.159 63.625 130.596 63.5234 130.799 63.4297C131.018 63.3359 131.128 63.1562 131.128 62.8906C131.128 62.5781 130.979 62.3281 130.682 62.1406C130.401 61.9531 130.026 61.8594 129.557 61.8594C129.151 61.8594 128.753 61.9453 128.362 62.1172C127.987 62.2734 127.651 62.5078 127.354 62.8203L126.628 62.0703C127.44 61.2578 128.432 60.8516 129.604 60.8516C130.417 60.8516 131.057 61.0547 131.526 61.4609C131.995 61.8672 132.229 62.4297 132.229 63.1484V66.5C132.229 66.8125 132.385 66.9688 132.698 66.9688H132.956ZM128.901 67.1328C129.495 67.1328 130.01 66.9609 130.448 66.6172C130.885 66.2578 131.104 65.8359 131.104 65.3516V64.2734C130.979 64.3672 130.815 64.4375 130.612 64.4844C130.409 64.5312 130.089 64.5859 129.651 64.6484C128.979 64.7578 128.471 64.8984 128.128 65.0703C127.799 65.2422 127.635 65.5547 127.635 66.0078C127.635 66.3672 127.745 66.6484 127.964 66.8516C128.182 67.0391 128.495 67.1328 128.901 67.1328ZM140.479 68H139.049L137.01 65.2109L134.924 68H133.542L136.284 64.4141L133.706 60.9688H135.135L137.057 63.5703L139.003 60.9688H140.362L137.784 64.3906L140.479 68ZM150.276 64.3906C151.057 64.6875 151.448 65.2578 151.448 66.1016C151.448 66.7109 151.237 67.1797 150.815 67.5078C150.409 67.8359 149.831 68 149.081 68H145.753V60.9688H148.823C149.589 60.9688 150.182 61.125 150.604 61.4375C151.042 61.7344 151.26 62.1875 151.26 62.7969C151.26 63.5625 150.932 64.0938 150.276 64.3906ZM146.901 63.9219H148.823C149.276 63.9219 149.596 63.8438 149.784 63.6875C149.971 63.5312 150.065 63.2734 150.065 62.9141C150.065 62.6016 149.964 62.3672 149.76 62.2109C149.557 62.0391 149.276 61.9531 148.917 61.9531H146.901V63.9219ZM148.987 67.0156C149.378 67.0156 149.682 66.9219 149.901 66.7344C150.135 66.5469 150.253 66.2891 150.253 65.9609C150.253 65.6172 150.128 65.3516 149.878 65.1641C149.643 64.9609 149.307 64.8594 148.87 64.8594H146.901V67.0156H148.987ZM153.932 64.8594C154.01 65.5469 154.253 66.0938 154.659 66.5C155.081 66.8906 155.62 67.0859 156.276 67.0859C157.276 67.0859 158.003 66.7656 158.456 66.125L159.299 66.8516C159.018 67.2266 158.628 67.5312 158.128 67.7656C157.628 68 157.018 68.1172 156.299 68.1172C155.19 68.1172 154.315 67.7812 153.674 67.1094C153.049 66.4375 152.737 65.5625 152.737 64.4844C152.737 63.4062 153.057 62.5312 153.698 61.8594C154.339 61.1875 155.167 60.8516 156.182 60.8516C157.198 60.8516 158.003 61.1875 158.596 61.8594C159.206 62.5156 159.51 63.3906 159.51 64.4844C159.51 64.6562 159.503 64.7812 159.487 64.8594H153.932ZM156.182 61.8594C155.573 61.8594 155.073 62.0469 154.682 62.4219C154.292 62.7812 154.049 63.2812 153.956 63.9219H158.292C158.214 63.2812 157.987 62.7812 157.612 62.4219C157.237 62.0469 156.76 61.8594 156.182 61.8594ZM166.307 60.9688V62H163.729V68H162.557V62H159.979V60.9688H166.307ZM168.018 64.8594C168.096 65.5469 168.339 66.0938 168.745 66.5C169.167 66.8906 169.706 67.0859 170.362 67.0859C171.362 67.0859 172.089 66.7656 172.542 66.125L173.385 66.8516C173.104 67.2266 172.714 67.5312 172.214 67.7656C171.714 68 171.104 68.1172 170.385 68.1172C169.276 68.1172 168.401 67.7812 167.76 67.1094C167.135 66.4375 166.823 65.5625 166.823 64.4844C166.823 63.4062 167.143 62.5312 167.784 61.8594C168.424 61.1875 169.253 60.8516 170.268 60.8516C171.284 60.8516 172.089 61.1875 172.682 61.8594C173.292 62.5156 173.596 63.3906 173.596 64.4844C173.596 64.6562 173.589 64.7812 173.573 64.8594H168.018ZM170.268 61.8594C169.659 61.8594 169.159 62.0469 168.768 62.4219C168.378 62.7812 168.135 63.2812 168.042 63.9219H172.378C172.299 63.2812 172.073 62.7812 171.698 62.4219C171.323 62.0469 170.846 61.8594 170.268 61.8594ZM178.917 60.8516C179.854 60.8516 180.604 61.1875 181.167 61.8594C181.745 62.5156 182.034 63.3906 182.034 64.4844C182.034 65.5625 181.737 66.4375 181.143 67.1094C180.565 67.7812 179.823 68.1172 178.917 68.1172C178.417 68.1172 177.956 68.0234 177.534 67.8359C177.128 67.6328 176.792 67.3516 176.526 66.9922V70.3438H175.354V60.9688H176.339L176.432 62.1406C176.714 61.7344 177.065 61.4219 177.487 61.2031C177.924 60.9688 178.401 60.8516 178.917 60.8516ZM178.635 67.0859C179.307 67.0859 179.839 66.8516 180.229 66.3828C180.635 65.8984 180.839 65.2656 180.839 64.4844C180.839 63.7031 180.635 63.0781 180.229 62.6094C179.839 62.125 179.307 61.8828 178.635 61.8828C177.964 61.8828 177.424 62.125 177.018 62.6094C176.628 63.0781 176.432 63.7031 176.432 64.4844C176.432 65.2656 176.628 65.8984 177.018 66.3828C177.424 66.8516 177.964 67.0859 178.635 67.0859ZM189.464 66.9688V68C189.401 68.0312 189.268 68.0469 189.065 68.0469C188.628 68.0469 188.307 67.9609 188.104 67.7891C187.917 67.6172 187.807 67.3203 187.776 66.8984C187.51 67.2734 187.151 67.5703 186.698 67.7891C186.26 68.0078 185.784 68.1172 185.268 68.1172C184.581 68.1172 184.026 67.9297 183.604 67.5547C183.182 67.1641 182.971 66.6562 182.971 66.0312C182.971 65.2812 183.245 64.75 183.792 64.4375C184.354 64.1094 185.089 63.875 185.995 63.7344C186.667 63.625 187.104 63.5234 187.307 63.4297C187.526 63.3359 187.635 63.1562 187.635 62.8906C187.635 62.5781 187.487 62.3281 187.19 62.1406C186.909 61.9531 186.534 61.8594 186.065 61.8594C185.659 61.8594 185.26 61.9453 184.87 62.1172C184.495 62.2734 184.159 62.5078 183.862 62.8203L183.135 62.0703C183.948 61.2578 184.94 60.8516 186.112 60.8516C186.924 60.8516 187.565 61.0547 188.034 61.4609C188.503 61.8672 188.737 62.4297 188.737 63.1484V66.5C188.737 66.8125 188.893 66.9688 189.206 66.9688H189.464ZM185.409 67.1328C186.003 67.1328 186.518 66.9609 186.956 66.6172C187.393 66.2578 187.612 65.8359 187.612 65.3516V64.2734C187.487 64.3672 187.323 64.4375 187.12 64.4844C186.917 64.5312 186.596 64.5859 186.159 64.6484C185.487 64.7578 184.979 64.8984 184.635 65.0703C184.307 65.2422 184.143 65.5547 184.143 66.0078C184.143 66.3672 184.253 66.6484 184.471 66.8516C184.69 67.0391 185.003 67.1328 185.409 67.1328ZM196.026 60.9688H197.198V68H196.026V64.9531H192.276V68H191.104V60.9688H192.276V63.875H196.026V60.9688ZM199.659 60.9688H200.831V68H199.659V60.9688ZM199.589 58.625H200.901V59.9375H199.589V58.625ZM207.815 64.3906C208.596 64.6875 208.987 65.2578 208.987 66.1016C208.987 66.7109 208.776 67.1797 208.354 67.5078C207.948 67.8359 207.37 68 206.62 68H203.292V60.9688H206.362C207.128 60.9688 207.721 61.125 208.143 61.4375C208.581 61.7344 208.799 62.1875 208.799 62.7969C208.799 63.5625 208.471 64.0938 207.815 64.3906ZM204.44 63.9219H206.362C206.815 63.9219 207.135 63.8438 207.323 63.6875C207.51 63.5312 207.604 63.2734 207.604 62.9141C207.604 62.6016 207.503 62.3672 207.299 62.2109C207.096 62.0391 206.815 61.9531 206.456 61.9531H204.44V63.9219ZM206.526 67.0156C206.917 67.0156 207.221 66.9219 207.44 66.7344C207.674 66.5469 207.792 66.2891 207.792 65.9609C207.792 65.6172 207.667 65.3516 207.417 65.1641C207.182 64.9609 206.846 64.8594 206.409 64.8594H204.44V67.0156H206.526ZM95.3151 75.0938L92.2448 82.4297C91.7917 83.5547 91.0964 84.1172 90.1589 84.1172C89.612 84.1172 89.1745 83.9453 88.8464 83.6016C88.5182 83.2578 88.3386 82.7969 88.3073 82.2188L89.3854 81.9609C89.4323 82.6953 89.6979 83.0625 90.1823 83.0625C90.6042 83.0625 90.8932 82.8672 91.0495 82.4766L86.9714 75.0938H88.3776L91.5886 81.2344L94.0026 75.0938H95.3151ZM100.917 84L98.362 80.6016L97.3073 81.5859V84H96.1354V76.9688H97.3073V80.2266L100.729 76.9688H102.229L99.2057 79.8047L102.37 84H100.917ZM107.104 76.8516C108.042 76.8516 108.792 77.1875 109.354 77.8594C109.932 78.5156 110.221 79.3906 110.221 80.4844C110.221 81.5625 109.924 82.4375 109.331 83.1094C108.753 83.7812 108.01 84.1172 107.104 84.1172C106.604 84.1172 106.143 84.0234 105.721 83.8359C105.315 83.6328 104.979 83.3516 104.714 82.9922V86.3438H103.542V76.9688H104.526L104.62 78.1406C104.901 77.7344 105.253 77.4219 105.674 77.2031C106.112 76.9688 106.589 76.8516 107.104 76.8516ZM106.823 83.0859C107.495 83.0859 108.026 82.8516 108.417 82.3828C108.823 81.8984 109.026 81.2656 109.026 80.4844C109.026 79.7031 108.823 79.0781 108.417 78.6094C108.026 78.125 107.495 77.8828 106.823 77.8828C106.151 77.8828 105.612 78.125 105.206 78.6094C104.815 79.0781 104.62 79.7031 104.62 80.4844C104.62 81.2656 104.815 81.8984 105.206 82.3828C105.612 82.8516 106.151 83.0859 106.823 83.0859ZM117.651 82.9688V84C117.589 84.0312 117.456 84.0469 117.253 84.0469C116.815 84.0469 116.495 83.9609 116.292 83.7891C116.104 83.6172 115.995 83.3203 115.964 82.8984C115.698 83.2734 115.339 83.5703 114.885 83.7891C114.448 84.0078 113.971 84.1172 113.456 84.1172C112.768 84.1172 112.214 83.9297 111.792 83.5547C111.37 83.1641 111.159 82.6562 111.159 82.0312C111.159 81.2812 111.432 80.75 111.979 80.4375C112.542 80.1094 113.276 79.875 114.182 79.7344C114.854 79.625 115.292 79.5234 115.495 79.4297C115.714 79.3359 115.823 79.1562 115.823 78.8906C115.823 78.5781 115.674 78.3281 115.378 78.1406C115.096 77.9531 114.721 77.8594 114.253 77.8594C113.846 77.8594 113.448 77.9453 113.057 78.1172C112.682 78.2734 112.346 78.5078 112.049 78.8203L111.323 78.0703C112.135 77.2578 113.128 76.8516 114.299 76.8516C115.112 76.8516 115.753 77.0547 116.221 77.4609C116.69 77.8672 116.924 78.4297 116.924 79.1484V82.5C116.924 82.8125 117.081 82.9688 117.393 82.9688H117.651ZM113.596 83.1328C114.19 83.1328 114.706 82.9609 115.143 82.6172C115.581 82.2578 115.799 81.8359 115.799 81.3516V80.2734C115.674 80.3672 115.51 80.4375 115.307 80.4844C115.104 80.5312 114.784 80.5859 114.346 80.6484C113.674 80.7578 113.167 80.8984 112.823 81.0703C112.495 81.2422 112.331 81.5547 112.331 82.0078C112.331 82.3672 112.44 82.6484 112.659 82.8516C112.878 83.0391 113.19 83.1328 113.596 83.1328ZM119.409 76.9688H120.581V84H119.409V76.9688ZM118.214 74.625H119.526V75.9375H118.214V74.625ZM120.464 74.625H121.776V75.9375H120.464V74.625ZM127.964 76.9688H129.135V84H127.964V80.9531H124.214V84H123.042V76.9688H124.214V79.875H127.964V76.9688ZM136.331 76.9688H137.573V84H136.424V78.5391L132.721 84H131.479V76.9688H132.628V82.4297L136.331 76.9688Z" fill="#062438"/>
</g>
<defs>
<clipPath id="clip0_140_1190">
<rect width="211" height="126" fill="white" transform="translate(0.666687)"/>
</clipPath>
</defs>
</svg>
