<svg width="89" height="68" viewBox="0 0 89 68" fill="none" xmlns="http://www.w3.org/2000/svg">
<path d="M23.7419 44.9683V23.0317H68.483V0H0.333374V68H68.483V44.9683H23.7419Z" fill="#062438"/>
<path d="M30.412 28.0041L29.2123 30.2308C29.1182 30.4242 28.9776 30.5913 28.8028 30.717C28.6479 30.8252 28.4637 30.8836 28.2746 30.8846C28.1127 30.8838 27.9525 30.8505 27.8038 30.7865L27.9635 30.2921C28.0542 30.3247 28.1496 30.3426 28.246 30.3452C28.3221 30.3451 28.3968 30.3254 28.463 30.288C28.5345 30.2404 28.5946 30.1776 28.6391 30.1042L28.6636 30.0715L27.5499 28.0041H28.2501L28.9953 29.5158L29.7692 28.0041H30.412Z" fill="#062438"/>
<path d="M32.0579 29.6833H31.6075V30.8192H30.9565V28.0041H31.6075V29.1399H32.0743L32.8154 28.0041H33.5033L32.582 29.3646L33.532 30.8192H32.7908L32.0579 29.6833Z" fill="#062438"/>
<path d="M35.9559 28.1267C36.1322 28.2003 36.2818 28.3258 36.3849 28.4864C36.488 28.6469 36.5398 28.835 36.5332 29.0256C36.5312 29.2166 36.4728 29.4027 36.3653 29.5608C36.2668 29.7168 36.1244 29.8404 35.9559 29.9163C35.7499 30.0022 35.5281 30.0439 35.3049 30.0388H34.7275V30.8151H34.0724V28.0041H35.3008C35.524 27.999 35.7458 28.0408 35.9518 28.1267H35.9559ZM35.7143 29.3851C35.7625 29.338 35.8007 29.2817 35.8268 29.2196C35.853 29.1575 35.8664 29.0908 35.8664 29.0235C35.8664 28.9562 35.853 28.8895 35.8268 28.8274C35.8007 28.7653 35.7625 28.7091 35.7143 28.6619C35.5836 28.5685 35.4243 28.5237 35.2639 28.5353H34.7275V29.5118H35.2557C35.4161 29.5234 35.5754 29.4786 35.7061 29.3851" fill="#062438"/>
<path d="M38.9695 30.2145H37.6592L37.4095 30.8192H36.742L38.0032 28.0041H38.646L39.9112 30.8192H39.2315L38.9695 30.2145ZM38.7647 29.7201L38.3184 28.6455L37.868 29.7201H38.7647Z" fill="#062438"/>
<path d="M40.2224 27.6772C40.1702 27.6219 40.1413 27.5488 40.1413 27.4729C40.1413 27.397 40.1702 27.3239 40.2224 27.2686C40.2495 27.2425 40.2816 27.2222 40.3167 27.2088C40.352 27.1955 40.3895 27.1894 40.4271 27.191C40.4634 27.1898 40.4996 27.1961 40.5334 27.2095C40.5672 27.2229 40.5979 27.243 40.6236 27.2686C40.6758 27.3239 40.7047 27.397 40.7047 27.4729C40.7047 27.5488 40.6758 27.6219 40.6236 27.6772C40.5979 27.7028 40.5672 27.723 40.5334 27.7363C40.4996 27.7496 40.4634 27.756 40.4271 27.7548C40.3895 27.7563 40.352 27.7503 40.3167 27.7369C40.2816 27.7236 40.2495 27.7033 40.2224 27.6772ZM40.5049 28.0041H41.16V30.8192H40.5049V28.0041ZM41.0413 27.6772C41.014 27.6506 40.9924 27.6188 40.9776 27.5837C40.9629 27.5486 40.9552 27.511 40.9552 27.4729C40.9552 27.4348 40.9629 27.3972 40.9776 27.3621C40.9924 27.327 41.014 27.2952 41.0413 27.2686C41.0667 27.2426 41.0973 27.2222 41.1312 27.2088C41.1651 27.1954 41.2014 27.1893 41.2378 27.191C41.2754 27.1897 41.3128 27.1959 41.348 27.2092C41.3833 27.2225 41.4152 27.2427 41.4426 27.2686C41.4946 27.3239 41.5237 27.397 41.5237 27.4729C41.5237 27.5488 41.4946 27.6219 41.4426 27.6772C41.4152 27.7031 41.3833 27.7233 41.348 27.7366C41.3128 27.7499 41.2754 27.7561 41.2378 27.7548C41.2014 27.7565 41.1651 27.7504 41.1312 27.737C41.0973 27.7236 41.0667 27.7032 41.0413 27.6772Z" fill="#062438"/>
<path d="M44.6732 28.0041V30.8192H44.0222V29.6629H42.7406V30.8192H42.0855V28.0041H42.7406V29.1154H44.0222V28.0041H44.6732Z" fill="#062438"/>
<path d="M46.1923 30.6803C46.0224 30.5849 45.8729 30.4567 45.7534 30.3031C45.6334 30.1495 45.5454 29.9737 45.4942 29.7858C45.443 29.5979 45.4299 29.4018 45.4557 29.2088C45.4815 29.0159 45.5454 28.83 45.6436 28.6619C45.7742 28.4411 45.9642 28.2613 46.1923 28.143C46.4326 28.015 46.7021 27.9503 46.9744 27.955C47.2024 27.9521 47.428 27.9967 47.6377 28.0858C47.8305 28.1683 48.0013 28.2942 48.1372 28.4535L47.7278 28.8417C47.6426 28.7365 47.5345 28.652 47.4121 28.5947C47.2892 28.5373 47.1549 28.5086 47.0194 28.5107C46.8564 28.5068 46.6951 28.5463 46.5526 28.6251C46.4183 28.6994 46.3078 28.8098 46.2332 28.9438C46.1579 29.0883 46.1186 29.2488 46.1186 29.4116C46.1186 29.5745 46.1579 29.735 46.2332 29.8794C46.3078 30.0135 46.4183 30.1239 46.5526 30.1981C46.6951 30.277 46.8564 30.3165 47.0194 30.3125C47.1553 30.3148 47.29 30.2857 47.4129 30.2276C47.5357 30.1695 47.6434 30.0839 47.7278 29.9775L48.1372 30.3861C48.0025 30.5478 47.8313 30.6753 47.6377 30.7579C47.4264 30.8466 47.1996 30.8911 46.9703 30.8886C46.6992 30.8929 46.4314 30.8283 46.1923 30.7007" fill="#062438"/>
<path d="M50.9461 29.1522C51.0423 29.2358 51.1172 29.3407 51.1655 29.4584C51.2139 29.5762 51.2343 29.7036 51.2245 29.8304C51.2331 29.9677 51.2098 30.1051 51.1565 30.2319C51.1033 30.3588 51.0214 30.4716 50.9174 30.5618C50.6705 30.7428 50.3675 30.831 50.0616 30.811H48.7882V28.0041H49.4393V28.9275H50.1558C50.4383 28.9089 50.7188 28.9914 50.9461 29.1603V29.1522ZM50.422 30.2104C50.4719 30.1655 50.5108 30.1097 50.5358 30.0473C50.5604 29.985 50.5706 29.9177 50.5653 29.8508C50.5653 29.5567 50.3851 29.4137 50.0248 29.4137H49.4393V30.3371H50.0248C50.1726 30.3502 50.3196 30.3047 50.4342 30.2104" fill="#062438"/>
<path d="M53.0302 29.6833H52.5757V30.8192H51.9288V28.0041H52.5757V29.1399H53.0466L53.7877 28.0041H54.4756L53.5543 29.3646L54.5042 30.8192H53.7631L53.0302 29.6833Z" fill="#062438"/>
<path d="M55.0529 28.0041H55.6998V29.8386L57.0469 28.0041H57.6611V30.8192H57.0142V28.9887L55.6712 30.8192H55.0529V28.0041Z" fill="#062438"/>
<path d="M58.6029 28.0041H59.2539V29.8386L60.5969 28.0041H61.2111V30.8192H60.5683V28.9887L59.2211 30.8192H58.6029V28.0041ZM59.1229 27.1869H59.5692C59.5692 27.383 59.6879 27.4811 59.9049 27.4811C59.993 27.4867 60.0802 27.4607 60.1506 27.4075C60.1805 27.3792 60.2038 27.3449 60.2194 27.3069C60.235 27.2689 60.2423 27.228 60.2407 27.1869H60.687C60.6911 27.273 60.6751 27.359 60.6411 27.4382C60.6071 27.5174 60.5556 27.588 60.4905 27.6445C60.3193 27.763 60.1125 27.8193 59.9049 27.8039C59.389 27.8039 59.1311 27.5955 59.1229 27.1869Z" fill="#062438"/>
<path d="M31.7182 35.3096C31.8964 35.5603 31.9712 35.8698 31.927 36.1741C31.8828 36.4784 31.723 36.754 31.4807 36.9439C31.0905 37.1912 30.6317 37.3085 30.1704 37.2789H27.9348V32.7396H30.0476C30.4787 32.7148 30.9072 32.8217 31.2759 33.046C31.4184 33.1399 31.5341 33.269 31.6116 33.4209C31.6891 33.5727 31.7258 33.742 31.7182 33.9122C31.7215 34.1218 31.6632 34.3278 31.5503 34.5047C31.4327 34.6819 31.2684 34.8233 31.0753 34.9132C31.3261 34.9787 31.5497 35.1218 31.7141 35.3218L31.7182 35.3096ZM28.9953 34.6191H29.9739C30.1577 34.6304 30.3403 34.5816 30.4939 34.4801C30.5524 34.4299 30.5987 34.367 30.6292 34.2962C30.6598 34.2253 30.6737 34.1485 30.6699 34.0716C30.6735 33.9942 30.6591 33.9171 30.6278 33.8462C30.5966 33.7753 30.5493 33.7126 30.4898 33.663C30.3387 33.559 30.157 33.5086 29.9739 33.52H28.9953V34.6191ZM30.891 35.9143C30.891 35.5384 30.6413 35.3504 30.1499 35.3504H28.9953V36.5067H30.1499C30.6413 36.5067 30.891 36.3147 30.891 35.9265" fill="#062438"/>
<path d="M36.6726 36.4289V37.2706H33.1553V32.7395H36.5866V33.5811H34.1995V34.5658H36.3081V35.383H34.1995V36.4289H36.6726Z" fill="#062438"/>
<path d="M41.3812 33.5975H39.9277V37.2706H38.8918V33.5975H37.4464V32.7395H41.3812V33.5975Z" fill="#062438"/>
<path d="M45.9507 36.4289V37.2706H42.4335V32.7395H45.8647V33.5811H43.4776V34.5658H45.5863V35.383H43.4776V36.4289H45.9507Z" fill="#062438"/>
<path d="M50.2009 32.9398C50.4056 33.0392 50.5874 33.1802 50.7344 33.3538C50.8818 33.5273 50.9907 33.7295 51.0554 33.9475C51.1197 34.1655 51.1377 34.3946 51.1082 34.6199C51.0787 34.8453 51.003 35.0621 50.8846 35.2564C50.7188 35.5096 50.4805 35.7074 50.2009 35.8244C49.8696 35.9635 49.5122 36.0317 49.1527 36.0246H48.2396V37.2707H47.1873V32.7396H49.1527C49.5122 32.7324 49.8696 32.8006 50.2009 32.9398ZM49.816 34.9827C49.8942 34.9066 49.956 34.8157 49.9982 34.7154C50.0408 34.615 50.0625 34.5073 50.0625 34.3984C50.0625 34.2895 50.0408 34.1818 49.9982 34.0815C49.956 33.9811 49.8942 33.8902 49.816 33.8142C49.6067 33.6647 49.3521 33.5925 49.0953 33.6099H48.2396V35.1829H49.0953C49.3516 35.2014 49.6063 35.1306 49.816 34.9827Z" fill="#062438"/>
<path d="M55.057 36.3023H52.9483L52.5388 37.2706H51.462L53.4847 32.7395H54.5247L56.5515 37.2706H55.4501L55.057 36.3023ZM54.7253 35.4851L54.0047 33.7487L53.2841 35.4851H54.7253Z" fill="#062438"/>
<path d="M61.7188 32.7395V37.2706H60.6665V35.4157H58.6029V37.2706H57.5547V32.7395H58.6029V34.529H60.6665V32.7395H61.7188Z" fill="#062438"/>
<path d="M64.1346 37.0502C63.7653 36.8528 63.4574 36.5578 63.2453 36.1974C63.0328 35.837 62.9238 35.4253 62.9308 35.0073C62.921 34.5765 63.0332 34.1516 63.2543 33.7815C63.4676 33.4343 63.7722 33.1518 64.1346 32.9644C64.4933 32.7829 64.8872 32.6806 65.2893 32.6643C65.6913 32.6481 66.0918 32.7184 66.4644 32.8704C66.7817 33.0002 67.0626 33.2049 67.2833 33.4669L66.6077 34.0879C66.4697 33.9191 66.2953 33.7836 66.0975 33.6916C65.8998 33.5996 65.6836 33.5535 65.4653 33.5568C65.2025 33.5522 64.9429 33.6155 64.7119 33.7407C64.4941 33.8597 64.3152 34.0383 64.196 34.2555C64.0752 34.4878 64.0126 34.7456 64.0126 35.0073C64.0126 35.2689 64.0752 35.5267 64.196 35.759C64.3164 35.9753 64.4953 36.1536 64.7119 36.2738C64.9429 36.399 65.2025 36.4623 65.4653 36.4577C65.6844 36.4603 65.901 36.4131 66.0988 36.3196C66.2969 36.2262 66.4709 36.089 66.6077 35.9184L67.2833 36.5394C67.0638 36.8046 66.7825 37.0122 66.4644 37.1441C66.1254 37.2834 65.7622 37.3529 65.3957 37.3484C64.9584 37.3551 64.526 37.2526 64.1387 37.0502" fill="#062438"/>
<path d="M71.816 34.5985C71.9687 34.7352 72.0879 34.905 72.1644 35.0948C72.241 35.2846 72.2733 35.4894 72.2582 35.6935C72.2725 35.9132 72.2361 36.1332 72.1517 36.3365C72.0674 36.5399 71.9368 36.7211 71.7709 36.8661C71.3734 37.1596 70.8849 37.3042 70.3911 37.2747H68.3438V32.7395H69.3879V34.2308H70.5426C70.9971 34.2008 71.4479 34.3309 71.816 34.5985ZM70.9725 36.2941C71.0511 36.2201 71.1121 36.1297 71.1518 36.0295C71.1916 35.9292 71.2083 35.8215 71.2018 35.7139C71.2018 35.24 70.9111 35.0071 70.3337 35.0071H69.3879V36.5066H70.3501C70.5806 36.5209 70.8083 36.4496 70.9889 36.3064" fill="#062438"/>
<path d="M75.1653 35.4484H74.4406V37.2706H73.3965V32.7395H74.4406V34.574H75.194L76.3855 32.7395H77.4951L76.0088 34.9295L77.5401 37.2706H76.3486L75.1653 35.4484Z" fill="#062438"/>
<path d="M78.4246 32.7395H79.4687V35.6935L81.6347 32.7395H82.6215V37.2706H81.5815V34.3288L79.4155 37.2706H78.4246V32.7395Z" fill="#062438"/>
<path d="M84.1365 32.7395H85.1806V35.6895L87.3507 32.7354H88.3334V37.2666H87.2975V34.3207L85.1314 37.2666H84.1365V32.7395ZM84.9758 31.4607H85.6965C85.6965 31.7753 85.8807 31.9305 86.2329 31.9305C86.3795 31.9446 86.526 31.9022 86.6423 31.812C86.6894 31.7668 86.7267 31.7121 86.7512 31.6515C86.7762 31.591 86.7877 31.526 86.7856 31.4607H87.5022C87.5087 31.599 87.4838 31.7372 87.4293 31.8646C87.3748 31.992 87.2917 32.1053 87.1869 32.1961C86.9105 32.3838 86.5789 32.4731 86.2452 32.4494C85.4262 32.4494 85.0168 32.1185 84.9881 31.4607" fill="#062438"/>
<path d="M30.8255 41.0787C30.5095 41.3124 30.1257 41.4374 29.7322 41.4341V41.7406H29.1303V41.43C28.7354 41.4305 28.3507 41.3046 28.033 41.0705C27.907 40.9643 27.807 40.8302 27.741 40.6795C27.675 40.5286 27.6446 40.3646 27.6522 40.2001C27.644 40.0356 27.6741 39.8714 27.7402 39.7204C27.8062 39.5694 27.9065 39.4357 28.033 39.3299C28.351 39.0959 28.7352 38.9685 29.1303 38.9662V38.6802H29.7322V38.9581C30.1263 38.9592 30.5095 39.0867 30.8255 39.3217C30.9456 39.4341 31.0413 39.5698 31.1068 39.7205C31.1722 39.8713 31.206 40.0338 31.206 40.1981C31.206 40.3624 31.1722 40.5249 31.1068 40.6758C31.0413 40.8266 30.9456 40.9622 30.8255 41.0746V41.0787ZM29.1303 40.9193V39.477C28.9009 39.4826 28.6785 39.5566 28.4916 39.6894C28.4213 39.7529 28.3663 39.8315 28.3308 39.9192C28.2954 40.007 28.2803 40.1017 28.2868 40.1961C28.2868 40.6047 28.5653 40.858 29.1303 40.9193ZM30.3587 40.6987C30.431 40.6362 30.4878 40.5581 30.5248 40.4702C30.5617 40.3824 30.5777 40.2871 30.5716 40.192C30.5716 39.7834 30.2891 39.5219 29.724 39.477V40.9193C29.9529 40.9107 30.174 40.8339 30.3587 40.6987Z" fill="#062438"/>
<path d="M32.492 41.475C32.2616 41.3536 32.0693 41.171 31.9364 40.9475C31.8034 40.724 31.735 40.4683 31.7386 40.2084C31.7341 39.9453 31.8036 39.6863 31.9393 39.4606C32.0702 39.2387 32.262 39.0587 32.492 38.9418C32.7363 38.8157 33.0073 38.7498 33.2823 38.7498C33.5573 38.7498 33.8283 38.8157 34.0725 38.9418C34.243 39.0356 34.393 39.1626 34.5135 39.3153C34.6339 39.4679 34.7226 39.6431 34.7741 39.8305C34.8256 40.0178 34.839 40.2136 34.8134 40.4063C34.7879 40.599 34.7239 40.7845 34.6253 40.952C34.4911 41.1722 34.3002 41.3528 34.0725 41.475C33.8275 41.5984 33.5568 41.6629 33.2823 41.6629C33.0078 41.6629 32.7371 41.5984 32.492 41.475ZM33.7204 40.9929C33.8535 40.9169 33.9639 40.807 34.0398 40.6742C34.116 40.5308 34.1554 40.3707 34.1544 40.2084C34.1563 40.0459 34.1169 39.8857 34.0398 39.7426C33.966 39.6071 33.8553 39.4952 33.7204 39.4198C33.5827 39.3434 33.4275 39.304 33.27 39.3054C33.1126 39.305 32.9577 39.3444 32.8196 39.4198C32.6863 39.4958 32.577 39.6076 32.5043 39.7426C32.4253 39.8849 32.3857 40.0457 32.3897 40.2084C32.3867 40.3709 32.4262 40.5315 32.5043 40.6742C32.5776 40.8078 32.6868 40.9181 32.8196 40.9929C32.9569 41.0701 33.1124 41.1097 33.27 41.1073C33.4278 41.1105 33.5835 41.0713 33.7204 40.9929Z" fill="#062438"/>
<path d="M38.1588 38.7988V41.6139H37.5078V40.4617H36.2262V41.6139H35.5711V38.7988H36.2262V39.9101H37.5078V38.7988H38.1588Z" fill="#062438"/>
<path d="M41.9995 41.0828V42.1982H41.3935V41.6139H39.4035V42.1982H38.7975V41.0828H38.9081C39.08 41.0828 39.1988 40.9561 39.2684 40.715C39.3517 40.3766 39.3956 40.0297 39.3994 39.6813L39.4281 38.7988H41.5982V41.0828H41.9995ZM39.8948 40.5924C39.8695 40.7722 39.8007 40.9434 39.6942 41.0909H40.9553V39.3381H39.989V39.7467C39.9812 40.0287 39.9538 40.31 39.9071 40.5883" fill="#062438"/>
</svg>
