<svg width="166" height="126" viewBox="0 0 166 126" fill="none" xmlns="http://www.w3.org/2000/svg">
<path d="M26.2457 67.8757C26.753 66.8821 27.0733 65.8617 27.4204 64.8412C27.8208 63.6865 28.0611 62.5049 28.3013 61.3234C28.4081 60.8132 28.5683 60.3298 28.8085 59.8733C29.2624 59.0408 30.1967 58.5843 31.051 58.7723C31.932 58.9602 32.5993 59.739 32.6527 60.7057C32.7061 61.5919 32.5193 62.4512 32.3324 63.3106C31.7184 65.7811 31.0777 68.2517 30.3035 70.6954C30.2234 70.937 30.1433 71.0176 29.8764 70.9639C28.9687 70.8028 28.0877 71.4473 27.9543 72.3871C27.9276 72.5751 27.9276 72.7362 27.9009 73.0048C27.7941 72.6825 27.714 72.414 27.6339 72.1723C27.5271 71.8232 27.367 71.5278 27.1534 71.2324C26.6729 70.5879 25.9521 70.3462 25.2046 70.5879C24.5372 70.8028 24.1368 71.3935 24.1101 72.1992C24.1101 72.3066 24.1101 72.414 24.1101 72.5483C23.8965 72.4945 23.6829 72.414 23.4961 72.3871C22.5083 72.226 21.6273 73.0048 21.574 74.0521C21.5473 74.6966 21.7074 75.3142 21.8409 75.9318C22.0545 76.818 22.2947 77.6773 22.535 78.5366C22.5617 78.6172 22.5617 78.6978 22.5884 78.8052C22.4549 78.7783 22.4282 78.6709 22.3748 78.6172C22.0545 78.1875 21.7341 77.731 21.4138 77.3014C21.2536 77.0865 21.0667 76.8986 20.8532 76.7374C20.2125 76.2809 19.5451 76.2541 18.9578 76.6569C18.4238 77.006 18.2103 77.6773 18.3705 78.4024C18.4772 78.9126 18.7442 79.3691 19.0112 79.7988C19.5451 80.6581 20.1057 81.5174 20.7731 82.2962C21.654 83.3435 22.3214 84.4982 22.7753 85.7872C22.9888 86.3511 23.2291 86.915 23.4427 87.5058C23.763 88.3383 24.1635 89.117 24.7775 89.8152C24.0567 90.0838 23.3359 90.1912 22.6151 90.2449C20.3993 90.406 18.237 90.1106 16.128 89.3319C14.7932 88.8485 13.8589 87.8818 13.058 86.7539C12.444 85.8677 11.9367 84.901 11.563 83.8805C11.1893 82.8601 10.7621 81.8665 10.2816 80.8998C9.50743 79.3423 9.18707 77.6773 8.81333 76.0124C8.57307 74.8845 8.25272 73.7567 7.77219 72.7094C7.61202 72.3603 7.45184 71.9843 7.34506 71.6084C7.1048 70.7491 6.73106 69.9703 6.27723 69.2184C6.09036 68.8961 5.93018 68.5739 5.8234 68.2248C5.55644 67.446 5.8234 66.8284 6.62427 66.533C7.23828 66.2913 7.85228 66.345 8.49298 66.4256C9.61421 66.5867 10.4952 67.1238 11.2427 67.9831C12.3372 69.2184 13.0313 70.6685 13.4317 72.2529C13.5919 72.8437 13.7788 73.4076 13.9923 73.9715C14.0991 74.24 14.2326 74.4817 14.4996 74.4817C14.7665 74.4817 14.9534 74.24 15.0602 73.9715C15.3271 73.2733 15.5674 72.5751 15.7276 71.8501C15.8877 71.0982 15.9945 70.3462 15.9678 69.5943C15.9144 67.3655 16.1814 65.1635 16.4483 62.9615C16.6085 61.6725 16.6886 60.3566 16.9823 59.0677C17.1157 58.5037 17.3026 57.9398 17.5963 57.4027C18.0501 56.5703 18.7442 56.248 19.6519 56.4091C20.4794 56.5434 21.1468 57.2416 21.2803 58.0741C21.4138 58.9065 21.2803 59.7122 21.1735 60.5446C20.9066 62.7198 20.6396 64.8949 20.7731 67.0969C20.7998 67.7414 20.8799 68.3591 20.9866 68.9767C21.1201 68.1979 21.2536 67.4192 21.4138 66.6404C21.8142 64.4653 22.3481 62.3438 23.0689 60.2492C23.3092 59.5779 23.4694 58.8528 23.6562 58.1815C23.8431 57.537 24.1101 56.9194 24.5372 56.4091C24.9109 55.9258 25.3915 55.6304 26.0055 55.5767C27.2335 55.4961 28.0611 56.2749 28.1411 57.5101C28.1945 58.3158 28.0344 59.0677 27.8208 59.8196C27.0733 62.317 26.6729 64.8949 26.2991 67.4729C26.2724 67.5266 26.2457 67.7146 26.2457 67.8757Z" fill="#062438"/>
<path d="M18.6641 54.7442C18.1035 50.5282 17.4628 46.2853 16.2882 42.1767C15.9678 41.0756 15.7009 39.9209 15.7276 38.7662C15.7276 38.444 15.7543 38.1217 15.8343 37.7995C16.128 36.6448 16.7687 35.866 17.9433 35.5975C19.2514 35.3021 20.3459 35.678 21.2002 36.7253C21.8409 37.5041 22.268 38.444 22.5617 39.4107C24.0033 44.2444 25.5783 49.0512 26.3258 54.0729C26.3792 54.4757 26.4059 54.4757 26.0055 54.4757C25.0978 54.5025 24.4037 54.9053 23.8164 55.6035C23.2024 56.3286 22.8821 57.1879 22.6151 58.0741C22.5083 58.4232 22.4282 58.7723 22.3214 59.1214C22.2947 58.6917 22.3214 58.2621 22.2414 57.8324C22.0812 56.6508 21.1201 55.6304 19.9188 55.3618C18.6641 55.0933 17.5162 55.5498 16.8488 56.624C16.2615 57.5907 16.0212 58.6649 15.8343 59.7659C15.5941 61.216 15.5407 62.6661 15.3271 64.1162C15.0869 65.7274 14.9801 67.3386 15.0068 68.9767C15.0068 70.024 14.9267 71.0713 14.633 72.0917C14.6063 72.1992 14.5796 72.3066 14.5262 72.4408C14.3928 72.226 14.3394 71.9843 14.286 71.7695C13.8322 69.8897 12.9512 68.2785 11.5897 66.909C10.2549 65.5394 8.62646 65.1635 6.81114 65.3783C6.65097 65.4052 6.54418 65.3783 6.4374 65.244C4.54199 62.8541 2.80676 60.3566 1.2584 57.7518C0.724486 56.8388 0.243959 55.8989 0.0570876 54.8516C-0.023 54.3146 -0.0230003 53.8043 0.0837832 53.2941C0.377438 51.9514 1.9258 51.0921 3.28729 51.4949C4.11486 51.7366 4.80895 52.22 5.36957 52.8913C6.33062 53.9923 7.13149 55.2276 7.98576 56.436C9.61421 58.7723 11.3494 61.0011 13.3249 63.042C13.4851 63.2031 13.6453 63.3643 13.8855 63.5791C13.8589 63.2032 13.7521 62.9346 13.672 62.6661C13.0046 60.5715 12.2304 58.4769 11.6431 56.3554C10.682 52.9719 9.72099 49.6151 9.0269 46.1779C8.84003 45.238 8.70655 44.2981 8.84003 43.3314C9.0002 42.0961 9.98795 40.9951 11.1359 40.6997C12.3639 40.4043 13.7521 40.9145 14.4729 41.9618C15.0869 42.848 15.3805 43.8684 15.5674 44.8889C16.1814 48.1113 17.1958 51.2264 18.3971 54.2608C18.5039 54.3683 18.584 54.5562 18.6641 54.7442Z" fill="#062438"/>
<path d="M31.7451 69.299C32.1188 67.9294 32.4926 66.5599 32.8396 65.1635C33.1867 63.8745 33.5337 62.5855 33.6138 61.216C33.6672 60.3566 33.507 59.551 32.9197 58.826C32.0654 57.7787 30.7306 57.4296 29.4492 57.9667C29.3425 58.0204 29.2624 58.1009 29.1022 58.0741C29.0755 57.6444 29.1289 57.2148 29.0221 56.7851C28.7818 55.6841 28.1678 54.9053 27.0733 54.5562C26.8864 54.5025 26.8597 54.422 26.8597 54.234C27.1267 51.4681 26.9665 48.729 26.6729 45.963C26.486 44.1101 26.139 42.2841 26.0856 40.4312C26.0589 39.357 26.219 38.3366 27.0466 37.531C27.9543 36.6448 29.3692 36.3762 30.5171 36.9133C31.1044 37.1819 31.4781 37.6652 31.7718 38.2023C32.4125 39.3302 32.7061 40.5654 32.9464 41.8276C33.3201 43.7879 33.4269 45.7751 33.6405 47.7354C33.774 48.9169 33.9875 50.0985 34.0943 51.2801C34.2278 52.8376 34.2812 54.422 34.2545 55.9795C34.2278 58.45 34.6015 60.84 35.5092 63.1226C35.6427 63.4985 35.7495 63.8745 36.0965 64.1162C36.6037 64.4653 36.9775 64.3579 37.2177 63.7939C37.5114 63.0689 37.7784 62.3438 38.0186 61.5919C38.339 60.5178 38.6326 59.4168 39.0331 58.3695C39.8606 56.3017 41.1687 54.5831 42.8506 53.1598C43.7315 52.4079 44.8527 52.1663 45.974 52.0051C46.7482 51.8977 47.4956 51.8709 48.2698 52.0588C48.5902 52.1394 48.9105 52.2737 49.1775 52.4616C49.8983 52.945 50.1385 53.6164 49.925 54.4757C49.7915 55.0396 49.5512 55.5498 49.2576 56.0332C48.4834 57.349 47.816 58.7186 47.4156 60.2224C47.3088 60.6252 47.1486 61.028 46.9617 61.4039C46.0007 63.3911 45.4668 65.4857 45.0663 67.634C44.5324 70.3731 43.7048 73.0048 42.4234 75.5022C41.6759 76.9254 41.2221 78.4829 40.5547 79.9599C39.6738 81.9202 38.5258 83.7194 37.0042 85.2769C36.3101 86.002 35.4291 86.4854 34.5215 86.915C34.4414 86.8076 34.5215 86.727 34.5482 86.6465C35.349 85.089 35.7495 83.424 36.1766 81.7591C36.4169 80.7655 36.7906 79.7988 37.2978 78.8857C37.4046 78.6709 37.5114 78.4561 37.5915 78.2413C37.8851 77.4625 37.5381 76.7643 36.7639 76.5495C35.7495 76.2541 34.7884 76.4689 33.9875 77.194C33.2401 77.8922 32.7061 78.7246 32.4125 79.7451C32.3591 79.9599 32.279 80.1747 32.1989 80.4433C32.0387 80.0942 32.012 79.8256 32.1455 79.5302C32.8129 78.0264 33.774 76.7106 34.7884 75.4216C36.0965 73.7835 37.2978 72.0917 38.339 70.2657C38.8462 69.3795 39.2466 68.4665 39.2466 67.4192C39.2733 65.2977 37.0309 64.1699 35.4024 64.9755C34.7617 65.2977 34.2278 65.7543 33.774 66.3182C33.1333 67.1507 32.546 68.01 31.9587 68.8424C31.8519 68.9767 31.7718 69.111 31.665 69.2452C31.7718 69.3258 31.7718 69.3258 31.7451 69.299Z" fill="#062438"/>
<path d="M23.9766 81.1952C23.8965 80.9803 23.8431 80.7387 23.763 80.5238C23.1223 78.6441 22.5884 76.7374 22.188 74.804C22.1346 74.5086 22.1079 74.24 22.1346 73.9447C22.1613 73.4344 22.535 73.0316 22.9888 72.8974C23.4427 72.7899 23.9499 72.9779 24.2168 73.3807C24.4571 73.7567 24.5639 74.1595 24.644 74.5891C24.8309 75.6364 25.1779 76.63 25.5516 77.6236C25.5783 77.731 25.605 77.8653 25.7385 77.9459C25.5249 76.5226 25.3114 75.0994 24.9376 73.7298C24.8042 73.2196 24.644 72.7362 24.644 72.226C24.644 71.6352 24.9109 71.2324 25.3915 71.0713C25.9254 70.9102 26.4059 71.0982 26.753 71.5815C26.9398 71.8501 27.0733 72.1723 27.1801 72.4945C27.714 74.3206 28.3013 76.1198 28.595 77.9996C28.6217 78.1338 28.6484 78.2681 28.7284 78.4024C28.7551 78.107 28.7818 77.8116 28.8085 77.5431C28.8886 76.1735 28.7018 74.8308 28.5416 73.4613C28.5149 73.1927 28.4882 72.8974 28.5149 72.6288C28.5416 72.0649 28.8886 71.5815 29.4225 71.501C30.0099 71.3935 30.4103 71.6084 30.6772 72.1723C30.9442 72.7362 31.051 73.3539 31.1311 73.9715C31.3179 75.6901 31.5849 77.4088 31.5315 79.1274C31.5048 79.8793 31.7451 80.5775 32.012 81.2757C32.0654 81.4369 32.1722 81.598 32.3591 81.598C32.546 81.598 32.5993 81.41 32.6527 81.2489C32.8129 80.7387 32.9998 80.2016 33.16 79.6914C33.4269 78.832 33.9074 78.1338 34.5748 77.5699C35.1622 77.0597 35.9096 76.9254 36.6571 77.0865C37.2177 77.194 37.4046 77.6236 37.2177 78.1607C37.1376 78.3487 37.0576 78.5366 36.9508 78.6978C36.4169 79.6645 36.0965 80.7118 35.7495 81.7322C35.6427 82.0545 35.5626 82.4036 35.5092 82.7527C35.3223 83.7463 35.002 84.713 34.5481 85.626C34.2812 86.1631 34.0943 86.7002 33.8541 87.2641C33.6939 87.6401 33.4803 88.016 33.2667 88.3651C32.7061 89.2781 31.9053 89.8958 30.8641 90.1643C29.823 90.4329 28.8085 90.5403 27.7407 90.4866C26.2457 90.406 25.258 89.6004 24.5906 88.3651C24.1101 87.5058 23.763 86.5659 23.4427 85.6529C22.9354 84.2296 22.188 82.9407 21.2269 81.7591C20.5595 80.9535 19.9722 80.0673 19.4116 79.1543C19.198 78.8052 19.0112 78.4561 18.9578 78.0533C18.9044 77.6505 18.9578 77.2477 19.3315 77.006C19.7319 76.7374 20.1057 76.7643 20.5061 77.006C20.8265 77.194 21.0667 77.5162 21.2803 77.8116C21.9744 78.7783 22.6418 79.7719 23.4427 80.6581C23.6295 80.8461 23.8164 81.034 23.9766 81.2489C23.9499 81.222 23.9766 81.222 23.9766 81.1952Z" fill="#062438"/>
<path d="M32.0387 77.8384C32.0387 76.6569 31.7985 75.5022 31.6917 74.3475C31.6116 73.5418 31.5048 72.7362 31.1578 72.0112C31.1044 71.9038 31.1311 71.8232 31.2112 71.7158C32.3591 70.3463 33.3201 68.8693 34.388 67.4192C34.7617 66.909 35.1622 66.3987 35.7495 66.0765C36.23 65.808 36.7105 65.6737 37.2444 65.8617C38.2055 66.2108 38.6059 66.9358 38.3924 68.0368C38.2856 68.6545 38.0186 69.1915 37.725 69.7286C36.7105 71.4741 35.5626 73.139 34.3079 74.6966C33.5337 75.6633 32.7862 76.6569 32.1455 77.731C32.1188 77.7847 32.1188 77.8384 32.0387 77.8384Z" fill="#062438"/>
<path d="M77.0156 35.0938V44H75.8438V36.3828L72.9141 44H71.5078L68.5781 36.3828V44H67.4062V35.0938H69.3516L72.2344 42.6406L75.0938 35.0938H77.0156ZM79.7109 36.9688H80.8828V44H79.7109V36.9688ZM79.6406 34.625H80.9531V35.9375H79.6406V34.625ZM91.6641 44L89.2969 40.5781L88.2891 41.5625V44H87.1172V41.5625L86.1094 40.5547L83.7422 44H82.2891L85.2891 39.7578L82.4297 36.9688H83.9297L87.1172 40.1797V36.9688H88.2891V40.1797L91.4766 36.9688H92.9766L90.1172 39.7578L93.1172 44H91.6641ZM99.3281 36.9688H100.5V44H99.3281V40.9531H95.5781V44H94.4062V36.9688H95.5781V39.875H99.3281V36.9688ZM108.633 42.9688V44C108.57 44.0312 108.438 44.0469 108.234 44.0469C107.797 44.0469 107.477 43.9609 107.273 43.7891C107.086 43.6172 106.977 43.3203 106.945 42.8984C106.68 43.2734 106.32 43.5703 105.867 43.7891C105.43 44.0078 104.953 44.1172 104.438 44.1172C103.75 44.1172 103.195 43.9297 102.773 43.5547C102.352 43.1641 102.141 42.6562 102.141 42.0312C102.141 41.2812 102.414 40.75 102.961 40.4375C103.523 40.1094 104.258 39.875 105.164 39.7344C105.836 39.625 106.273 39.5234 106.477 39.4297C106.695 39.3359 106.805 39.1562 106.805 38.8906C106.805 38.5781 106.656 38.3281 106.359 38.1406C106.078 37.9531 105.703 37.8594 105.234 37.8594C104.828 37.8594 104.43 37.9453 104.039 38.1172C103.664 38.2734 103.328 38.5078 103.031 38.8203L102.305 38.0703C103.117 37.2578 104.109 36.8516 105.281 36.8516C106.094 36.8516 106.734 37.0547 107.203 37.4609C107.672 37.8672 107.906 38.4297 107.906 39.1484V42.5C107.906 42.8125 108.062 42.9688 108.375 42.9688H108.633ZM104.578 43.1328C105.172 43.1328 105.688 42.9609 106.125 42.6172C106.562 42.2578 106.781 41.8359 106.781 41.3516V40.2734C106.656 40.3672 106.492 40.4375 106.289 40.4844C106.086 40.5312 105.766 40.5859 105.328 40.6484C104.656 40.7578 104.148 40.8984 103.805 41.0703C103.477 41.2422 103.312 41.5547 103.312 42.0078C103.312 42.3672 103.422 42.6484 103.641 42.8516C103.859 43.0391 104.172 43.1328 104.578 43.1328ZM113.836 36.8516C114.773 36.8516 115.523 37.1875 116.086 37.8594C116.664 38.5156 116.953 39.3906 116.953 40.4844C116.953 41.5625 116.656 42.4375 116.062 43.1094C115.484 43.7812 114.742 44.1172 113.836 44.1172C113.336 44.1172 112.875 44.0234 112.453 43.8359C112.047 43.6328 111.711 43.3516 111.445 42.9922V46.3438H110.273V36.9688H111.258L111.352 38.1406C111.633 37.7344 111.984 37.4219 112.406 37.2031C112.844 36.9688 113.32 36.8516 113.836 36.8516ZM113.555 43.0859C114.227 43.0859 114.758 42.8516 115.148 42.3828C115.555 41.8984 115.758 41.2656 115.758 40.4844C115.758 39.7031 115.555 39.0781 115.148 38.6094C114.758 38.125 114.227 37.8828 113.555 37.8828C112.883 37.8828 112.344 38.125 111.938 38.6094C111.547 39.0781 111.352 39.7031 111.352 40.4844C111.352 41.2656 111.547 41.8984 111.938 42.3828C112.344 42.8516 112.883 43.0859 113.555 43.0859ZM121.734 44.1172C120.672 44.1172 119.82 43.7891 119.18 43.1328C118.539 42.4766 118.219 41.5938 118.219 40.4844C118.219 39.4062 118.547 38.5312 119.203 37.8594C119.859 37.1875 120.703 36.8516 121.734 36.8516C122.797 36.8516 123.648 37.1797 124.289 37.8359C124.93 38.4922 125.25 39.375 125.25 40.4844C125.25 41.5625 124.922 42.4375 124.266 43.1094C123.609 43.7812 122.766 44.1172 121.734 44.1172ZM121.734 43.0859C122.438 43.0859 123 42.8516 123.422 42.3828C123.844 41.8984 124.055 41.2656 124.055 40.4844C124.055 39.7031 123.844 39.0781 123.422 38.6094C123 38.125 122.438 37.8828 121.734 37.8828C121.031 37.8828 120.469 38.125 120.047 38.6094C119.625 39.0781 119.414 39.7031 119.414 40.4844C119.414 41.2656 119.625 41.8984 120.047 42.3828C120.469 42.8516 121.031 43.0859 121.734 43.0859ZM133.664 42.9688V45.6406H132.562V44H127.219V45.6406H126.117V42.9688H126.891C127.062 42.4531 127.148 41.4297 127.148 39.8984V36.9688H132.75V42.9688H133.664ZM131.578 42.9688V38H128.297V39.9688C128.297 41.2031 128.211 42.2031 128.039 42.9688H131.578ZM140.227 36.9688H141.398V44H140.227V40.9531H136.477V44H135.305V36.9688H136.477V39.875H140.227V36.9688ZM148.594 36.9688H149.836V44H148.688V38.5391L144.984 44H143.742V36.9688H144.891V42.4297L148.594 36.9688ZM157.031 36.9688H158.273V44H157.125V38.5391L153.422 44H152.18V36.9688H153.328V42.4297L157.031 36.9688ZM155.227 36.3125C154.648 36.3125 154.18 36.1719 153.82 35.8906C153.477 35.6094 153.273 35.2109 153.211 34.6953L154.148 34.5078C154.164 34.8203 154.266 35.0625 154.453 35.2344C154.656 35.4062 154.914 35.4922 155.227 35.4922C155.539 35.4922 155.789 35.4062 155.977 35.2344C156.18 35.0625 156.289 34.8203 156.305 34.5078L157.242 34.6953C157.18 35.2109 156.969 35.6094 156.609 35.8906C156.266 36.1719 155.805 36.3125 155.227 36.3125ZM75.375 52.9688H76.5469V60H67.1719V52.9688H68.3438V58.9688H71.2734V52.9688H72.4453V58.9688H75.375V52.9688ZM84.2812 52.9688V54H81.7031V60H80.5312V54H77.9531V52.9688H84.2812ZM91.2891 58.9688V60C91.2266 60.0312 91.0938 60.0469 90.8906 60.0469C90.4531 60.0469 90.1328 59.9609 89.9297 59.7891C89.7422 59.6172 89.6328 59.3203 89.6016 58.8984C89.3359 59.2734 88.9766 59.5703 88.5234 59.7891C88.0859 60.0078 87.6094 60.1172 87.0938 60.1172C86.4062 60.1172 85.8516 59.9297 85.4297 59.5547C85.0078 59.1641 84.7969 58.6562 84.7969 58.0312C84.7969 57.2812 85.0703 56.75 85.6172 56.4375C86.1797 56.1094 86.9141 55.875 87.8203 55.7344C88.4922 55.625 88.9297 55.5234 89.1328 55.4297C89.3516 55.3359 89.4609 55.1562 89.4609 54.8906C89.4609 54.5781 89.3125 54.3281 89.0156 54.1406C88.7344 53.9531 88.3594 53.8594 87.8906 53.8594C87.4844 53.8594 87.0859 53.9453 86.6953 54.1172C86.3203 54.2734 85.9844 54.5078 85.6875 54.8203L84.9609 54.0703C85.7734 53.2578 86.7656 52.8516 87.9375 52.8516C88.75 52.8516 89.3906 53.0547 89.8594 53.4609C90.3281 53.8672 90.5625 54.4297 90.5625 55.1484V58.5C90.5625 58.8125 90.7188 58.9688 91.0312 58.9688H91.2891ZM87.2344 59.1328C87.8281 59.1328 88.3438 58.9609 88.7812 58.6172C89.2188 58.2578 89.4375 57.8359 89.4375 57.3516V56.2734C89.3125 56.3672 89.1484 56.4375 88.9453 56.4844C88.7422 56.5312 88.4219 56.5859 87.9844 56.6484C87.3125 56.7578 86.8047 56.8984 86.4609 57.0703C86.1328 57.2422 85.9688 57.5547 85.9688 58.0078C85.9688 58.3672 86.0781 58.6484 86.2969 58.8516C86.5156 59.0391 86.8281 59.1328 87.2344 59.1328ZM99.0703 56.8594C99.0859 57.8125 98.7812 58.5938 98.1562 59.2031C97.5312 59.8125 96.7344 60.1172 95.7656 60.1172C94.7344 60.1172 93.9141 59.7578 93.3047 59.0391C92.6953 58.3047 92.3906 57.3359 92.3906 56.1328C92.3906 54.7422 92.6328 53.6797 93.1172 52.9453C93.6172 52.2109 94.4141 51.7344 95.5078 51.5156L97.1719 51.1641C97.4219 51.1172 97.5703 50.9531 97.6172 50.6719L97.6406 50.5078L98.7656 50.7188L98.7422 50.9297C98.6953 51.6172 98.2891 52.0547 97.5234 52.2422L95.5078 52.6406C94.3203 52.875 93.6562 53.5781 93.5156 54.75C93.7656 54.3906 94.1094 54.1172 94.5469 53.9297C95 53.7266 95.5078 53.625 96.0703 53.625C96.9297 53.625 97.6406 53.9297 98.2031 54.5391C98.7656 55.1484 99.0547 55.9219 99.0703 56.8594ZM95.7656 59.0859C96.4062 59.0859 96.9141 58.8906 97.2891 58.5C97.6797 58.0938 97.875 57.5547 97.875 56.8828C97.875 56.1953 97.6797 55.6484 97.2891 55.2422C96.9141 54.8359 96.4062 54.6328 95.7656 54.6328C95.1094 54.6328 94.5859 54.8281 94.1953 55.2188C93.8047 55.6094 93.6094 56.1406 93.6094 56.8125C93.6094 57.4844 93.8047 58.0312 94.1953 58.4531C94.6016 58.875 95.125 59.0859 95.7656 59.0859ZM73.9688 74.9688V77.6406H72.8672V76H67.5234V77.6406H66.4219V74.9688H67.1953C67.3672 74.4531 67.4531 73.4297 67.4531 71.8984V68.9688H73.0547V74.9688H73.9688ZM71.8828 74.9688V70H68.6016V71.9688C68.6016 73.2031 68.5156 74.2031 68.3438 74.9688H71.8828ZM78.3984 76.1172C77.3359 76.1172 76.4844 75.7891 75.8438 75.1328C75.2031 74.4766 74.8828 73.5938 74.8828 72.4844C74.8828 71.4062 75.2109 70.5312 75.8672 69.8594C76.5234 69.1875 77.3672 68.8516 78.3984 68.8516C79.4609 68.8516 80.3125 69.1797 80.9531 69.8359C81.5938 70.4922 81.9141 71.375 81.9141 72.4844C81.9141 73.5625 81.5859 74.4375 80.9297 75.1094C80.2734 75.7812 79.4297 76.1172 78.3984 76.1172ZM78.3984 75.0859C79.1016 75.0859 79.6641 74.8516 80.0859 74.3828C80.5078 73.8984 80.7188 73.2656 80.7188 72.4844C80.7188 71.7031 80.5078 71.0781 80.0859 70.6094C79.6641 70.125 79.1016 69.8828 78.3984 69.8828C77.6953 69.8828 77.1328 70.125 76.7109 70.6094C76.2891 71.0781 76.0781 71.7031 76.0781 72.4844C76.0781 73.2656 76.2891 73.8984 76.7109 74.3828C77.1328 74.8516 77.6953 75.0859 78.3984 75.0859ZM89.8125 68.9688V76H88.6406V70H84.8906V76H83.7188V68.9688H89.8125ZM95.1328 76.1172C94.0703 76.1172 93.2188 75.7891 92.5781 75.1328C91.9375 74.4766 91.6172 73.5938 91.6172 72.4844C91.6172 71.4062 91.9453 70.5312 92.6016 69.8594C93.2578 69.1875 94.1016 68.8516 95.1328 68.8516C96.1953 68.8516 97.0469 69.1797 97.6875 69.8359C98.3281 70.4922 98.6484 71.375 98.6484 72.4844C98.6484 73.5625 98.3203 74.4375 97.6641 75.1094C97.0078 75.7812 96.1641 76.1172 95.1328 76.1172ZM95.1328 75.0859C95.8359 75.0859 96.3984 74.8516 96.8203 74.3828C97.2422 73.8984 97.4531 73.2656 97.4531 72.4844C97.4531 71.7031 97.2422 71.0781 96.8203 70.6094C96.3984 70.125 95.8359 69.8828 95.1328 69.8828C94.4297 69.8828 93.8672 70.125 93.4453 70.6094C93.0234 71.0781 92.8125 71.7031 92.8125 72.4844C92.8125 73.2656 93.0234 73.8984 93.4453 74.3828C93.8672 74.8516 94.4297 75.0859 95.1328 75.0859ZM108.422 68.9688V76H107.273V70.1172L105.094 76H103.781L101.602 70.1172V76H100.453V68.9688H102.328L104.461 74.7344L106.57 68.9688H108.422ZM113.742 76.1172C112.68 76.1172 111.828 75.7891 111.188 75.1328C110.547 74.4766 110.227 73.5938 110.227 72.4844C110.227 71.4062 110.555 70.5312 111.211 69.8594C111.867 69.1875 112.711 68.8516 113.742 68.8516C114.805 68.8516 115.656 69.1797 116.297 69.8359C116.938 70.4922 117.258 71.375 117.258 72.4844C117.258 73.5625 116.93 74.4375 116.273 75.1094C115.617 75.7812 114.773 76.1172 113.742 76.1172ZM113.742 75.0859C114.445 75.0859 115.008 74.8516 115.43 74.3828C115.852 73.8984 116.062 73.2656 116.062 72.4844C116.062 71.7031 115.852 71.0781 115.43 70.6094C115.008 70.125 114.445 69.8828 113.742 69.8828C113.039 69.8828 112.477 70.125 112.055 70.6094C111.633 71.0781 111.422 71.7031 111.422 72.4844C111.422 73.2656 111.633 73.8984 112.055 74.3828C112.477 74.8516 113.039 75.0859 113.742 75.0859ZM123.984 68.9688V70.0469H120.234V76H119.062V68.9688H123.984ZM130.242 68.9688H131.484V76H130.336V70.5391L126.633 76H125.391V68.9688H126.539V74.4297L130.242 68.9688ZM73.3828 84.9688L70.6875 92.375C70.4688 93 70.1719 93.5 69.7969 93.875C69.4219 94.2656 68.9766 94.4609 68.4609 94.4609C67.8516 94.4609 67.3828 94.2734 67.0547 93.8984C66.7422 93.5234 66.5938 93.0547 66.6094 92.4922L67.6641 92.3047C67.6328 93.0234 67.8984 93.3828 68.4609 93.3828C68.6797 93.3828 68.8672 93.3125 69.0234 93.1719C69.1953 93.0312 69.3516 92.8125 69.4922 92.5156L66.1875 84.9688H67.4766L70.0547 91.1328L72.1641 84.9688H73.3828ZM79.4766 92L76.9219 88.6016L75.8672 89.5859V92H74.6953V84.9688H75.8672V88.2266L79.2891 84.9688H80.7891L77.7656 87.8047L80.9297 92H79.4766ZM85.6641 84.8516C86.6016 84.8516 87.3516 85.1875 87.9141 85.8594C88.4922 86.5156 88.7812 87.3906 88.7812 88.4844C88.7812 89.5625 88.4844 90.4375 87.8906 91.1094C87.3125 91.7812 86.5703 92.1172 85.6641 92.1172C85.1641 92.1172 84.7031 92.0234 84.2812 91.8359C83.875 91.6328 83.5391 91.3516 83.2734 90.9922V94.3438H82.1016V84.9688H83.0859L83.1797 86.1406C83.4609 85.7344 83.8125 85.4219 84.2344 85.2031C84.6719 84.9688 85.1484 84.8516 85.6641 84.8516ZM85.3828 91.0859C86.0547 91.0859 86.5859 90.8516 86.9766 90.3828C87.3828 89.8984 87.5859 89.2656 87.5859 88.4844C87.5859 87.7031 87.3828 87.0781 86.9766 86.6094C86.5859 86.125 86.0547 85.8828 85.3828 85.8828C84.7109 85.8828 84.1719 86.125 83.7656 86.6094C83.375 87.0781 83.1797 87.7031 83.1797 88.4844C83.1797 89.2656 83.375 89.8984 83.7656 90.3828C84.1719 90.8516 84.7109 91.0859 85.3828 91.0859ZM96.2109 90.9688V92C96.1484 92.0312 96.0156 92.0469 95.8125 92.0469C95.375 92.0469 95.0547 91.9609 94.8516 91.7891C94.6641 91.6172 94.5547 91.3203 94.5234 90.8984C94.2578 91.2734 93.8984 91.5703 93.4453 91.7891C93.0078 92.0078 92.5312 92.1172 92.0156 92.1172C91.3281 92.1172 90.7734 91.9297 90.3516 91.5547C89.9297 91.1641 89.7188 90.6562 89.7188 90.0312C89.7188 89.2812 89.9922 88.75 90.5391 88.4375C91.1016 88.1094 91.8359 87.875 92.7422 87.7344C93.4141 87.625 93.8516 87.5234 94.0547 87.4297C94.2734 87.3359 94.3828 87.1562 94.3828 86.8906C94.3828 86.5781 94.2344 86.3281 93.9375 86.1406C93.6562 85.9531 93.2812 85.8594 92.8125 85.8594C92.4062 85.8594 92.0078 85.9453 91.6172 86.1172C91.2422 86.2734 90.9062 86.5078 90.6094 86.8203L89.8828 86.0703C90.6953 85.2578 91.6875 84.8516 92.8594 84.8516C93.6719 84.8516 94.3125 85.0547 94.7812 85.4609C95.25 85.8672 95.4844 86.4297 95.4844 87.1484V90.5C95.4844 90.8125 95.6406 90.9688 95.9531 90.9688H96.2109ZM92.1562 91.1328C92.75 91.1328 93.2656 90.9609 93.7031 90.6172C94.1406 90.2578 94.3594 89.8359 94.3594 89.3516V88.2734C94.2344 88.3672 94.0703 88.4375 93.8672 88.4844C93.6641 88.5312 93.3438 88.5859 92.9062 88.6484C92.2344 88.7578 91.7266 88.8984 91.3828 89.0703C91.0547 89.2422 90.8906 89.5547 90.8906 90.0078C90.8906 90.3672 91 90.6484 91.2188 90.8516C91.4375 91.0391 91.75 91.1328 92.1562 91.1328ZM97.9688 84.9688H99.1406V92H97.9688V84.9688ZM96.7734 82.625H98.0859V83.9375H96.7734V82.625ZM99.0234 82.625H100.336V83.9375H99.0234V82.625ZM106.523 84.9688H107.695V92H106.523V88.9531H102.773V92H101.602V84.9688H102.773V87.875H106.523V84.9688ZM116.016 90.9688H116.93V93.6406H115.828V92H110.039V84.9688H111.211V90.9688H114.844V84.9688H116.016V90.9688ZM123.586 92H122.414V89.2344H120.703L118.898 92H117.562L119.484 89.0703C119.031 88.9297 118.68 88.6953 118.43 88.3672C118.18 88.0234 118.055 87.625 118.055 87.1719C118.055 86.5156 118.281 85.9844 118.734 85.5781C119.188 85.1719 119.789 84.9688 120.539 84.9688H123.586V92ZM122.414 88.3203V85.9766H120.633C120.195 85.9766 119.852 86.0781 119.602 86.2812C119.352 86.4844 119.227 86.7656 119.227 87.125C119.227 87.5 119.352 87.7969 119.602 88.0156C119.852 88.2188 120.195 88.3203 120.633 88.3203H122.414ZM133.898 84.9688V92H132.75V86.1172L130.57 92H129.258L127.078 86.1172V92H125.93V84.9688H127.805L129.938 90.7344L132.047 84.9688H133.898Z" fill="#062438"/>
</svg>
